<?xml version="1.0" encoding="UTF-8"?>
<svg xmlns="http://www.w3.org/2000/svg" xmlns:xlink="http://www.w3.org/1999/xlink" width="92px" height="92px" viewBox="0 0 92 92" version="1.1">
<g id="surface1">
<path style=" stroke:none;fill-rule:nonzero;fill:rgb(8.627451%,68.235296%,50.980395%);fill-opacity:1;" d="M 44.710938 2.320312 C 45.65625 2.320312 46.601562 2.320312 47.578125 2.320312 C 47.578125 2.488281 47.578125 2.660156 47.578125 2.835938 C 47.765625 2.835938 47.953125 2.835938 48.148438 2.835938 C 48.148438 3.003906 48.148438 3.175781 48.148438 3.351562 C 48.339844 3.351562 48.527344 3.351562 48.722656 3.351562 C 48.722656 3.691406 48.722656 4.03125 48.722656 4.382812 C 48.910156 4.382812 49.101562 4.382812 49.296875 4.382812 C 49.296875 4.550781 49.296875 4.722656 49.296875 4.894531 C 49.484375 4.894531 49.675781 4.894531 49.871094 4.894531 C 49.871094 5.238281 49.871094 5.578125 49.871094 5.925781 C 50.058594 5.925781 50.246094 5.925781 50.441406 5.925781 C 50.441406 6.097656 50.441406 6.265625 50.441406 6.441406 C 50.632812 6.441406 50.820312 6.441406 51.015625 6.441406 C 51.015625 6.78125 51.015625 7.121094 51.015625 7.472656 C 51.203125 7.472656 51.394531 7.472656 51.589844 7.472656 C 51.589844 7.8125 51.589844 8.152344 51.589844 8.503906 C 51.777344 8.503906 51.96875 8.503906 52.160156 8.503906 C 52.160156 8.675781 52.160156 8.84375 52.160156 9.019531 C 52.351562 9.019531 52.539062 9.019531 52.734375 9.019531 C 52.734375 9.359375 52.734375 9.699219 52.734375 10.050781 C 52.925781 10.050781 53.113281 10.050781 53.308594 10.050781 C 53.308594 10.390625 53.308594 10.730469 53.308594 11.082031 C 53.496094 11.082031 53.6875 11.082031 53.882812 11.082031 C 53.882812 11.421875 53.882812 11.761719 53.882812 12.113281 C 54.070312 12.113281 54.261719 12.113281 54.453125 12.113281 C 54.453125 12.453125 54.453125 12.792969 54.453125 13.144531 C 54.644531 13.144531 54.832031 13.144531 55.027344 13.144531 C 55.027344 13.484375 55.027344 13.824219 55.027344 14.171875 C 55.21875 14.171875 55.40625 14.171875 55.601562 14.171875 C 55.601562 14.515625 55.601562 14.855469 55.601562 15.203125 C 55.789062 15.203125 55.980469 15.203125 56.175781 15.203125 C 56.175781 15.714844 56.175781 16.226562 56.175781 16.75 C 56.363281 16.75 56.554688 16.75 56.746094 16.75 C 56.746094 17.261719 56.746094 17.769531 56.746094 18.296875 C 56.9375 18.296875 57.125 18.296875 57.320312 18.296875 C 57.320312 18.808594 57.320312 19.316406 57.320312 19.84375 C 57.511719 19.84375 57.699219 19.84375 57.894531 19.84375 C 57.894531 21.035156 57.894531 22.222656 57.894531 23.449219 C 58.082031 23.449219 58.273438 23.449219 58.46875 23.449219 C 58.46875 24.300781 58.46875 25.152344 58.46875 26.027344 C 58.84375 26.027344 59.222656 26.027344 59.613281 26.027344 C 59.613281 25.859375 59.613281 25.6875 59.613281 25.511719 C 59.992188 25.511719 60.371094 25.511719 60.761719 25.511719 C 60.761719 25.34375 60.761719 25.171875 60.761719 24.996094 C 61.328125 24.996094 61.894531 24.996094 62.480469 24.996094 C 62.480469 24.828125 62.480469 24.65625 62.480469 24.480469 C 63.238281 24.480469 63.992188 24.480469 64.773438 24.480469 C 64.773438 24.3125 64.773438 24.140625 64.773438 23.964844 C 66.097656 23.964844 67.421875 23.964844 68.785156 23.964844 C 68.785156 23.796875 68.785156 23.625 68.785156 23.449219 C 73.890625 23.449219 79 23.449219 84.261719 23.449219 C 84.261719 23.621094 84.261719 23.792969 84.261719 23.964844 C 85.019531 23.964844 85.773438 23.964844 86.554688 23.964844 C 86.554688 24.988281 86.554688 26.007812 86.554688 27.058594 C 86.367188 27.058594 86.175781 27.058594 85.980469 27.058594 C 85.980469 27.398438 85.980469 27.738281 85.980469 28.089844 C 85.792969 28.089844 85.601562 28.089844 85.40625 28.089844 C 85.40625 28.429688 85.40625 28.769531 85.40625 29.121094 C 85.21875 29.121094 85.03125 29.121094 84.835938 29.121094 C 84.835938 29.460938 84.835938 29.800781 84.835938 30.152344 C 84.644531 30.152344 84.457031 30.152344 84.261719 30.152344 C 84.261719 30.492188 84.261719 30.832031 84.261719 31.183594 C 84.074219 31.183594 83.882812 31.183594 83.6875 31.183594 C 83.6875 31.523438 83.6875 31.863281 83.6875 32.210938 C 83.5 32.210938 83.308594 32.210938 83.117188 32.210938 C 83.117188 32.554688 83.117188 32.894531 83.117188 33.242188 C 82.925781 33.242188 82.738281 33.242188 82.542969 33.242188 C 82.542969 33.582031 82.542969 33.925781 82.542969 34.273438 C 82.351562 34.273438 82.164062 34.273438 81.96875 34.273438 C 81.96875 34.445312 81.96875 34.613281 81.96875 34.789062 C 81.78125 34.789062 81.589844 34.789062 81.394531 34.789062 C 81.394531 35.128906 81.394531 35.46875 81.394531 35.820312 C 81.207031 35.820312 81.015625 35.820312 80.824219 35.820312 C 80.824219 35.992188 80.824219 36.160156 80.824219 36.335938 C 80.632812 36.335938 80.445312 36.335938 80.25 36.335938 C 80.25 36.675781 80.25 37.015625 80.25 37.367188 C 80.058594 37.367188 79.871094 37.367188 79.675781 37.367188 C 79.675781 37.535156 79.675781 37.707031 79.675781 37.882812 C 79.488281 37.882812 79.296875 37.882812 79.101562 37.882812 C 79.101562 38.222656 79.101562 38.5625 79.101562 38.914062 C 78.914062 38.914062 78.722656 38.914062 78.53125 38.914062 C 78.53125 39.082031 78.53125 39.253906 78.53125 39.429688 C 78.339844 39.429688 78.152344 39.429688 77.957031 39.429688 C 77.957031 39.597656 77.957031 39.769531 77.957031 39.945312 C 77.765625 39.945312 77.578125 39.945312 77.382812 39.945312 C 77.382812 40.285156 77.382812 40.625 77.382812 40.976562 C 77.195312 40.976562 77.003906 40.976562 76.808594 40.976562 C 76.808594 41.144531 76.808594 41.316406 76.808594 41.488281 C 76.621094 41.488281 76.433594 41.488281 76.238281 41.488281 C 76.238281 41.660156 76.238281 41.832031 76.238281 42.003906 C 76.046875 42.003906 75.859375 42.003906 75.664062 42.003906 C 75.664062 42.175781 75.664062 42.347656 75.664062 42.519531 C 75.472656 42.519531 75.285156 42.519531 75.089844 42.519531 C 75.089844 42.691406 75.089844 42.859375 75.089844 43.035156 C 74.902344 43.035156 74.710938 43.035156 74.515625 43.035156 C 74.515625 43.207031 74.515625 43.375 74.515625 43.550781 C 74.328125 43.550781 74.140625 43.550781 73.945312 43.550781 C 73.945312 43.722656 73.945312 43.890625 73.945312 44.066406 C 73.566406 44.066406 73.1875 44.066406 72.796875 44.066406 C 72.796875 44.238281 72.796875 44.40625 72.796875 44.582031 C 72.609375 44.582031 72.417969 44.582031 72.222656 44.582031 C 72.222656 44.753906 72.222656 44.921875 72.222656 45.097656 C 71.847656 45.097656 71.46875 45.097656 71.078125 45.097656 C 71.078125 45.269531 71.078125 45.4375 71.078125 45.613281 C 70.890625 45.613281 70.699219 45.613281 70.503906 45.613281 C 70.503906 45.953125 70.503906 46.292969 70.503906 46.644531 C 70.882812 46.644531 71.261719 46.644531 71.652344 46.644531 C 71.652344 46.8125 71.652344 46.984375 71.652344 47.160156 C 71.839844 47.160156 72.03125 47.160156 72.222656 47.160156 C 72.222656 47.328125 72.222656 47.5 72.222656 47.675781 C 72.601562 47.675781 72.980469 47.675781 73.371094 47.675781 C 73.371094 47.84375 73.371094 48.015625 73.371094 48.191406 C 73.558594 48.191406 73.75 48.191406 73.945312 48.191406 C 73.945312 48.359375 73.945312 48.53125 73.945312 48.707031 C 74.132812 48.707031 74.320312 48.707031 74.515625 48.707031 C 74.515625 48.875 74.515625 49.046875 74.515625 49.222656 C 74.707031 49.222656 74.894531 49.222656 75.089844 49.222656 C 75.089844 49.390625 75.089844 49.5625 75.089844 49.738281 C 75.28125 49.738281 75.46875 49.738281 75.664062 49.738281 C 75.664062 49.90625 75.664062 50.078125 75.664062 50.253906 C 75.851562 50.253906 76.042969 50.253906 76.238281 50.253906 C 76.238281 50.421875 76.238281 50.59375 76.238281 50.765625 C 76.425781 50.765625 76.613281 50.765625 76.808594 50.765625 C 76.808594 50.9375 76.808594 51.109375 76.808594 51.28125 C 77 51.28125 77.1875 51.28125 77.382812 51.28125 C 77.382812 51.453125 77.382812 51.625 77.382812 51.796875 C 77.574219 51.796875 77.761719 51.796875 77.957031 51.796875 C 77.957031 51.96875 77.957031 52.136719 77.957031 52.3125 C 78.144531 52.3125 78.335938 52.3125 78.53125 52.3125 C 78.53125 52.652344 78.53125 52.992188 78.53125 53.34375 C 78.71875 53.34375 78.90625 53.34375 79.101562 53.34375 C 79.101562 53.515625 79.101562 53.683594 79.101562 53.859375 C 79.292969 53.859375 79.480469 53.859375 79.675781 53.859375 C 79.675781 54.199219 79.675781 54.539062 79.675781 54.890625 C 79.863281 54.890625 80.054688 54.890625 80.25 54.890625 C 80.25 55.0625 80.25 55.230469 80.25 55.40625 C 80.4375 55.40625 80.628906 55.40625 80.824219 55.40625 C 80.824219 55.578125 80.824219 55.746094 80.824219 55.921875 C 81.011719 55.921875 81.199219 55.921875 81.394531 55.921875 C 81.394531 56.261719 81.394531 56.601562 81.394531 56.953125 C 81.585938 56.953125 81.773438 56.953125 81.96875 56.953125 C 81.96875 57.292969 81.96875 57.632812 81.96875 57.984375 C 82.15625 57.984375 82.347656 57.984375 82.542969 57.984375 C 82.542969 58.152344 82.542969 58.324219 82.542969 58.5 C 82.730469 58.5 82.921875 58.5 83.117188 58.5 C 83.117188 58.839844 83.117188 59.179688 83.117188 59.53125 C 83.304688 59.53125 83.492188 59.53125 83.6875 59.53125 C 83.6875 59.871094 83.6875 60.210938 83.6875 60.558594 C 83.878906 60.558594 84.066406 60.558594 84.261719 60.558594 C 84.261719 60.902344 84.261719 61.242188 84.261719 61.589844 C 84.449219 61.589844 84.640625 61.589844 84.835938 61.589844 C 84.835938 61.929688 84.835938 62.269531 84.835938 62.621094 C 85.023438 62.621094 85.214844 62.621094 85.40625 62.621094 C 85.40625 62.960938 85.40625 63.300781 85.40625 63.652344 C 85.597656 63.652344 85.785156 63.652344 85.980469 63.652344 C 85.980469 64.164062 85.980469 64.671875 85.980469 65.199219 C 86.171875 65.199219 86.359375 65.199219 86.554688 65.199219 C 86.554688 65.539062 86.554688 65.878906 86.554688 66.230469 C 86.742188 66.230469 86.933594 66.230469 87.128906 66.230469 C 87.128906 66.910156 87.128906 67.589844 87.128906 68.292969 C 85.804688 68.292969 84.480469 68.292969 83.117188 68.292969 C 83.117188 68.460938 83.117188 68.632812 83.117188 68.808594 C 78.574219 68.808594 74.035156 68.808594 69.359375 68.808594 C 69.359375 68.636719 69.359375 68.464844 69.359375 68.292969 C 68.222656 68.292969 67.089844 68.292969 65.917969 68.292969 C 65.917969 68.121094 65.917969 67.949219 65.917969 67.777344 C 64.972656 67.777344 64.027344 67.777344 63.054688 67.777344 C 63.054688 67.605469 63.054688 67.4375 63.054688 67.261719 C 62.484375 67.261719 61.917969 67.261719 61.332031 67.261719 C 61.332031 67.089844 61.332031 66.921875 61.332031 66.746094 C 60.765625 66.746094 60.199219 66.746094 59.613281 66.746094 C 59.613281 66.574219 59.613281 66.40625 59.613281 66.230469 C 59.234375 66.230469 58.855469 66.230469 58.46875 66.230469 C 58.46875 66.058594 58.46875 65.890625 58.46875 65.714844 C 58.089844 65.714844 57.710938 65.714844 57.320312 65.714844 C 57.320312 67.246094 57.320312 68.777344 57.320312 70.351562 C 57.132812 70.351562 56.941406 70.351562 56.746094 70.351562 C 56.746094 71.035156 56.746094 71.714844 56.746094 72.414062 C 56.558594 72.414062 56.371094 72.414062 56.175781 72.414062 C 56.175781 73.09375 56.175781 73.773438 56.175781 74.476562 C 55.984375 74.476562 55.796875 74.476562 55.601562 74.476562 C 55.601562 74.816406 55.601562 75.15625 55.601562 75.507812 C 55.410156 75.507812 55.222656 75.507812 55.027344 75.507812 C 55.027344 76.015625 55.027344 76.527344 55.027344 77.054688 C 54.839844 77.054688 54.648438 77.054688 54.453125 77.054688 C 54.453125 77.394531 54.453125 77.734375 54.453125 78.085938 C 54.265625 78.085938 54.078125 78.085938 53.882812 78.085938 C 53.882812 78.425781 53.882812 78.765625 53.882812 79.113281 C 53.691406 79.113281 53.503906 79.113281 53.308594 79.113281 C 53.308594 79.453125 53.308594 79.796875 53.308594 80.144531 C 53.121094 80.144531 52.929688 80.144531 52.734375 80.144531 C 52.734375 80.484375 52.734375 80.824219 52.734375 81.175781 C 52.546875 81.175781 52.355469 81.175781 52.160156 81.175781 C 52.160156 81.515625 52.160156 81.855469 52.160156 82.207031 C 51.972656 82.207031 51.785156 82.207031 51.589844 82.207031 C 51.589844 82.546875 51.589844 82.886719 51.589844 83.238281 C 51.398438 83.238281 51.210938 83.238281 51.015625 83.238281 C 51.015625 83.40625 51.015625 83.578125 51.015625 83.753906 C 50.828125 83.753906 50.636719 83.753906 50.441406 83.753906 C 50.441406 84.09375 50.441406 84.433594 50.441406 84.785156 C 50.253906 84.785156 50.0625 84.785156 49.871094 84.785156 C 49.871094 85.125 49.871094 85.464844 49.871094 85.816406 C 49.679688 85.816406 49.492188 85.816406 49.296875 85.816406 C 49.296875 85.984375 49.296875 86.15625 49.296875 86.332031 C 49.105469 86.332031 48.917969 86.332031 48.722656 86.332031 C 48.722656 86.5 48.722656 86.671875 48.722656 86.847656 C 48.535156 86.847656 48.34375 86.847656 48.148438 86.847656 C 48.148438 87.1875 48.148438 87.527344 48.148438 87.875 C 47.960938 87.875 47.769531 87.875 47.578125 87.875 C 47.578125 88.046875 47.578125 88.21875 47.578125 88.390625 C 47.386719 88.390625 47.199219 88.390625 47.003906 88.390625 C 47.003906 88.730469 47.003906 89.074219 47.003906 89.421875 C 46.8125 89.421875 46.625 89.421875 46.429688 89.421875 C 46.429688 89.59375 46.429688 89.761719 46.429688 89.9375 C 45.671875 89.9375 44.917969 89.9375 44.136719 89.9375 C 44.136719 89.769531 44.136719 89.597656 44.136719 89.421875 C 43.949219 89.421875 43.757812 89.421875 43.5625 89.421875 C 43.5625 89.253906 43.5625 89.082031 43.5625 88.90625 C 43.375 88.90625 43.183594 88.90625 42.992188 88.90625 C 42.992188 88.566406 42.992188 88.226562 42.992188 87.875 C 42.800781 87.875 42.613281 87.875 42.417969 87.875 C 42.417969 87.707031 42.417969 87.535156 42.417969 87.363281 C 42.226562 87.363281 42.039062 87.363281 41.84375 87.363281 C 41.84375 87.019531 41.84375 86.679688 41.84375 86.332031 C 41.65625 86.332031 41.464844 86.332031 41.269531 86.332031 C 41.269531 86.160156 41.269531 85.992188 41.269531 85.816406 C 41.082031 85.816406 40.894531 85.816406 40.699219 85.816406 C 40.699219 85.476562 40.699219 85.136719 40.699219 84.785156 C 40.507812 84.785156 40.320312 84.785156 40.125 84.785156 C 40.125 84.613281 40.125 84.445312 40.125 84.269531 C 39.933594 84.269531 39.746094 84.269531 39.550781 84.269531 C 39.550781 83.929688 39.550781 83.589844 39.550781 83.238281 C 39.363281 83.238281 39.171875 83.238281 38.976562 83.238281 C 38.976562 82.898438 38.976562 82.558594 38.976562 82.207031 C 38.789062 82.207031 38.601562 82.207031 38.40625 82.207031 C 38.40625 81.867188 38.40625 81.527344 38.40625 81.175781 C 38.214844 81.175781 38.027344 81.175781 37.832031 81.175781 C 37.832031 81.007812 37.832031 80.835938 37.832031 80.660156 C 37.644531 80.660156 37.453125 80.660156 37.257812 80.660156 C 37.257812 80.320312 37.257812 79.980469 37.257812 79.628906 C 37.070312 79.628906 36.878906 79.628906 36.683594 79.628906 C 36.683594 79.121094 36.683594 78.609375 36.683594 78.085938 C 36.496094 78.085938 36.308594 78.085938 36.113281 78.085938 C 36.113281 77.742188 36.113281 77.402344 36.113281 77.054688 C 35.921875 77.054688 35.734375 77.054688 35.539062 77.054688 C 35.539062 76.714844 35.539062 76.371094 35.539062 76.023438 C 35.351562 76.023438 35.160156 76.023438 34.964844 76.023438 C 34.964844 75.511719 34.964844 75 34.964844 74.476562 C 34.777344 74.476562 34.585938 74.476562 34.390625 74.476562 C 34.390625 73.964844 34.390625 73.457031 34.390625 72.929688 C 34.203125 72.929688 34.015625 72.929688 33.820312 72.929688 C 33.820312 72.25 33.820312 71.570312 33.820312 70.867188 C 33.628906 70.867188 33.441406 70.867188 33.246094 70.867188 C 33.246094 69.167969 33.246094 67.464844 33.246094 65.714844 C 33.058594 65.714844 32.867188 65.714844 32.671875 65.714844 C 32.671875 65.882812 32.671875 66.054688 32.671875 66.230469 C 32.292969 66.230469 31.917969 66.230469 31.527344 66.230469 C 31.527344 66.398438 31.527344 66.570312 31.527344 66.746094 C 30.960938 66.746094 30.390625 66.746094 29.808594 66.746094 C 29.808594 66.914062 29.808594 67.085938 29.808594 67.261719 C 29.429688 67.261719 29.050781 67.261719 28.660156 67.261719 C 28.660156 67.429688 28.660156 67.601562 28.660156 67.777344 C 27.714844 67.777344 26.769531 67.777344 25.792969 67.777344 C 25.792969 67.945312 25.792969 68.117188 25.792969 68.292969 C 24.847656 68.292969 23.902344 68.292969 22.929688 68.292969 C 22.929688 68.460938 22.929688 68.632812 22.929688 68.808594 C 16.875 68.808594 10.820312 68.808594 4.585938 68.808594 C 4.585938 68.636719 4.585938 68.464844 4.585938 68.292969 C 4.207031 68.292969 3.828125 68.292969 3.4375 68.292969 C 3.4375 67.609375 3.4375 66.929688 3.4375 66.230469 C 3.628906 66.230469 3.816406 66.230469 4.011719 66.230469 C 4.011719 65.890625 4.011719 65.550781 4.011719 65.199219 C 4.203125 65.199219 4.390625 65.199219 4.585938 65.199219 C 4.585938 64.6875 4.585938 64.179688 4.585938 63.652344 C 4.773438 63.652344 4.964844 63.652344 5.160156 63.652344 C 5.160156 63.3125 5.160156 62.972656 5.160156 62.621094 C 5.347656 62.621094 5.539062 62.621094 5.730469 62.621094 C 5.730469 62.28125 5.730469 61.941406 5.730469 61.589844 C 5.921875 61.589844 6.109375 61.589844 6.304688 61.589844 C 6.304688 61.25 6.304688 60.910156 6.304688 60.558594 C 6.496094 60.558594 6.683594 60.558594 6.878906 60.558594 C 6.878906 60.21875 6.878906 59.878906 6.878906 59.53125 C 7.066406 59.53125 7.257812 59.53125 7.453125 59.53125 C 7.453125 59.359375 7.453125 59.1875 7.453125 59.015625 C 7.640625 59.015625 7.828125 59.015625 8.023438 59.015625 C 8.023438 58.675781 8.023438 58.332031 8.023438 57.984375 C 8.214844 57.984375 8.402344 57.984375 8.597656 57.984375 C 8.597656 57.644531 8.597656 57.304688 8.597656 56.953125 C 8.789062 56.953125 8.976562 56.953125 9.171875 56.953125 C 9.171875 56.78125 9.171875 56.613281 9.171875 56.4375 C 9.359375 56.4375 9.550781 56.4375 9.746094 56.4375 C 9.746094 56.097656 9.746094 55.757812 9.746094 55.40625 C 9.933594 55.40625 10.121094 55.40625 10.316406 55.40625 C 10.316406 55.234375 10.316406 55.066406 10.316406 54.890625 C 10.507812 54.890625 10.695312 54.890625 10.890625 54.890625 C 10.890625 54.550781 10.890625 54.210938 10.890625 53.859375 C 11.082031 53.859375 11.269531 53.859375 11.464844 53.859375 C 11.464844 53.691406 11.464844 53.519531 11.464844 53.34375 C 11.652344 53.34375 11.84375 53.34375 12.039062 53.34375 C 12.039062 53.175781 12.039062 53.003906 12.039062 52.828125 C 12.226562 52.828125 12.414062 52.828125 12.609375 52.828125 C 12.609375 52.488281 12.609375 52.148438 12.609375 51.796875 C 12.800781 51.796875 12.988281 51.796875 13.183594 51.796875 C 13.183594 51.628906 13.183594 51.457031 13.183594 51.28125 C 13.371094 51.28125 13.5625 51.28125 13.757812 51.28125 C 13.757812 51.113281 13.757812 50.941406 13.757812 50.765625 C 13.945312 50.765625 14.136719 50.765625 14.332031 50.765625 C 14.332031 50.597656 14.332031 50.425781 14.332031 50.253906 C 14.519531 50.253906 14.707031 50.253906 14.902344 50.253906 C 14.902344 50.082031 14.902344 49.910156 14.902344 49.738281 C 15.09375 49.738281 15.28125 49.738281 15.476562 49.738281 C 15.476562 49.566406 15.476562 49.398438 15.476562 49.222656 C 15.664062 49.222656 15.855469 49.222656 16.050781 49.222656 C 16.050781 49.050781 16.050781 48.882812 16.050781 48.707031 C 16.238281 48.707031 16.429688 48.707031 16.625 48.707031 C 16.625 48.535156 16.625 48.367188 16.625 48.191406 C 17 48.191406 17.378906 48.191406 17.769531 48.191406 C 17.769531 48.019531 17.769531 47.851562 17.769531 47.675781 C 17.957031 47.675781 18.148438 47.675781 18.34375 47.675781 C 18.34375 47.503906 18.34375 47.335938 18.34375 47.160156 C 18.722656 47.160156 19.097656 47.160156 19.488281 47.160156 C 19.488281 46.988281 19.488281 46.820312 19.488281 46.644531 C 19.679688 46.644531 19.867188 46.644531 20.0625 46.644531 C 20.0625 46.472656 20.0625 46.304688 20.0625 46.128906 C 19.875 46.128906 19.683594 46.128906 19.488281 46.128906 C 19.488281 45.957031 19.488281 45.789062 19.488281 45.613281 C 19.300781 45.613281 19.109375 45.613281 18.914062 45.613281 C 18.914062 45.445312 18.914062 45.273438 18.914062 45.097656 C 18.539062 45.097656 18.160156 45.097656 17.769531 45.097656 C 17.769531 44.929688 17.769531 44.757812 17.769531 44.582031 C 17.582031 44.582031 17.390625 44.582031 17.195312 44.582031 C 17.195312 44.414062 17.195312 44.242188 17.195312 44.066406 C 17.007812 44.066406 16.816406 44.066406 16.625 44.066406 C 16.625 43.898438 16.625 43.726562 16.625 43.550781 C 16.433594 43.550781 16.246094 43.550781 16.050781 43.550781 C 16.050781 43.382812 16.050781 43.210938 16.050781 43.035156 C 15.859375 43.035156 15.671875 43.035156 15.476562 43.035156 C 15.476562 42.867188 15.476562 42.695312 15.476562 42.519531 C 15.289062 42.519531 15.097656 42.519531 14.902344 42.519531 C 14.902344 42.351562 14.902344 42.179688 14.902344 42.003906 C 14.714844 42.003906 14.523438 42.003906 14.332031 42.003906 C 14.332031 41.835938 14.332031 41.664062 14.332031 41.488281 C 14.140625 41.488281 13.953125 41.488281 13.757812 41.488281 C 13.757812 41.320312 13.757812 41.148438 13.757812 40.976562 C 13.566406 40.976562 13.378906 40.976562 13.183594 40.976562 C 13.183594 40.632812 13.183594 40.292969 13.183594 39.945312 C 12.996094 39.945312 12.804688 39.945312 12.609375 39.945312 C 12.609375 39.773438 12.609375 39.605469 12.609375 39.429688 C 12.421875 39.429688 12.230469 39.429688 12.039062 39.429688 C 12.039062 39.257812 12.039062 39.089844 12.039062 38.914062 C 11.847656 38.914062 11.660156 38.914062 11.464844 38.914062 C 11.464844 38.574219 11.464844 38.234375 11.464844 37.882812 C 11.273438 37.882812 11.085938 37.882812 10.890625 37.882812 C 10.890625 37.710938 10.890625 37.542969 10.890625 37.367188 C 10.703125 37.367188 10.511719 37.367188 10.316406 37.367188 C 10.316406 37.027344 10.316406 36.6875 10.316406 36.335938 C 10.128906 36.335938 9.9375 36.335938 9.746094 36.335938 C 9.746094 35.996094 9.746094 35.65625 9.746094 35.304688 C 9.554688 35.304688 9.367188 35.304688 9.171875 35.304688 C 9.171875 35.136719 9.171875 34.964844 9.171875 34.789062 C 8.980469 34.789062 8.792969 34.789062 8.597656 34.789062 C 8.597656 34.449219 8.597656 34.109375 8.597656 33.757812 C 8.410156 33.757812 8.21875 33.757812 8.023438 33.757812 C 8.023438 33.417969 8.023438 33.078125 8.023438 32.726562 C 7.835938 32.726562 7.648438 32.726562 7.453125 32.726562 C 7.453125 32.386719 7.453125 32.046875 7.453125 31.699219 C 7.261719 31.699219 7.074219 31.699219 6.878906 31.699219 C 6.878906 31.355469 6.878906 31.015625 6.878906 30.667969 C 6.6875 30.667969 6.5 30.667969 6.304688 30.667969 C 6.304688 30.328125 6.304688 29.988281 6.304688 29.636719 C 6.117188 29.636719 5.925781 29.636719 5.730469 29.636719 C 5.730469 29.296875 5.730469 28.957031 5.730469 28.605469 C 5.542969 28.605469 5.355469 28.605469 5.160156 28.605469 C 5.160156 28.265625 5.160156 27.925781 5.160156 27.574219 C 4.96875 27.574219 4.78125 27.574219 4.585938 27.574219 C 4.585938 26.554688 4.585938 25.535156 4.585938 24.480469 C 6.476562 24.480469 8.367188 24.480469 10.316406 24.480469 C 10.316406 24.3125 10.316406 24.140625 10.316406 23.964844 C 13.15625 23.964844 15.992188 23.964844 18.914062 23.964844 C 18.914062 24.136719 18.914062 24.304688 18.914062 24.480469 C 20.996094 24.480469 23.078125 24.480469 25.222656 24.480469 C 25.222656 24.652344 25.222656 24.820312 25.222656 24.996094 C 26.167969 24.996094 27.113281 24.996094 28.085938 24.996094 C 28.085938 25.167969 28.085938 25.335938 28.085938 25.511719 C 28.65625 25.511719 29.222656 25.511719 29.808594 25.511719 C 29.808594 25.683594 29.808594 25.851562 29.808594 26.027344 C 30.375 26.027344 30.941406 26.027344 31.527344 26.027344 C 31.527344 26.199219 31.527344 26.367188 31.527344 26.542969 C 31.90625 26.542969 32.28125 26.542969 32.671875 26.542969 C 32.671875 26.714844 32.671875 26.882812 32.671875 27.058594 C 33.050781 27.058594 33.429688 27.058594 33.820312 27.058594 C 33.820312 27.230469 33.820312 27.398438 33.820312 27.574219 C 34.007812 27.574219 34.199219 27.574219 34.390625 27.574219 C 34.390625 25.191406 34.390625 22.8125 34.390625 20.359375 C 34.582031 20.359375 34.769531 20.359375 34.964844 20.359375 C 34.964844 19.679688 34.964844 18.996094 34.964844 18.296875 C 35.15625 18.296875 35.34375 18.296875 35.539062 18.296875 C 35.539062 17.785156 35.539062 17.277344 35.539062 16.75 C 35.726562 16.75 35.917969 16.75 36.113281 16.75 C 36.113281 16.410156 36.113281 16.070312 36.113281 15.71875 C 36.300781 15.71875 36.492188 15.71875 36.683594 15.71875 C 36.683594 15.210938 36.683594 14.699219 36.683594 14.171875 C 36.875 14.171875 37.0625 14.171875 37.257812 14.171875 C 37.257812 13.832031 37.257812 13.492188 37.257812 13.144531 C 37.449219 13.144531 37.636719 13.144531 37.832031 13.144531 C 37.832031 12.800781 37.832031 12.460938 37.832031 12.113281 C 38.019531 12.113281 38.210938 12.113281 38.40625 12.113281 C 38.40625 11.773438 38.40625 11.433594 38.40625 11.082031 C 38.59375 11.082031 38.785156 11.082031 38.976562 11.082031 C 38.976562 10.742188 38.976562 10.402344 38.976562 10.050781 C 39.167969 10.050781 39.355469 10.050781 39.550781 10.050781 C 39.550781 9.710938 39.550781 9.371094 39.550781 9.019531 C 39.742188 9.019531 39.929688 9.019531 40.125 9.019531 C 40.125 8.847656 40.125 8.679688 40.125 8.503906 C 40.3125 8.503906 40.503906 8.503906 40.699219 8.503906 C 40.699219 8.164062 40.699219 7.824219 40.699219 7.472656 C 40.886719 7.472656 41.074219 7.472656 41.269531 7.472656 C 41.269531 7.304688 41.269531 7.132812 41.269531 6.957031 C 41.460938 6.957031 41.648438 6.957031 41.84375 6.957031 C 41.84375 6.617188 41.84375 6.277344 41.84375 5.925781 C 42.035156 5.925781 42.222656 5.925781 42.417969 5.925781 C 42.417969 5.585938 42.417969 5.246094 42.417969 4.894531 C 42.605469 4.894531 42.796875 4.894531 42.992188 4.894531 C 42.992188 4.726562 42.992188 4.554688 42.992188 4.382812 C 43.179688 4.382812 43.367188 4.382812 43.5625 4.382812 C 43.5625 4.210938 43.5625 4.039062 43.5625 3.867188 C 43.753906 3.867188 43.941406 3.867188 44.136719 3.867188 C 44.136719 3.523438 44.136719 3.183594 44.136719 2.835938 C 44.328125 2.835938 44.515625 2.835938 44.710938 2.835938 C 44.710938 2.664062 44.710938 2.496094 44.710938 2.320312 Z M 42.417969 14.6875 C 42.417969 15.027344 42.417969 15.371094 42.417969 15.71875 C 42.605469 15.71875 42.796875 15.71875 42.992188 15.71875 C 42.992188 15.378906 42.992188 15.039062 42.992188 14.6875 C 42.800781 14.6875 42.613281 14.6875 42.417969 14.6875 Z M 41.84375 16.234375 C 41.84375 16.746094 41.84375 17.253906 41.84375 17.78125 C 41.65625 17.78125 41.464844 17.78125 41.269531 17.78125 C 41.269531 18.292969 41.269531 18.800781 41.269531 19.328125 C 41.082031 19.328125 40.894531 19.328125 40.699219 19.328125 C 40.699219 20.179688 40.699219 21.027344 40.699219 21.90625 C 40.507812 21.90625 40.320312 21.90625 40.125 21.90625 C 40.125 22.753906 40.125 23.605469 40.125 24.480469 C 39.933594 24.480469 39.746094 24.480469 39.550781 24.480469 C 39.550781 29.925781 39.550781 35.367188 39.550781 40.976562 C 39.363281 40.976562 39.171875 40.976562 38.976562 40.976562 C 38.976562 41.316406 38.976562 41.65625 38.976562 42.003906 C 37.085938 42.003906 35.195312 42.003906 33.246094 42.003906 C 33.246094 41.835938 33.246094 41.664062 33.246094 41.488281 C 32.109375 41.488281 30.976562 41.488281 29.808594 41.488281 C 29.808594 41.320312 29.808594 41.148438 29.808594 40.976562 C 29.429688 40.976562 29.050781 40.976562 28.660156 40.976562 C 28.660156 40.804688 28.660156 40.632812 28.660156 40.460938 C 27.902344 40.460938 27.148438 40.460938 26.367188 40.460938 C 26.367188 40.289062 26.367188 40.121094 26.367188 39.945312 C 25.988281 39.945312 25.609375 39.945312 25.222656 39.945312 C 25.222656 39.773438 25.222656 39.605469 25.222656 39.429688 C 24.84375 39.429688 24.464844 39.429688 24.074219 39.429688 C 24.074219 39.257812 24.074219 39.089844 24.074219 38.914062 C 23.507812 38.914062 22.941406 38.914062 22.355469 38.914062 C 22.355469 38.742188 22.355469 38.574219 22.355469 38.398438 C 22.164062 38.398438 21.976562 38.398438 21.78125 38.398438 C 21.78125 38.226562 21.78125 38.058594 21.78125 37.882812 C 21.402344 37.882812 21.023438 37.882812 20.636719 37.882812 C 20.636719 37.710938 20.636719 37.542969 20.636719 37.367188 C 20.257812 37.367188 19.878906 37.367188 19.488281 37.367188 C 19.488281 37.195312 19.488281 37.027344 19.488281 36.851562 C 19.109375 36.851562 18.734375 36.851562 18.34375 36.851562 C 18.34375 37.023438 18.34375 37.191406 18.34375 37.367188 C 18.53125 37.367188 18.722656 37.367188 18.914062 37.367188 C 18.914062 37.535156 18.914062 37.707031 18.914062 37.882812 C 19.105469 37.882812 19.292969 37.882812 19.488281 37.882812 C 19.488281 38.050781 19.488281 38.222656 19.488281 38.398438 C 19.679688 38.398438 19.867188 38.398438 20.0625 38.398438 C 20.0625 38.566406 20.0625 38.738281 20.0625 38.914062 C 20.25 38.914062 20.441406 38.914062 20.636719 38.914062 C 20.636719 39.082031 20.636719 39.253906 20.636719 39.429688 C 20.824219 39.429688 21.015625 39.429688 21.207031 39.429688 C 21.207031 39.597656 21.207031 39.769531 21.207031 39.945312 C 21.398438 39.945312 21.585938 39.945312 21.78125 39.945312 C 21.78125 40.113281 21.78125 40.285156 21.78125 40.460938 C 21.972656 40.460938 22.160156 40.460938 22.355469 40.460938 C 22.355469 40.628906 22.355469 40.800781 22.355469 40.976562 C 22.734375 40.976562 23.113281 40.976562 23.5 40.976562 C 23.5 41.144531 23.5 41.316406 23.5 41.488281 C 23.691406 41.488281 23.878906 41.488281 24.074219 41.488281 C 24.074219 41.660156 24.074219 41.832031 24.074219 42.003906 C 24.453125 42.003906 24.832031 42.003906 25.222656 42.003906 C 25.222656 42.175781 25.222656 42.347656 25.222656 42.519531 C 25.410156 42.519531 25.597656 42.519531 25.792969 42.519531 C 25.792969 42.691406 25.792969 42.859375 25.792969 43.035156 C 25.984375 43.035156 26.171875 43.035156 26.367188 43.035156 C 26.367188 43.207031 26.367188 43.375 26.367188 43.550781 C 26.746094 43.550781 27.125 43.550781 27.515625 43.550781 C 27.515625 43.722656 27.515625 43.890625 27.515625 44.066406 C 27.890625 44.066406 28.269531 44.066406 28.660156 44.066406 C 28.660156 44.238281 28.660156 44.40625 28.660156 44.582031 C 29.039062 44.582031 29.417969 44.582031 29.808594 44.582031 C 29.808594 44.753906 29.808594 44.921875 29.808594 45.097656 C 30.183594 45.097656 30.5625 45.097656 30.953125 45.097656 C 30.953125 45.269531 30.953125 45.4375 30.953125 45.613281 C 31.519531 45.613281 32.089844 45.613281 32.671875 45.613281 C 32.671875 45.785156 32.671875 45.953125 32.671875 46.128906 C 33.050781 46.128906 33.429688 46.128906 33.820312 46.128906 C 33.820312 46.300781 33.820312 46.46875 33.820312 46.644531 C 34.007812 46.644531 34.199219 46.644531 34.390625 46.644531 C 34.390625 46.8125 34.390625 46.984375 34.390625 47.160156 C 34.582031 47.160156 34.769531 47.160156 34.964844 47.160156 C 34.964844 47.328125 34.964844 47.5 34.964844 47.675781 C 35.15625 47.675781 35.34375 47.675781 35.539062 47.675781 C 35.539062 47.84375 35.539062 48.015625 35.539062 48.191406 C 35.726562 48.191406 35.917969 48.191406 36.113281 48.191406 C 36.113281 48.359375 36.113281 48.53125 36.113281 48.707031 C 36.300781 48.707031 36.492188 48.707031 36.683594 48.707031 C 36.683594 49.554688 36.683594 50.40625 36.683594 51.28125 C 36.496094 51.28125 36.308594 51.28125 36.113281 51.28125 C 36.113281 51.625 36.113281 51.964844 36.113281 52.3125 C 35.921875 52.3125 35.734375 52.3125 35.539062 52.3125 C 35.539062 52.484375 35.539062 52.652344 35.539062 52.828125 C 35.351562 52.828125 35.160156 52.828125 34.964844 52.828125 C 34.964844 53.167969 34.964844 53.507812 34.964844 53.859375 C 34.777344 53.859375 34.585938 53.859375 34.390625 53.859375 C 34.390625 54.03125 34.390625 54.199219 34.390625 54.375 C 34.203125 54.375 34.015625 54.375 33.820312 54.375 C 33.820312 54.546875 33.820312 54.714844 33.820312 54.890625 C 33.628906 54.890625 33.441406 54.890625 33.246094 54.890625 C 33.246094 55.0625 33.246094 55.230469 33.246094 55.40625 C 33.058594 55.40625 32.867188 55.40625 32.671875 55.40625 C 32.671875 55.578125 32.671875 55.746094 32.671875 55.921875 C 32.484375 55.921875 32.292969 55.921875 32.101562 55.921875 C 32.101562 56.089844 32.101562 56.261719 32.101562 56.4375 C 31.910156 56.4375 31.722656 56.4375 31.527344 56.4375 C 31.527344 56.605469 31.527344 56.777344 31.527344 56.953125 C 31.335938 56.953125 31.148438 56.953125 30.953125 56.953125 C 30.953125 57.121094 30.953125 57.292969 30.953125 57.46875 C 30.765625 57.46875 30.574219 57.46875 30.378906 57.46875 C 30.378906 57.636719 30.378906 57.808594 30.378906 57.984375 C 30.191406 57.984375 30 57.984375 29.808594 57.984375 C 29.808594 58.152344 29.808594 58.324219 29.808594 58.5 C 29.429688 58.5 29.050781 58.5 28.660156 58.5 C 28.660156 58.667969 28.660156 58.839844 28.660156 59.015625 C 28.472656 59.015625 28.28125 59.015625 28.085938 59.015625 C 28.085938 59.183594 28.085938 59.355469 28.085938 59.53125 C 27.898438 59.53125 27.707031 59.53125 27.515625 59.53125 C 27.515625 59.699219 27.515625 59.871094 27.515625 60.042969 C 27.136719 60.042969 26.757812 60.042969 26.367188 60.042969 C 26.367188 60.214844 26.367188 60.386719 26.367188 60.558594 C 26.179688 60.558594 25.988281 60.558594 25.792969 60.558594 C 25.792969 60.730469 25.792969 60.902344 25.792969 61.074219 C 25.417969 61.074219 25.039062 61.074219 24.648438 61.074219 C 24.648438 61.246094 24.648438 61.414062 24.648438 61.589844 C 24.269531 61.589844 23.890625 61.589844 23.5 61.589844 C 23.5 61.761719 23.5 61.929688 23.5 62.105469 C 23.125 62.105469 22.746094 62.105469 22.355469 62.105469 C 22.355469 62.277344 22.355469 62.445312 22.355469 62.621094 C 21.976562 62.621094 21.597656 62.621094 21.207031 62.621094 C 21.207031 62.792969 21.207031 62.960938 21.207031 63.136719 C 20.832031 63.136719 20.453125 63.136719 20.0625 63.136719 C 20.0625 63.308594 20.0625 63.476562 20.0625 63.652344 C 19.683594 63.652344 19.304688 63.652344 18.914062 63.652344 C 18.914062 63.824219 18.914062 63.992188 18.914062 64.167969 C 19.484375 64.167969 20.050781 64.167969 20.636719 64.167969 C 20.636719 63.996094 20.636719 63.828125 20.636719 63.652344 C 21.390625 63.652344 22.148438 63.652344 22.929688 63.652344 C 22.929688 63.484375 22.929688 63.3125 22.929688 63.136719 C 23.496094 63.136719 24.0625 63.136719 24.648438 63.136719 C 24.648438 62.96875 24.648438 62.796875 24.648438 62.621094 C 25.214844 62.621094 25.78125 62.621094 26.367188 62.621094 C 26.367188 62.453125 26.367188 62.28125 26.367188 62.105469 C 26.746094 62.105469 27.125 62.105469 27.515625 62.105469 C 27.515625 61.9375 27.515625 61.765625 27.515625 61.589844 C 28.082031 61.589844 28.648438 61.589844 29.234375 61.589844 C 29.234375 61.421875 29.234375 61.25 29.234375 61.074219 C 29.613281 61.074219 29.992188 61.074219 30.378906 61.074219 C 30.378906 60.90625 30.378906 60.734375 30.378906 60.558594 C 30.757812 60.558594 31.136719 60.558594 31.527344 60.558594 C 31.527344 60.390625 31.527344 60.21875 31.527344 60.042969 C 31.714844 60.042969 31.90625 60.042969 32.101562 60.042969 C 32.101562 59.875 32.101562 59.703125 32.101562 59.53125 C 32.476562 59.53125 32.855469 59.53125 33.246094 59.53125 C 33.246094 59.359375 33.246094 59.1875 33.246094 59.015625 C 33.625 59.015625 34.003906 59.015625 34.390625 59.015625 C 34.390625 58.84375 34.390625 58.675781 34.390625 58.5 C 34.582031 58.5 34.769531 58.5 34.964844 58.5 C 34.964844 58.328125 34.964844 58.160156 34.964844 57.984375 C 35.34375 57.984375 35.722656 57.984375 36.113281 57.984375 C 36.113281 57.8125 36.113281 57.644531 36.113281 57.46875 C 36.300781 57.46875 36.492188 57.46875 36.683594 57.46875 C 36.683594 57.296875 36.683594 57.128906 36.683594 56.953125 C 36.875 56.953125 37.0625 56.953125 37.257812 56.953125 C 37.257812 56.78125 37.257812 56.613281 37.257812 56.4375 C 37.636719 56.4375 38.015625 56.4375 38.40625 56.4375 C 38.40625 56.265625 38.40625 56.097656 38.40625 55.921875 C 38.785156 55.921875 39.160156 55.921875 39.550781 55.921875 C 39.550781 55.75 39.550781 55.582031 39.550781 55.40625 C 40.117188 55.40625 40.6875 55.40625 41.269531 55.40625 C 41.269531 55.234375 41.269531 55.066406 41.269531 54.890625 C 42.59375 54.890625 43.917969 54.890625 45.285156 54.890625 C 45.285156 55.230469 45.285156 55.570312 45.285156 55.921875 C 45.472656 55.921875 45.660156 55.921875 45.855469 55.921875 C 45.855469 56.261719 45.855469 56.601562 45.855469 56.953125 C 46.046875 56.953125 46.234375 56.953125 46.429688 56.953125 C 46.429688 57.460938 46.429688 57.972656 46.429688 58.5 C 46.617188 58.5 46.808594 58.5 47.003906 58.5 C 47.003906 59.007812 47.003906 59.519531 47.003906 60.042969 C 47.191406 60.042969 47.382812 60.042969 47.578125 60.042969 C 47.578125 60.554688 47.578125 61.066406 47.578125 61.589844 C 47.765625 61.589844 47.953125 61.589844 48.148438 61.589844 C 48.148438 62.269531 48.148438 62.953125 48.148438 63.652344 C 48.339844 63.652344 48.527344 63.652344 48.722656 63.652344 C 48.722656 67.90625 48.722656 72.15625 48.722656 76.539062 C 48.910156 76.539062 49.101562 76.539062 49.296875 76.539062 C 49.296875 76.027344 49.296875 75.515625 49.296875 74.992188 C 49.484375 74.992188 49.675781 74.992188 49.871094 74.992188 C 49.871094 74.480469 49.871094 73.972656 49.871094 73.445312 C 50.058594 73.445312 50.246094 73.445312 50.441406 73.445312 C 50.441406 72.765625 50.441406 72.085938 50.441406 71.382812 C 50.632812 71.382812 50.820312 71.382812 51.015625 71.382812 C 51.015625 70.535156 51.015625 69.683594 51.015625 68.808594 C 51.203125 68.808594 51.394531 68.808594 51.589844 68.808594 C 51.589844 67.785156 51.589844 66.765625 51.589844 65.714844 C 51.777344 65.714844 51.96875 65.714844 52.160156 65.714844 C 52.160156 63.84375 52.160156 61.972656 52.160156 60.042969 C 51.972656 60.042969 51.785156 60.042969 51.589844 60.042969 C 51.589844 57.492188 51.589844 54.941406 51.589844 52.3125 C 51.777344 52.3125 51.96875 52.3125 52.160156 52.3125 C 52.160156 51.804688 52.160156 51.292969 52.160156 50.765625 C 53.484375 50.765625 54.808594 50.765625 56.175781 50.765625 C 56.175781 50.9375 56.175781 51.109375 56.175781 51.28125 C 57.5 51.28125 58.824219 51.28125 60.1875 51.28125 C 60.1875 51.453125 60.1875 51.625 60.1875 51.796875 C 60.945312 51.796875 61.699219 51.796875 62.480469 51.796875 C 62.480469 51.96875 62.480469 52.136719 62.480469 52.3125 C 63.046875 52.3125 63.613281 52.3125 64.199219 52.3125 C 64.199219 52.484375 64.199219 52.652344 64.199219 52.828125 C 64.765625 52.828125 65.335938 52.828125 65.917969 52.828125 C 65.917969 53 65.917969 53.167969 65.917969 53.34375 C 66.296875 53.34375 66.675781 53.34375 67.066406 53.34375 C 67.066406 53.515625 67.066406 53.683594 67.066406 53.859375 C 67.632812 53.859375 68.199219 53.859375 68.785156 53.859375 C 68.785156 54.03125 68.785156 54.199219 68.785156 54.375 C 69.164062 54.375 69.542969 54.375 69.929688 54.375 C 69.929688 54.546875 69.929688 54.714844 69.929688 54.890625 C 70.121094 54.890625 70.308594 54.890625 70.503906 54.890625 C 70.503906 55.0625 70.503906 55.230469 70.503906 55.40625 C 70.882812 55.40625 71.261719 55.40625 71.652344 55.40625 C 71.652344 55.578125 71.652344 55.746094 71.652344 55.921875 C 72.03125 55.921875 72.40625 55.921875 72.796875 55.921875 C 72.796875 55.75 72.796875 55.582031 72.796875 55.40625 C 72.609375 55.40625 72.417969 55.40625 72.222656 55.40625 C 72.222656 55.234375 72.222656 55.066406 72.222656 54.890625 C 72.035156 54.890625 71.847656 54.890625 71.652344 54.890625 C 71.652344 54.71875 71.652344 54.550781 71.652344 54.375 C 71.460938 54.375 71.273438 54.375 71.078125 54.375 C 71.078125 54.207031 71.078125 54.035156 71.078125 53.859375 C 70.890625 53.859375 70.699219 53.859375 70.503906 53.859375 C 70.503906 53.691406 70.503906 53.519531 70.503906 53.34375 C 70.316406 53.34375 70.125 53.34375 69.929688 53.34375 C 69.929688 53.175781 69.929688 53.003906 69.929688 52.828125 C 69.742188 52.828125 69.554688 52.828125 69.359375 52.828125 C 69.359375 52.660156 69.359375 52.488281 69.359375 52.3125 C 69.167969 52.3125 68.980469 52.3125 68.785156 52.3125 C 68.785156 52.144531 68.785156 51.972656 68.785156 51.796875 C 68.40625 51.796875 68.027344 51.796875 67.636719 51.796875 C 67.636719 51.628906 67.636719 51.457031 67.636719 51.28125 C 67.449219 51.28125 67.261719 51.28125 67.066406 51.28125 C 67.066406 51.113281 67.066406 50.941406 67.066406 50.765625 C 66.6875 50.765625 66.308594 50.765625 65.917969 50.765625 C 65.917969 50.597656 65.917969 50.425781 65.917969 50.253906 C 65.730469 50.253906 65.539062 50.253906 65.347656 50.253906 C 65.347656 50.082031 65.347656 49.910156 65.347656 49.738281 C 64.96875 49.738281 64.589844 49.738281 64.199219 49.738281 C 64.199219 49.566406 64.199219 49.398438 64.199219 49.222656 C 64.011719 49.222656 63.820312 49.222656 63.625 49.222656 C 63.625 49.050781 63.625 48.882812 63.625 48.707031 C 63.246094 48.707031 62.871094 48.707031 62.480469 48.707031 C 62.480469 48.535156 62.480469 48.367188 62.480469 48.191406 C 62.101562 48.191406 61.722656 48.191406 61.332031 48.191406 C 61.332031 48.019531 61.332031 47.851562 61.332031 47.675781 C 60.953125 47.675781 60.578125 47.675781 60.1875 47.675781 C 60.1875 47.503906 60.1875 47.335938 60.1875 47.160156 C 59.621094 47.160156 59.050781 47.160156 58.46875 47.160156 C 58.46875 46.988281 58.46875 46.820312 58.46875 46.644531 C 58.089844 46.644531 57.710938 46.644531 57.320312 46.644531 C 57.320312 46.472656 57.320312 46.304688 57.320312 46.128906 C 56.941406 46.128906 56.5625 46.128906 56.175781 46.128906 C 56.175781 45.957031 56.175781 45.789062 56.175781 45.613281 C 55.984375 45.613281 55.796875 45.613281 55.601562 45.613281 C 55.601562 45.445312 55.601562 45.273438 55.601562 45.097656 C 55.410156 45.097656 55.222656 45.097656 55.027344 45.097656 C 55.027344 44.929688 55.027344 44.757812 55.027344 44.582031 C 54.839844 44.582031 54.648438 44.582031 54.453125 44.582031 C 54.453125 44.414062 54.453125 44.242188 54.453125 44.066406 C 54.265625 44.066406 54.078125 44.066406 53.882812 44.066406 C 53.882812 43.898438 53.882812 43.726562 53.882812 43.550781 C 53.691406 43.550781 53.503906 43.550781 53.308594 43.550781 C 53.308594 42.703125 53.308594 41.851562 53.308594 40.976562 C 53.496094 40.976562 53.6875 40.976562 53.882812 40.976562 C 53.882812 40.804688 53.882812 40.632812 53.882812 40.460938 C 54.070312 40.460938 54.261719 40.460938 54.453125 40.460938 C 54.453125 40.289062 54.453125 40.121094 54.453125 39.945312 C 54.644531 39.945312 54.832031 39.945312 55.027344 39.945312 C 55.027344 39.605469 55.027344 39.261719 55.027344 38.914062 C 55.21875 38.914062 55.40625 38.914062 55.601562 38.914062 C 55.601562 38.742188 55.601562 38.574219 55.601562 38.398438 C 55.789062 38.398438 55.980469 38.398438 56.175781 38.398438 C 56.175781 38.226562 56.175781 38.058594 56.175781 37.882812 C 56.363281 37.882812 56.554688 37.882812 56.746094 37.882812 C 56.746094 37.710938 56.746094 37.542969 56.746094 37.367188 C 56.9375 37.367188 57.125 37.367188 57.320312 37.367188 C 57.320312 37.195312 57.320312 37.027344 57.320312 36.851562 C 57.511719 36.851562 57.699219 36.851562 57.894531 36.851562 C 57.894531 36.679688 57.894531 36.511719 57.894531 36.335938 C 58.082031 36.335938 58.273438 36.335938 58.46875 36.335938 C 58.46875 36.167969 58.46875 35.996094 58.46875 35.820312 C 58.65625 35.820312 58.84375 35.820312 59.039062 35.820312 C 59.039062 35.652344 59.039062 35.480469 59.039062 35.304688 C 59.230469 35.304688 59.417969 35.304688 59.613281 35.304688 C 59.613281 35.136719 59.613281 34.964844 59.613281 34.789062 C 59.804688 34.789062 59.992188 34.789062 60.1875 34.789062 C 60.1875 34.621094 60.1875 34.449219 60.1875 34.273438 C 60.375 34.273438 60.566406 34.273438 60.761719 34.273438 C 60.761719 34.105469 60.761719 33.933594 60.761719 33.757812 C 61.136719 33.757812 61.515625 33.757812 61.90625 33.757812 C 61.90625 33.589844 61.90625 33.417969 61.90625 33.242188 C 62.09375 33.242188 62.285156 33.242188 62.480469 33.242188 C 62.480469 33.074219 62.480469 32.902344 62.480469 32.726562 C 62.667969 32.726562 62.859375 32.726562 63.054688 32.726562 C 63.054688 32.558594 63.054688 32.386719 63.054688 32.210938 C 63.429688 32.210938 63.808594 32.210938 64.199219 32.210938 C 64.199219 32.042969 64.199219 31.871094 64.199219 31.699219 C 64.386719 31.699219 64.578125 31.699219 64.773438 31.699219 C 64.773438 31.527344 64.773438 31.355469 64.773438 31.183594 C 65.152344 31.183594 65.527344 31.183594 65.917969 31.183594 C 65.917969 31.011719 65.917969 30.84375 65.917969 30.667969 C 66.296875 30.667969 66.675781 30.667969 67.066406 30.667969 C 67.066406 30.496094 67.066406 30.328125 67.066406 30.152344 C 67.445312 30.152344 67.820312 30.152344 68.210938 30.152344 C 68.210938 29.980469 68.210938 29.8125 68.210938 29.636719 C 68.589844 29.636719 68.96875 29.636719 69.359375 29.636719 C 69.359375 29.464844 69.359375 29.296875 69.359375 29.121094 C 69.738281 29.121094 70.113281 29.121094 70.503906 29.121094 C 70.503906 28.949219 70.503906 28.78125 70.503906 28.605469 C 70.882812 28.605469 71.261719 28.605469 71.652344 28.605469 C 71.652344 28.433594 71.652344 28.265625 71.652344 28.089844 C 71.082031 28.089844 70.515625 28.089844 69.929688 28.089844 C 69.929688 28.257812 69.929688 28.429688 69.929688 28.605469 C 69.363281 28.605469 68.796875 28.605469 68.210938 28.605469 C 68.210938 28.773438 68.210938 28.945312 68.210938 29.121094 C 67.457031 29.121094 66.699219 29.121094 65.917969 29.121094 C 65.917969 29.289062 65.917969 29.460938 65.917969 29.636719 C 65.351562 29.636719 64.785156 29.636719 64.199219 29.636719 C 64.199219 29.804688 64.199219 29.976562 64.199219 30.152344 C 63.820312 30.152344 63.441406 30.152344 63.054688 30.152344 C 63.054688 30.320312 63.054688 30.492188 63.054688 30.667969 C 62.675781 30.667969 62.296875 30.667969 61.90625 30.667969 C 61.90625 30.835938 61.90625 31.007812 61.90625 31.183594 C 61.339844 31.183594 60.773438 31.183594 60.1875 31.183594 C 60.1875 31.351562 60.1875 31.523438 60.1875 31.699219 C 59.996094 31.699219 59.808594 31.699219 59.613281 31.699219 C 59.613281 31.867188 59.613281 32.039062 59.613281 32.210938 C 59.234375 32.210938 58.855469 32.210938 58.46875 32.210938 C 58.46875 32.382812 58.46875 32.554688 58.46875 32.726562 C 58.089844 32.726562 57.710938 32.726562 57.320312 32.726562 C 57.320312 32.898438 57.320312 33.070312 57.320312 33.242188 C 56.941406 33.242188 56.5625 33.242188 56.175781 33.242188 C 56.175781 33.414062 56.175781 33.582031 56.175781 33.757812 C 55.984375 33.757812 55.796875 33.757812 55.601562 33.757812 C 55.601562 33.929688 55.601562 34.097656 55.601562 34.273438 C 55.410156 34.273438 55.222656 34.273438 55.027344 34.273438 C 55.027344 34.445312 55.027344 34.613281 55.027344 34.789062 C 54.839844 34.789062 54.648438 34.789062 54.453125 34.789062 C 54.453125 34.960938 54.453125 35.128906 54.453125 35.304688 C 54.078125 35.304688 53.699219 35.304688 53.308594 35.304688 C 53.308594 35.476562 53.308594 35.644531 53.308594 35.820312 C 52.929688 35.820312 52.550781 35.820312 52.160156 35.820312 C 52.160156 35.992188 52.160156 36.160156 52.160156 36.335938 C 51.59375 36.335938 51.027344 36.335938 50.441406 36.335938 C 50.441406 36.507812 50.441406 36.675781 50.441406 36.851562 C 48.929688 36.851562 47.414062 36.851562 45.855469 36.851562 C 45.855469 36.339844 45.855469 35.832031 45.855469 35.304688 C 45.667969 35.304688 45.476562 35.304688 45.285156 35.304688 C 45.285156 35.136719 45.285156 34.964844 45.285156 34.789062 C 45.09375 34.789062 44.90625 34.789062 44.710938 34.789062 C 44.710938 34.109375 44.710938 33.429688 44.710938 32.726562 C 44.519531 32.726562 44.332031 32.726562 44.136719 32.726562 C 44.136719 32.21875 44.136719 31.707031 44.136719 31.183594 C 43.949219 31.183594 43.757812 31.183594 43.5625 31.183594 C 43.5625 30.5 43.5625 29.820312 43.5625 29.121094 C 43.375 29.121094 43.183594 29.121094 42.992188 29.121094 C 42.992188 27.929688 42.992188 26.738281 42.992188 25.511719 C 42.800781 25.511719 42.613281 25.511719 42.417969 25.511719 C 42.417969 22.449219 42.417969 19.390625 42.417969 16.234375 C 42.226562 16.234375 42.039062 16.234375 41.84375 16.234375 Z M 72.796875 27.574219 C 72.796875 27.746094 72.796875 27.914062 72.796875 28.089844 C 72.988281 28.089844 73.175781 28.089844 73.371094 28.089844 C 73.371094 27.917969 73.371094 27.75 73.371094 27.574219 C 73.179688 27.574219 72.992188 27.574219 72.796875 27.574219 Z M 17.195312 35.820312 C 17.195312 35.992188 17.195312 36.160156 17.195312 36.335938 C 17.386719 36.335938 17.574219 36.335938 17.769531 36.335938 C 17.769531 36.167969 17.769531 35.996094 17.769531 35.820312 C 17.582031 35.820312 17.390625 35.820312 17.195312 35.820312 Z M 17.769531 36.335938 C 17.769531 36.507812 17.769531 36.675781 17.769531 36.851562 C 17.957031 36.851562 18.148438 36.851562 18.34375 36.851562 C 18.34375 36.679688 18.34375 36.511719 18.34375 36.335938 C 18.152344 36.335938 17.964844 36.335938 17.769531 36.335938 Z M 72.796875 55.921875 C 72.796875 56.089844 72.796875 56.261719 72.796875 56.4375 C 72.988281 56.4375 73.175781 56.4375 73.371094 56.4375 C 73.371094 56.265625 73.371094 56.097656 73.371094 55.921875 C 73.179688 55.921875 72.992188 55.921875 72.796875 55.921875 Z M 73.371094 56.4375 C 73.371094 56.605469 73.371094 56.777344 73.371094 56.953125 C 73.558594 56.953125 73.75 56.953125 73.945312 56.953125 C 73.945312 56.78125 73.945312 56.613281 73.945312 56.4375 C 73.753906 56.4375 73.566406 56.4375 73.371094 56.4375 Z M 17.195312 64.167969 C 17.195312 64.339844 17.195312 64.507812 17.195312 64.683594 C 17.574219 64.683594 17.953125 64.683594 18.34375 64.683594 C 18.34375 64.511719 18.34375 64.34375 18.34375 64.167969 C 17.964844 64.167969 17.585938 64.167969 17.195312 64.167969 Z M 17.195312 64.167969 "/>
<path style=" stroke:none;fill-rule:nonzero;fill:rgb(96.862745%,98.039216%,97.647059%);fill-opacity:1;" d="M 60.761719 33.757812 C 61.136719 33.84375 61.515625 33.929688 61.90625 34.015625 C 61.679688 34.199219 61.457031 34.382812 61.226562 34.574219 C 60.441406 35.214844 59.664062 35.855469 58.886719 36.503906 C 58.554688 36.777344 58.21875 37.050781 57.882812 37.324219 C 56.785156 38.246094 55.902344 39.285156 55.027344 40.378906 C 54.910156 40.523438 54.792969 40.667969 54.671875 40.816406 C 54.039062 41.621094 54.039062 41.621094 53.917969 42.578125 C 55.109375 44.777344 57.71875 46.082031 60.1875 46.902344 C 60.1875 46.988281 60.1875 47.070312 60.1875 47.160156 C 59.621094 47.160156 59.050781 47.160156 58.46875 47.160156 C 58.46875 46.988281 58.46875 46.820312 58.46875 46.644531 C 58.089844 46.644531 57.710938 46.644531 57.320312 46.644531 C 57.320312 46.472656 57.320312 46.304688 57.320312 46.128906 C 56.941406 46.128906 56.5625 46.128906 56.175781 46.128906 C 56.175781 45.957031 56.175781 45.789062 56.175781 45.613281 C 55.984375 45.613281 55.796875 45.613281 55.601562 45.613281 C 55.601562 45.445312 55.601562 45.273438 55.601562 45.097656 C 55.410156 45.097656 55.222656 45.097656 55.027344 45.097656 C 55.027344 44.929688 55.027344 44.757812 55.027344 44.582031 C 54.839844 44.582031 54.648438 44.582031 54.453125 44.582031 C 54.453125 44.414062 54.453125 44.242188 54.453125 44.066406 C 54.265625 44.066406 54.078125 44.066406 53.882812 44.066406 C 53.882812 43.898438 53.882812 43.726562 53.882812 43.550781 C 53.691406 43.550781 53.503906 43.550781 53.308594 43.550781 C 53.308594 42.703125 53.308594 41.851562 53.308594 40.976562 C 53.496094 40.976562 53.6875 40.976562 53.882812 40.976562 C 53.882812 40.804688 53.882812 40.632812 53.882812 40.460938 C 54.070312 40.460938 54.261719 40.460938 54.453125 40.460938 C 54.453125 40.289062 54.453125 40.121094 54.453125 39.945312 C 54.644531 39.945312 54.832031 39.945312 55.027344 39.945312 C 55.027344 39.605469 55.027344 39.261719 55.027344 38.914062 C 55.21875 38.914062 55.40625 38.914062 55.601562 38.914062 C 55.601562 38.742188 55.601562 38.574219 55.601562 38.398438 C 55.789062 38.398438 55.980469 38.398438 56.175781 38.398438 C 56.175781 38.226562 56.175781 38.058594 56.175781 37.882812 C 56.363281 37.882812 56.554688 37.882812 56.746094 37.882812 C 56.746094 37.710938 56.746094 37.542969 56.746094 37.367188 C 56.9375 37.367188 57.125 37.367188 57.320312 37.367188 C 57.320312 37.195312 57.320312 37.027344 57.320312 36.851562 C 57.511719 36.851562 57.699219 36.851562 57.894531 36.851562 C 57.894531 36.679688 57.894531 36.511719 57.894531 36.335938 C 58.082031 36.335938 58.273438 36.335938 58.46875 36.335938 C 58.46875 36.167969 58.46875 35.996094 58.46875 35.820312 C 58.65625 35.820312 58.84375 35.820312 59.039062 35.820312 C 59.039062 35.652344 59.039062 35.480469 59.039062 35.304688 C 59.230469 35.304688 59.417969 35.304688 59.613281 35.304688 C 59.613281 35.136719 59.613281 34.964844 59.613281 34.789062 C 59.804688 34.789062 59.992188 34.789062 60.1875 34.789062 C 60.1875 34.621094 60.1875 34.449219 60.1875 34.273438 C 60.375 34.273438 60.566406 34.273438 60.761719 34.273438 C 60.761719 34.105469 60.761719 33.933594 60.761719 33.757812 Z M 60.761719 33.757812 "/>
<path style=" stroke:none;fill-rule:nonzero;fill:rgb(96.470588%,98.039216%,97.647059%);fill-opacity:1;" d="M 68.785156 51.796875 C 69.609375 52.136719 70.230469 52.507812 70.894531 53.0625 C 71.160156 53.285156 71.160156 53.285156 71.429688 53.511719 C 71.617188 53.667969 71.800781 53.828125 71.992188 53.988281 C 72.183594 54.148438 72.375 54.3125 72.570312 54.476562 C 74.515625 56.140625 76.289062 57.894531 77.957031 59.789062 C 77.863281 59.957031 77.765625 60.128906 77.667969 60.300781 C 77.535156 60.207031 77.398438 60.113281 77.257812 60.015625 C 76.632812 59.578125 76.003906 59.144531 75.375 58.707031 C 75.058594 58.484375 75.058594 58.484375 74.730469 58.257812 C 73.367188 57.3125 71.980469 56.453125 70.503906 55.664062 C 70.882812 55.578125 71.261719 55.492188 71.652344 55.40625 C 71.652344 55.578125 71.652344 55.746094 71.652344 55.921875 C 72.03125 55.921875 72.40625 55.921875 72.796875 55.921875 C 72.796875 55.75 72.796875 55.582031 72.796875 55.40625 C 72.609375 55.40625 72.417969 55.40625 72.222656 55.40625 C 72.222656 55.234375 72.222656 55.066406 72.222656 54.890625 C 72.035156 54.890625 71.847656 54.890625 71.652344 54.890625 C 71.652344 54.71875 71.652344 54.550781 71.652344 54.375 C 71.460938 54.375 71.273438 54.375 71.078125 54.375 C 71.078125 54.207031 71.078125 54.035156 71.078125 53.859375 C 70.890625 53.859375 70.699219 53.859375 70.503906 53.859375 C 70.503906 53.691406 70.503906 53.519531 70.503906 53.34375 C 70.316406 53.34375 70.125 53.34375 69.929688 53.34375 C 69.929688 53.175781 69.929688 53.003906 69.929688 52.828125 C 69.742188 52.828125 69.554688 52.828125 69.359375 52.828125 C 69.359375 52.660156 69.359375 52.488281 69.359375 52.3125 C 69.167969 52.3125 68.980469 52.3125 68.785156 52.3125 C 68.785156 52.144531 68.785156 51.972656 68.785156 51.796875 Z M 72.796875 55.921875 C 72.796875 56.089844 72.796875 56.261719 72.796875 56.4375 C 72.988281 56.4375 73.175781 56.4375 73.371094 56.4375 C 73.371094 56.265625 73.371094 56.097656 73.371094 55.921875 C 73.179688 55.921875 72.992188 55.921875 72.796875 55.921875 Z M 73.371094 56.4375 C 73.371094 56.605469 73.371094 56.777344 73.371094 56.953125 C 73.558594 56.953125 73.75 56.953125 73.945312 56.953125 C 73.945312 56.78125 73.945312 56.613281 73.945312 56.4375 C 73.753906 56.4375 73.566406 56.4375 73.371094 56.4375 Z M 73.371094 56.4375 "/>
<path style=" stroke:none;fill-rule:nonzero;fill:rgb(33.333334%,76.47059%,63.921571%);fill-opacity:1;" d="M 18.34375 47.160156 C 18.722656 47.246094 19.097656 47.328125 19.488281 47.417969 C 14.117188 52.25 14.117188 52.25 13.472656 52.824219 C 13.125 53.136719 12.78125 53.453125 12.4375 53.765625 C 11.523438 54.605469 11.523438 54.605469 10.890625 54.890625 C 10.890625 54.550781 10.890625 54.210938 10.890625 53.859375 C 11.082031 53.859375 11.269531 53.859375 11.464844 53.859375 C 11.464844 53.691406 11.464844 53.519531 11.464844 53.34375 C 11.652344 53.34375 11.84375 53.34375 12.039062 53.34375 C 12.039062 53.175781 12.039062 53.003906 12.039062 52.828125 C 12.226562 52.828125 12.414062 52.828125 12.609375 52.828125 C 12.609375 52.488281 12.609375 52.148438 12.609375 51.796875 C 12.800781 51.796875 12.988281 51.796875 13.183594 51.796875 C 13.183594 51.628906 13.183594 51.457031 13.183594 51.28125 C 13.371094 51.28125 13.5625 51.28125 13.757812 51.28125 C 13.757812 51.113281 13.757812 50.941406 13.757812 50.765625 C 13.945312 50.765625 14.136719 50.765625 14.332031 50.765625 C 14.332031 50.597656 14.332031 50.425781 14.332031 50.253906 C 14.519531 50.253906 14.707031 50.253906 14.902344 50.253906 C 14.902344 50.082031 14.902344 49.910156 14.902344 49.738281 C 15.09375 49.738281 15.28125 49.738281 15.476562 49.738281 C 15.476562 49.566406 15.476562 49.398438 15.476562 49.222656 C 15.664062 49.222656 15.855469 49.222656 16.050781 49.222656 C 16.050781 49.050781 16.050781 48.882812 16.050781 48.707031 C 16.238281 48.707031 16.429688 48.707031 16.625 48.707031 C 16.625 48.535156 16.625 48.367188 16.625 48.191406 C 17 48.191406 17.378906 48.191406 17.769531 48.191406 C 17.769531 48.019531 17.769531 47.851562 17.769531 47.675781 C 17.957031 47.675781 18.148438 47.675781 18.34375 47.675781 C 18.34375 47.503906 18.34375 47.335938 18.34375 47.160156 Z M 18.34375 47.160156 "/>
<path style=" stroke:none;fill-rule:nonzero;fill:rgb(96.862745%,98.039216%,97.647059%);fill-opacity:1;" d="M 13.46875 32.726562 C 14.972656 33.59375 16.371094 34.566406 17.769531 35.5625 C 17.484375 35.691406 17.484375 35.691406 17.195312 35.820312 C 17.195312 35.992188 17.195312 36.160156 17.195312 36.335938 C 17.386719 36.335938 17.574219 36.335938 17.769531 36.335938 C 17.769531 36.507812 17.769531 36.675781 17.769531 36.851562 C 17.957031 36.851562 18.148438 36.851562 18.34375 36.851562 C 18.34375 37.023438 18.34375 37.191406 18.34375 37.367188 C 18.53125 37.367188 18.722656 37.367188 18.914062 37.367188 C 18.914062 37.535156 18.914062 37.707031 18.914062 37.882812 C 19.105469 37.882812 19.292969 37.882812 19.488281 37.882812 C 19.488281 38.050781 19.488281 38.222656 19.488281 38.398438 C 19.679688 38.398438 19.867188 38.398438 20.0625 38.398438 C 20.0625 38.566406 20.0625 38.738281 20.0625 38.914062 C 20.25 38.914062 20.441406 38.914062 20.636719 38.914062 C 20.636719 39.082031 20.636719 39.253906 20.636719 39.429688 C 20.824219 39.429688 21.015625 39.429688 21.207031 39.429688 C 21.207031 39.597656 21.207031 39.769531 21.207031 39.945312 C 21.398438 39.945312 21.585938 39.945312 21.78125 39.945312 C 21.78125 40.113281 21.78125 40.285156 21.78125 40.460938 C 21.972656 40.460938 22.160156 40.460938 22.355469 40.460938 C 22.355469 40.628906 22.355469 40.800781 22.355469 40.976562 C 21.527344 40.632812 20.902344 40.257812 20.238281 39.703125 C 20.058594 39.550781 19.878906 39.402344 19.695312 39.25 C 19.507812 39.089844 19.324219 38.929688 19.128906 38.769531 C 18.9375 38.605469 18.746094 38.445312 18.550781 38.277344 C 17.15625 37.089844 15.839844 35.863281 14.617188 34.53125 C 14.378906 34.28125 14.144531 34.03125 13.898438 33.773438 C 13.46875 33.242188 13.46875 33.242188 13.46875 32.726562 Z M 13.46875 32.726562 "/>
<path style=" stroke:none;fill-rule:nonzero;fill:rgb(97.647059%,98.431373%,98.039216%);fill-opacity:1;" d="M 9.746094 35.304688 C 10.527344 35.945312 11.042969 36.660156 11.609375 37.464844 C 13.664062 40.265625 16.054688 42.679688 18.914062 44.839844 C 18.347656 44.96875 18.347656 44.96875 17.769531 45.097656 C 17.769531 44.929688 17.769531 44.757812 17.769531 44.582031 C 17.582031 44.582031 17.390625 44.582031 17.195312 44.582031 C 17.195312 44.414062 17.195312 44.242188 17.195312 44.066406 C 17.007812 44.066406 16.816406 44.066406 16.625 44.066406 C 16.625 43.898438 16.625 43.726562 16.625 43.550781 C 16.433594 43.550781 16.246094 43.550781 16.050781 43.550781 C 16.050781 43.382812 16.050781 43.210938 16.050781 43.035156 C 15.859375 43.035156 15.671875 43.035156 15.476562 43.035156 C 15.476562 42.867188 15.476562 42.695312 15.476562 42.519531 C 15.289062 42.519531 15.097656 42.519531 14.902344 42.519531 C 14.902344 42.351562 14.902344 42.179688 14.902344 42.003906 C 14.714844 42.003906 14.523438 42.003906 14.332031 42.003906 C 14.332031 41.835938 14.332031 41.664062 14.332031 41.488281 C 14.140625 41.488281 13.953125 41.488281 13.757812 41.488281 C 13.757812 41.320312 13.757812 41.148438 13.757812 40.976562 C 13.566406 40.976562 13.378906 40.976562 13.183594 40.976562 C 13.183594 40.632812 13.183594 40.292969 13.183594 39.945312 C 12.996094 39.945312 12.804688 39.945312 12.609375 39.945312 C 12.609375 39.773438 12.609375 39.605469 12.609375 39.429688 C 12.421875 39.429688 12.230469 39.429688 12.039062 39.429688 C 12.039062 39.257812 12.039062 39.089844 12.039062 38.914062 C 11.847656 38.914062 11.660156 38.914062 11.464844 38.914062 C 11.464844 38.574219 11.464844 38.234375 11.464844 37.882812 C 11.273438 37.882812 11.085938 37.882812 10.890625 37.882812 C 10.890625 37.710938 10.890625 37.542969 10.890625 37.367188 C 10.703125 37.367188 10.511719 37.367188 10.316406 37.367188 C 10.316406 37.027344 10.316406 36.6875 10.316406 36.335938 C 10.128906 36.335938 9.9375 36.335938 9.746094 36.335938 C 9.746094 35.996094 9.746094 35.65625 9.746094 35.304688 Z M 9.746094 35.304688 "/>
<path style=" stroke:none;fill-rule:nonzero;fill:rgb(97.254902%,98.039216%,98.039216%);fill-opacity:1;" d="M 35.824219 51.28125 C 35.921875 51.625 36.015625 51.964844 36.113281 52.3125 C 35.921875 52.3125 35.734375 52.3125 35.539062 52.3125 C 35.539062 52.484375 35.539062 52.652344 35.539062 52.828125 C 35.351562 52.828125 35.160156 52.828125 34.964844 52.828125 C 34.964844 53.167969 34.964844 53.507812 34.964844 53.859375 C 34.777344 53.859375 34.585938 53.859375 34.390625 53.859375 C 34.390625 54.03125 34.390625 54.199219 34.390625 54.375 C 34.203125 54.375 34.015625 54.375 33.820312 54.375 C 33.820312 54.546875 33.820312 54.714844 33.820312 54.890625 C 33.628906 54.890625 33.441406 54.890625 33.246094 54.890625 C 33.246094 55.0625 33.246094 55.230469 33.246094 55.40625 C 33.058594 55.40625 32.867188 55.40625 32.671875 55.40625 C 32.671875 55.578125 32.671875 55.746094 32.671875 55.921875 C 32.484375 55.921875 32.292969 55.921875 32.101562 55.921875 C 32.101562 56.089844 32.101562 56.261719 32.101562 56.4375 C 31.910156 56.4375 31.722656 56.4375 31.527344 56.4375 C 31.527344 56.605469 31.527344 56.777344 31.527344 56.953125 C 31.335938 56.953125 31.148438 56.953125 30.953125 56.953125 C 30.953125 57.121094 30.953125 57.292969 30.953125 57.46875 C 30.765625 57.46875 30.574219 57.46875 30.378906 57.46875 C 30.378906 57.636719 30.378906 57.808594 30.378906 57.984375 C 30.191406 57.984375 30 57.984375 29.808594 57.984375 C 29.808594 58.152344 29.808594 58.324219 29.808594 58.5 C 29.429688 58.414062 29.050781 58.328125 28.660156 58.242188 C 28.9375 58.019531 29.214844 57.796875 29.5 57.570312 C 31.894531 55.625 33.964844 53.652344 35.824219 51.28125 Z M 35.824219 51.28125 "/>
<path style=" stroke:none;fill-rule:nonzero;fill:rgb(98.431373%,98.431373%,98.431373%);fill-opacity:1;" d="M 77.097656 39.945312 C 77.191406 40.285156 77.285156 40.625 77.382812 40.976562 C 77.195312 40.976562 77.003906 40.976562 76.808594 40.976562 C 76.808594 41.144531 76.808594 41.316406 76.808594 41.488281 C 76.621094 41.488281 76.433594 41.488281 76.238281 41.488281 C 76.238281 41.660156 76.238281 41.832031 76.238281 42.003906 C 76.046875 42.003906 75.859375 42.003906 75.664062 42.003906 C 75.664062 42.175781 75.664062 42.347656 75.664062 42.519531 C 75.472656 42.519531 75.285156 42.519531 75.089844 42.519531 C 75.089844 42.691406 75.089844 42.859375 75.089844 43.035156 C 74.902344 43.035156 74.710938 43.035156 74.515625 43.035156 C 74.515625 43.207031 74.515625 43.375 74.515625 43.550781 C 74.328125 43.550781 74.140625 43.550781 73.945312 43.550781 C 73.945312 43.722656 73.945312 43.890625 73.945312 44.066406 C 73.566406 44.066406 73.1875 44.066406 72.796875 44.066406 C 72.796875 44.238281 72.796875 44.40625 72.796875 44.582031 C 72.609375 44.582031 72.417969 44.582031 72.222656 44.582031 C 72.222656 44.753906 72.222656 44.921875 72.222656 45.097656 C 71.847656 45.011719 71.46875 44.929688 71.078125 44.839844 C 71.242188 44.734375 71.402344 44.628906 71.570312 44.519531 C 72.957031 43.585938 74.105469 42.632812 75.210938 41.4375 C 75.777344 40.859375 76.40625 40.394531 77.097656 39.945312 Z M 77.097656 39.945312 "/>
<path style=" stroke:none;fill-rule:nonzero;fill:rgb(96.862745%,98.039216%,97.647059%);fill-opacity:1;" d="M 42.128906 14.945312 C 42.226562 15.203125 42.320312 15.457031 42.417969 15.71875 C 42.605469 15.71875 42.796875 15.71875 42.992188 15.71875 C 42.992188 18.953125 42.992188 22.183594 42.992188 25.511719 C 42.800781 25.511719 42.613281 25.511719 42.417969 25.511719 C 42.417969 22.449219 42.417969 19.390625 42.417969 16.234375 C 42.226562 16.234375 42.039062 16.234375 41.84375 16.234375 C 41.84375 16.746094 41.84375 17.253906 41.84375 17.78125 C 41.65625 17.78125 41.464844 17.78125 41.269531 17.78125 C 41.40625 16.734375 41.523438 15.859375 42.128906 14.945312 Z M 42.128906 14.945312 "/>
<path style=" stroke:none;fill-rule:nonzero;fill:rgb(96.862745%,98.039216%,97.647059%);fill-opacity:1;" d="M 41.84375 86.332031 C 42.839844 87.171875 43.609375 88.007812 44.335938 89.046875 C 44.804688 89.519531 45.175781 89.582031 45.855469 89.679688 C 45.921875 89.546875 45.988281 89.414062 46.054688 89.277344 C 46.574219 88.410156 47.214844 87.636719 47.863281 86.847656 C 47.957031 87.1875 48.050781 87.527344 48.148438 87.875 C 47.960938 87.875 47.769531 87.875 47.578125 87.875 C 47.578125 88.046875 47.578125 88.21875 47.578125 88.390625 C 47.386719 88.390625 47.199219 88.390625 47.003906 88.390625 C 47.003906 88.730469 47.003906 89.074219 47.003906 89.421875 C 46.8125 89.421875 46.625 89.421875 46.429688 89.421875 C 46.429688 89.59375 46.429688 89.761719 46.429688 89.9375 C 45.671875 89.9375 44.917969 89.9375 44.136719 89.9375 C 44.136719 89.769531 44.136719 89.597656 44.136719 89.421875 C 43.949219 89.421875 43.757812 89.421875 43.5625 89.421875 C 43.5625 89.253906 43.5625 89.082031 43.5625 88.90625 C 43.375 88.90625 43.183594 88.90625 42.992188 88.90625 C 42.992188 88.566406 42.992188 88.226562 42.992188 87.875 C 42.800781 87.875 42.613281 87.875 42.417969 87.875 C 42.417969 87.707031 42.417969 87.535156 42.417969 87.363281 C 42.226562 87.363281 42.039062 87.363281 41.84375 87.363281 C 41.84375 87.019531 41.84375 86.679688 41.84375 86.332031 Z M 41.84375 86.332031 "/>
<path style=" stroke:none;fill-rule:nonzero;fill:rgb(96.470588%,97.254902%,96.862745%);fill-opacity:1;" d="M 72.222656 47.675781 C 72.601562 47.675781 72.980469 47.675781 73.371094 47.675781 C 73.371094 47.84375 73.371094 48.015625 73.371094 48.191406 C 73.558594 48.191406 73.75 48.191406 73.945312 48.191406 C 73.945312 48.359375 73.945312 48.53125 73.945312 48.707031 C 74.132812 48.707031 74.320312 48.707031 74.515625 48.707031 C 74.515625 48.875 74.515625 49.046875 74.515625 49.222656 C 74.707031 49.222656 74.894531 49.222656 75.089844 49.222656 C 75.089844 49.390625 75.089844 49.5625 75.089844 49.738281 C 75.28125 49.738281 75.46875 49.738281 75.664062 49.738281 C 75.664062 49.90625 75.664062 50.078125 75.664062 50.253906 C 75.851562 50.253906 76.042969 50.253906 76.238281 50.253906 C 76.238281 50.421875 76.238281 50.59375 76.238281 50.765625 C 76.425781 50.765625 76.613281 50.765625 76.808594 50.765625 C 76.808594 50.9375 76.808594 51.109375 76.808594 51.28125 C 77 51.28125 77.1875 51.28125 77.382812 51.28125 C 77.382812 51.453125 77.382812 51.625 77.382812 51.796875 C 77.574219 51.796875 77.761719 51.796875 77.957031 51.796875 C 77.957031 51.96875 77.957031 52.136719 77.957031 52.3125 C 78.144531 52.3125 78.335938 52.3125 78.53125 52.3125 C 78.433594 52.652344 78.339844 52.992188 78.242188 53.34375 C 78.023438 53.125 77.804688 52.910156 77.582031 52.683594 C 76.015625 51.132812 74.453125 49.644531 72.667969 48.292969 C 72.519531 48.171875 72.375 48.054688 72.222656 47.933594 C 72.222656 47.847656 72.222656 47.761719 72.222656 47.675781 Z M 72.222656 47.675781 "/>
<path style=" stroke:none;fill-rule:nonzero;fill:rgb(96.078432%,97.647059%,97.254902%);fill-opacity:1;" d="M 46.714844 2.320312 C 47 2.320312 47.285156 2.320312 47.578125 2.320312 C 47.578125 2.488281 47.578125 2.660156 47.578125 2.835938 C 47.765625 2.835938 47.953125 2.835938 48.148438 2.835938 C 48.148438 3.003906 48.148438 3.175781 48.148438 3.351562 C 48.339844 3.351562 48.527344 3.351562 48.722656 3.351562 C 48.722656 3.691406 48.722656 4.03125 48.722656 4.382812 C 48.910156 4.382812 49.101562 4.382812 49.296875 4.382812 C 49.296875 4.550781 49.296875 4.722656 49.296875 4.894531 C 49.484375 4.894531 49.675781 4.894531 49.871094 4.894531 C 49.871094 5.238281 49.871094 5.578125 49.871094 5.925781 C 50.058594 5.925781 50.246094 5.925781 50.441406 5.925781 C 50.441406 6.097656 50.441406 6.265625 50.441406 6.441406 C 50.632812 6.441406 50.820312 6.441406 51.015625 6.441406 C 51.015625 6.78125 51.015625 7.121094 51.015625 7.472656 C 51.203125 7.472656 51.394531 7.472656 51.589844 7.472656 C 51.496094 7.8125 51.398438 8.152344 51.300781 8.503906 C 49.773438 6.441406 48.246094 4.382812 46.714844 2.320312 Z M 46.714844 2.320312 "/>
<path style=" stroke:none;fill-rule:nonzero;fill:rgb(94.509804%,96.862745%,96.078432%);fill-opacity:1;" d="M 81.96875 57.984375 C 82.15625 57.984375 82.347656 57.984375 82.542969 57.984375 C 82.542969 58.152344 82.542969 58.324219 82.542969 58.5 C 82.730469 58.5 82.921875 58.5 83.117188 58.5 C 83.117188 58.839844 83.117188 59.179688 83.117188 59.53125 C 83.304688 59.53125 83.492188 59.53125 83.6875 59.53125 C 83.6875 59.871094 83.6875 60.210938 83.6875 60.558594 C 83.878906 60.558594 84.066406 60.558594 84.261719 60.558594 C 84.261719 60.902344 84.261719 61.242188 84.261719 61.589844 C 84.449219 61.589844 84.640625 61.589844 84.835938 61.589844 C 84.835938 61.929688 84.835938 62.269531 84.835938 62.621094 C 85.023438 62.621094 85.214844 62.621094 85.40625 62.621094 C 85.40625 62.960938 85.40625 63.300781 85.40625 63.652344 C 85.597656 63.652344 85.785156 63.652344 85.980469 63.652344 C 85.980469 64.078125 85.980469 64.503906 85.980469 64.941406 C 84.960938 63.773438 84.25 62.484375 83.492188 61.171875 C 83.34375 60.921875 83.199219 60.675781 83.046875 60.417969 C 82.910156 60.179688 82.769531 59.941406 82.628906 59.695312 C 82.5 59.480469 82.375 59.261719 82.246094 59.039062 C 81.96875 58.5 81.96875 58.5 81.96875 57.984375 Z M 81.96875 57.984375 "/>
<path style=" stroke:none;fill-rule:nonzero;fill:rgb(96.862745%,98.039216%,97.647059%);fill-opacity:1;" d="M 16.625 48.191406 C 17 48.277344 17.378906 48.359375 17.769531 48.449219 C 17.539062 48.636719 17.304688 48.820312 17.066406 49.015625 C 16.757812 49.265625 16.449219 49.515625 16.140625 49.769531 C 15.988281 49.890625 15.835938 50.011719 15.679688 50.140625 C 14.652344 50.976562 13.761719 51.855469 12.898438 52.828125 C 12.800781 52.488281 12.707031 52.148438 12.609375 51.796875 C 12.800781 51.796875 12.988281 51.796875 13.183594 51.796875 C 13.183594 51.628906 13.183594 51.457031 13.183594 51.28125 C 13.371094 51.28125 13.5625 51.28125 13.757812 51.28125 C 13.757812 51.113281 13.757812 50.941406 13.757812 50.765625 C 13.945312 50.765625 14.136719 50.765625 14.332031 50.765625 C 14.332031 50.597656 14.332031 50.425781 14.332031 50.253906 C 14.519531 50.253906 14.707031 50.253906 14.902344 50.253906 C 14.902344 50.082031 14.902344 49.910156 14.902344 49.738281 C 15.09375 49.738281 15.28125 49.738281 15.476562 49.738281 C 15.476562 49.566406 15.476562 49.398438 15.476562 49.222656 C 15.664062 49.222656 15.855469 49.222656 16.050781 49.222656 C 16.050781 49.050781 16.050781 48.882812 16.050781 48.707031 C 16.238281 48.707031 16.429688 48.707031 16.625 48.707031 C 16.625 48.535156 16.625 48.367188 16.625 48.191406 Z M 16.625 48.191406 "/>
<path style=" stroke:none;fill-rule:nonzero;fill:rgb(96.470588%,97.647059%,97.254902%);fill-opacity:1;" d="M 30.953125 45.613281 C 31.519531 45.613281 32.089844 45.613281 32.671875 45.613281 C 32.671875 45.785156 32.671875 45.953125 32.671875 46.128906 C 33.050781 46.128906 33.429688 46.128906 33.820312 46.128906 C 33.820312 46.300781 33.820312 46.46875 33.820312 46.644531 C 34.007812 46.644531 34.199219 46.644531 34.390625 46.644531 C 34.390625 46.8125 34.390625 46.984375 34.390625 47.160156 C 34.582031 47.160156 34.769531 47.160156 34.964844 47.160156 C 34.964844 47.328125 34.964844 47.5 34.964844 47.675781 C 35.15625 47.675781 35.34375 47.675781 35.539062 47.675781 C 35.539062 47.84375 35.539062 48.015625 35.539062 48.191406 C 35.726562 48.191406 35.917969 48.191406 36.113281 48.191406 C 36.113281 48.359375 36.113281 48.53125 36.113281 48.707031 C 36.300781 48.707031 36.492188 48.707031 36.683594 48.707031 C 36.589844 49.046875 36.496094 49.386719 36.398438 49.738281 C 36.285156 49.605469 36.167969 49.476562 36.050781 49.339844 C 34.796875 47.976562 33.488281 47.046875 31.8125 46.128906 C 31.53125 45.957031 31.246094 45.789062 30.953125 45.613281 Z M 30.953125 45.613281 "/>
<path style=" stroke:none;fill-rule:nonzero;fill:rgb(82.745099%,93.333334%,90.196079%);fill-opacity:1;" d="M 48.4375 74.21875 C 48.53125 74.21875 48.625 74.21875 48.722656 74.21875 C 48.722656 74.984375 48.722656 75.75 48.722656 76.539062 C 48.910156 76.539062 49.101562 76.539062 49.296875 76.539062 C 48.707031 78.199219 48.027344 79.820312 47.289062 81.433594 C 46.929688 80.464844 47.25 80.035156 47.625 79.105469 C 48.121094 77.519531 48.246094 75.855469 48.4375 74.21875 Z M 48.4375 74.21875 "/>
<path style=" stroke:none;fill-rule:nonzero;fill:rgb(97.254902%,98.039216%,98.039216%);fill-opacity:1;" d="M 28.660156 58.5 C 28.660156 58.667969 28.660156 58.839844 28.660156 59.015625 C 28.472656 59.015625 28.28125 59.015625 28.085938 59.015625 C 28.085938 59.183594 28.085938 59.355469 28.085938 59.53125 C 27.898438 59.53125 27.707031 59.53125 27.515625 59.53125 C 27.515625 59.699219 27.515625 59.871094 27.515625 60.042969 C 27.136719 60.042969 26.757812 60.042969 26.367188 60.042969 C 26.367188 60.214844 26.367188 60.386719 26.367188 60.558594 C 26.179688 60.558594 25.988281 60.558594 25.792969 60.558594 C 25.792969 60.730469 25.792969 60.902344 25.792969 61.074219 C 25.417969 61.074219 25.039062 61.074219 24.648438 61.074219 C 24.648438 61.246094 24.648438 61.414062 24.648438 61.589844 C 24.269531 61.507812 23.890625 61.421875 23.5 61.332031 C 23.738281 61.195312 23.972656 61.054688 24.214844 60.910156 C 24.523438 60.726562 24.832031 60.539062 25.148438 60.351562 C 25.457031 60.167969 25.761719 59.984375 26.078125 59.796875 C 26.589844 59.484375 27.097656 59.160156 27.589844 58.816406 C 28.085938 58.5 28.085938 58.5 28.660156 58.5 Z M 28.660156 58.5 "/>
<path style=" stroke:none;fill-rule:nonzero;fill:rgb(96.078432%,97.647059%,97.254902%);fill-opacity:1;" d="M 63.625 48.707031 C 64.894531 49.097656 65.925781 49.71875 67.011719 50.414062 C 67.183594 50.519531 67.355469 50.628906 67.53125 50.742188 C 67.949219 51.007812 68.367188 51.273438 68.785156 51.539062 C 68.40625 51.625 68.027344 51.710938 67.636719 51.796875 C 67.636719 51.628906 67.636719 51.457031 67.636719 51.28125 C 67.449219 51.28125 67.261719 51.28125 67.066406 51.28125 C 67.066406 51.113281 67.066406 50.941406 67.066406 50.765625 C 66.6875 50.765625 66.308594 50.765625 65.917969 50.765625 C 65.917969 50.597656 65.917969 50.425781 65.917969 50.253906 C 65.730469 50.253906 65.539062 50.253906 65.347656 50.253906 C 65.347656 50.082031 65.347656 49.910156 65.347656 49.738281 C 64.96875 49.738281 64.589844 49.738281 64.199219 49.738281 C 64.199219 49.566406 64.199219 49.398438 64.199219 49.222656 C 64.011719 49.222656 63.820312 49.222656 63.625 49.222656 C 63.625 49.050781 63.625 48.882812 63.625 48.707031 Z M 63.625 48.707031 "/>
<path style=" stroke:none;fill-rule:nonzero;fill:rgb(74.117649%,90.196079%,85.490197%);fill-opacity:1;" d="M 44.136719 10.308594 C 44.464844 11.1875 44.382812 11.34375 44.03125 12.175781 C 43.621094 13.195312 43.40625 14.128906 43.277344 15.203125 C 43.183594 15.035156 43.089844 14.863281 42.992188 14.6875 C 42.800781 14.6875 42.613281 14.6875 42.417969 14.6875 C 42.5625 13.082031 43.371094 11.738281 44.136719 10.308594 Z M 44.136719 10.308594 "/>
<path style=" stroke:none;fill-rule:nonzero;fill:rgb(83.529413%,93.725491%,90.588236%);fill-opacity:1;" d="M 75.949219 40.71875 C 75.949219 41.488281 75.949219 41.488281 75.511719 41.902344 C 75.324219 42.039062 75.140625 42.171875 74.945312 42.3125 C 74.761719 42.449219 74.574219 42.585938 74.382812 42.726562 C 74.238281 42.828125 74.09375 42.929688 73.945312 43.035156 C 74.4375 42.066406 75.089844 41.453125 75.949219 40.71875 Z M 72.796875 43.550781 C 72.988281 43.636719 73.175781 43.722656 73.371094 43.808594 C 73.085938 44.191406 73.085938 44.191406 72.796875 44.582031 C 72.609375 44.582031 72.417969 44.582031 72.222656 44.582031 C 72.222656 44.753906 72.222656 44.921875 72.222656 45.097656 C 71.847656 45.011719 71.46875 44.929688 71.078125 44.839844 C 71.644531 44.414062 72.210938 43.988281 72.796875 43.550781 Z M 72.796875 43.550781 "/>
<path style=" stroke:none;fill-rule:nonzero;fill:rgb(96.078432%,97.647059%,97.254902%);fill-opacity:1;" d="M 38.976562 82.207031 C 39.777344 82.859375 40.316406 83.597656 40.894531 84.414062 C 41.074219 84.664062 41.25 84.914062 41.4375 85.171875 C 41.84375 85.816406 41.84375 85.816406 41.84375 86.332031 C 41.65625 86.332031 41.464844 86.332031 41.269531 86.332031 C 41.269531 86.160156 41.269531 85.992188 41.269531 85.816406 C 41.082031 85.816406 40.894531 85.816406 40.699219 85.816406 C 40.699219 85.476562 40.699219 85.136719 40.699219 84.785156 C 40.507812 84.785156 40.320312 84.785156 40.125 84.785156 C 40.125 84.613281 40.125 84.445312 40.125 84.269531 C 39.933594 84.269531 39.746094 84.269531 39.550781 84.269531 C 39.550781 83.929688 39.550781 83.589844 39.550781 83.238281 C 39.363281 83.238281 39.171875 83.238281 38.976562 83.238281 C 38.976562 82.898438 38.976562 82.558594 38.976562 82.207031 Z M 38.976562 82.207031 "/>
<path style=" stroke:none;fill-rule:nonzero;fill:rgb(95.294118%,97.254902%,96.862745%);fill-opacity:1;" d="M 71.078125 45.097656 C 71.078125 45.269531 71.078125 45.4375 71.078125 45.613281 C 70.890625 45.613281 70.699219 45.613281 70.503906 45.613281 C 70.503906 45.953125 70.503906 46.292969 70.503906 46.644531 C 70.882812 46.644531 71.261719 46.644531 71.652344 46.644531 C 71.652344 46.8125 71.652344 46.984375 71.652344 47.160156 C 71.839844 47.160156 72.03125 47.160156 72.222656 47.160156 C 72.222656 47.328125 72.222656 47.5 72.222656 47.675781 C 71.046875 47.300781 70.09375 46.769531 69.070312 46.128906 C 69.492188 45.371094 70.144531 45.097656 71.078125 45.097656 Z M 71.078125 45.097656 "/>
<path style=" stroke:none;fill-rule:nonzero;fill:rgb(96.078432%,97.647059%,97.254902%);fill-opacity:1;" d="M 22.355469 40.976562 C 22.734375 40.976562 23.113281 40.976562 23.5 40.976562 C 23.5 41.144531 23.5 41.316406 23.5 41.488281 C 23.691406 41.488281 23.878906 41.488281 24.074219 41.488281 C 24.074219 41.660156 24.074219 41.832031 24.074219 42.003906 C 24.453125 42.003906 24.832031 42.003906 25.222656 42.003906 C 25.222656 42.175781 25.222656 42.347656 25.222656 42.519531 C 25.410156 42.519531 25.597656 42.519531 25.792969 42.519531 C 25.792969 42.691406 25.792969 42.859375 25.792969 43.035156 C 25.984375 43.035156 26.171875 43.035156 26.367188 43.035156 C 26.367188 43.207031 26.367188 43.375 26.367188 43.550781 C 25.277344 43.203125 24.460938 42.765625 23.554688 42.117188 C 23.328125 41.957031 23.101562 41.796875 22.867188 41.632812 C 22.613281 41.433594 22.613281 41.433594 22.355469 41.234375 C 22.355469 41.148438 22.355469 41.0625 22.355469 40.976562 Z M 22.355469 40.976562 "/>
<path style=" stroke:none;fill-rule:nonzero;fill:rgb(85.882354%,92.941177%,90.588236%);fill-opacity:1;" d="M 57.035156 64.941406 C 57.742188 65.195312 57.742188 65.195312 58.46875 65.457031 C 58.089844 65.542969 57.710938 65.625 57.320312 65.714844 C 57.320312 67.246094 57.320312 68.777344 57.320312 70.351562 C 57.132812 70.351562 56.941406 70.351562 56.746094 70.351562 C 56.84375 68.566406 56.9375 66.78125 57.035156 64.941406 Z M 57.035156 64.941406 "/>
<path style=" stroke:none;fill-rule:nonzero;fill:rgb(82.352942%,93.333334%,89.803922%);fill-opacity:1;" d="M 57.894531 23.449219 C 58.082031 23.449219 58.273438 23.449219 58.46875 23.449219 C 58.46875 24.300781 58.46875 25.152344 58.46875 26.027344 C 58.75 26.113281 59.035156 26.199219 59.328125 26.285156 C 58.855469 26.457031 58.382812 26.625 57.894531 26.800781 C 57.894531 25.695312 57.894531 24.589844 57.894531 23.449219 Z M 57.894531 23.449219 "/>
<path style=" stroke:none;fill-rule:nonzero;fill:rgb(96.862745%,98.039216%,97.647059%);fill-opacity:1;" d="M 60.1875 31.183594 C 60.1875 31.351562 60.1875 31.523438 60.1875 31.699219 C 59.996094 31.699219 59.808594 31.699219 59.613281 31.699219 C 59.613281 31.867188 59.613281 32.039062 59.613281 32.210938 C 59.234375 32.210938 58.855469 32.210938 58.46875 32.210938 C 58.46875 32.382812 58.46875 32.554688 58.46875 32.726562 C 58.089844 32.726562 57.710938 32.726562 57.320312 32.726562 C 57.320312 32.898438 57.320312 33.070312 57.320312 33.242188 C 56.941406 33.160156 56.5625 33.074219 56.175781 32.984375 C 56.734375 32.683594 57.296875 32.382812 57.859375 32.085938 C 58.171875 31.917969 58.484375 31.75 58.804688 31.578125 C 59.613281 31.183594 59.613281 31.183594 60.1875 31.183594 Z M 60.1875 31.183594 "/>
<path style=" stroke:none;fill-rule:nonzero;fill:rgb(90.588236%,96.078432%,94.509804%);fill-opacity:1;" d="M 42.128906 14.945312 C 42.226562 15.203125 42.320312 15.457031 42.417969 15.71875 C 42.605469 15.71875 42.796875 15.71875 42.992188 15.71875 C 42.992188 16.230469 42.992188 16.742188 42.992188 17.265625 C 42.613281 16.925781 42.234375 16.585938 41.84375 16.234375 C 41.84375 16.746094 41.84375 17.253906 41.84375 17.78125 C 41.65625 17.78125 41.464844 17.78125 41.269531 17.78125 C 41.40625 16.734375 41.523438 15.859375 42.128906 14.945312 Z M 42.128906 14.945312 "/>
<path style=" stroke:none;fill-rule:nonzero;fill:rgb(97.254902%,98.039216%,97.647059%);fill-opacity:1;" d="M 40.125 8.503906 C 40.3125 8.503906 40.503906 8.503906 40.699219 8.503906 C 40.191406 9.785156 39.4375 10.933594 38.691406 12.113281 C 38.597656 11.773438 38.503906 11.433594 38.40625 11.082031 C 38.59375 11.082031 38.785156 11.082031 38.976562 11.082031 C 38.976562 10.742188 38.976562 10.402344 38.976562 10.050781 C 39.167969 10.050781 39.355469 10.050781 39.550781 10.050781 C 39.550781 9.710938 39.550781 9.371094 39.550781 9.019531 C 39.742188 9.019531 39.929688 9.019531 40.125 9.019531 C 40.125 8.847656 40.125 8.679688 40.125 8.503906 Z M 40.125 8.503906 "/>
<path style=" stroke:none;fill-rule:nonzero;fill:rgb(90.196079%,92.156863%,91.764706%);fill-opacity:1;" d="M 79.675781 54.890625 C 79.863281 54.890625 80.054688 54.890625 80.25 54.890625 C 80.25 55.0625 80.25 55.230469 80.25 55.40625 C 80.4375 55.40625 80.628906 55.40625 80.824219 55.40625 C 80.824219 55.578125 80.824219 55.746094 80.824219 55.921875 C 81.011719 55.921875 81.199219 55.921875 81.394531 55.921875 C 81.394531 56.261719 81.394531 56.601562 81.394531 56.953125 C 81.585938 56.953125 81.773438 56.953125 81.96875 56.953125 C 81.875 57.292969 81.78125 57.632812 81.683594 57.984375 C 81.347656 57.566406 81.011719 57.144531 80.679688 56.726562 C 80.492188 56.492188 80.308594 56.261719 80.113281 56.019531 C 79.675781 55.40625 79.675781 55.40625 79.675781 54.890625 Z M 79.675781 54.890625 "/>
<path style=" stroke:none;fill-rule:nonzero;fill:rgb(96.470588%,97.647059%,97.254902%);fill-opacity:1;" d="M 43.5625 3.867188 C 43.753906 3.867188 43.941406 3.867188 44.136719 3.867188 C 43.691406 5.070312 42.964844 5.949219 42.128906 6.957031 C 42.035156 6.617188 41.941406 6.277344 41.84375 5.925781 C 42.035156 5.925781 42.222656 5.925781 42.417969 5.925781 C 42.417969 5.585938 42.417969 5.246094 42.417969 4.894531 C 42.605469 4.894531 42.796875 4.894531 42.992188 4.894531 C 42.992188 4.726562 42.992188 4.554688 42.992188 4.382812 C 43.179688 4.382812 43.367188 4.382812 43.5625 4.382812 C 43.5625 4.210938 43.5625 4.039062 43.5625 3.867188 Z M 43.5625 3.867188 "/>
<path style=" stroke:none;fill-rule:nonzero;fill:rgb(89.019608%,93.333334%,92.156863%);fill-opacity:1;" d="M 67.066406 53.859375 C 67.632812 53.859375 68.199219 53.859375 68.785156 53.859375 C 68.785156 54.03125 68.785156 54.199219 68.785156 54.375 C 69.164062 54.375 69.542969 54.375 69.929688 54.375 C 69.929688 54.546875 69.929688 54.714844 69.929688 54.890625 C 70.121094 54.890625 70.308594 54.890625 70.503906 54.890625 C 70.503906 55.0625 70.503906 55.230469 70.503906 55.40625 C 69.292969 55.070312 68.191406 54.648438 67.066406 54.117188 C 67.066406 54.03125 67.066406 53.949219 67.066406 53.859375 Z M 67.066406 53.859375 "/>
<path style=" stroke:none;fill-rule:nonzero;fill:rgb(92.54902%,94.509804%,94.117647%);fill-opacity:1;" d="M 68.785156 51.796875 C 69.644531 52.148438 70.300781 52.558594 71.007812 53.117188 C 71.269531 53.328125 71.269531 53.328125 71.539062 53.539062 C 71.671875 53.644531 71.800781 53.75 71.9375 53.859375 C 71.84375 54.03125 71.75 54.199219 71.652344 54.375 C 71.460938 54.375 71.273438 54.375 71.078125 54.375 C 71.078125 54.207031 71.078125 54.035156 71.078125 53.859375 C 70.890625 53.859375 70.699219 53.859375 70.503906 53.859375 C 70.503906 53.691406 70.503906 53.519531 70.503906 53.34375 C 70.316406 53.34375 70.125 53.34375 69.929688 53.34375 C 69.929688 53.175781 69.929688 53.003906 69.929688 52.828125 C 69.742188 52.828125 69.554688 52.828125 69.359375 52.828125 C 69.359375 52.660156 69.359375 52.488281 69.359375 52.3125 C 69.167969 52.3125 68.980469 52.3125 68.785156 52.3125 C 68.785156 52.144531 68.785156 51.972656 68.785156 51.796875 Z M 68.785156 51.796875 "/>
<path style=" stroke:none;fill-rule:nonzero;fill:rgb(95.294118%,97.254902%,96.862745%);fill-opacity:1;" d="M 72.796875 27.574219 C 72.796875 27.746094 72.796875 27.914062 72.796875 28.089844 C 72.988281 28.175781 73.175781 28.257812 73.371094 28.347656 C 71.953125 28.730469 71.953125 28.730469 70.503906 29.121094 C 70.503906 28.949219 70.503906 28.78125 70.503906 28.605469 C 70.882812 28.605469 71.261719 28.605469 71.652344 28.605469 C 71.652344 28.433594 71.652344 28.265625 71.652344 28.089844 C 71.367188 28.003906 71.082031 27.917969 70.792969 27.832031 C 72.152344 27.574219 72.152344 27.574219 72.796875 27.574219 Z M 72.796875 27.574219 "/>
<path style=" stroke:none;fill-rule:nonzero;fill:rgb(98.039216%,98.431373%,98.039216%);fill-opacity:1;" d="M 50.15625 83.753906 C 50.25 84.09375 50.34375 84.433594 50.441406 84.785156 C 50.253906 84.785156 50.0625 84.785156 49.871094 84.785156 C 49.871094 85.125 49.871094 85.464844 49.871094 85.816406 C 49.679688 85.816406 49.492188 85.816406 49.296875 85.816406 C 49.296875 85.984375 49.296875 86.15625 49.296875 86.332031 C 49.105469 86.332031 48.917969 86.332031 48.722656 86.332031 C 48.722656 86.5 48.722656 86.671875 48.722656 86.847656 C 48.535156 86.847656 48.34375 86.847656 48.148438 86.847656 C 48.546875 86.105469 48.988281 85.414062 49.476562 84.71875 C 49.601562 84.539062 49.730469 84.355469 49.863281 84.167969 C 49.960938 84.03125 50.054688 83.894531 50.15625 83.753906 Z M 50.15625 83.753906 "/>
<path style=" stroke:none;fill-rule:nonzero;fill:rgb(88.235295%,94.901961%,92.941177%);fill-opacity:1;" d="M 17.195312 64.167969 C 17.289062 64.421875 17.386719 64.679688 17.484375 64.941406 C 16.160156 65.027344 14.835938 65.109375 13.46875 65.199219 C 14.644531 64.671875 15.863281 64.167969 17.195312 64.167969 Z M 17.195312 64.167969 "/>
<path style=" stroke:none;fill-rule:nonzero;fill:rgb(95.294118%,97.647059%,96.862745%);fill-opacity:1;" d="M 18.914062 45.097656 C 19.882812 45.402344 20.535156 45.683594 21.207031 46.386719 C 20.132812 47.160156 20.132812 47.160156 19.488281 47.160156 C 19.488281 46.988281 19.488281 46.820312 19.488281 46.644531 C 19.679688 46.644531 19.867188 46.644531 20.0625 46.644531 C 20.0625 46.472656 20.0625 46.304688 20.0625 46.128906 C 19.875 46.128906 19.683594 46.128906 19.488281 46.128906 C 19.488281 45.957031 19.488281 45.789062 19.488281 45.613281 C 19.300781 45.613281 19.109375 45.613281 18.914062 45.613281 C 18.914062 45.445312 18.914062 45.273438 18.914062 45.097656 Z M 18.914062 45.097656 "/>
<path style=" stroke:none;fill-rule:nonzero;fill:rgb(98.039216%,98.431373%,98.431373%);fill-opacity:1;" d="M 56.175781 33.242188 C 56.175781 33.414062 56.175781 33.582031 56.175781 33.757812 C 55.984375 33.757812 55.796875 33.757812 55.601562 33.757812 C 55.601562 33.929688 55.601562 34.097656 55.601562 34.273438 C 55.410156 34.273438 55.222656 34.273438 55.027344 34.273438 C 55.027344 34.445312 55.027344 34.613281 55.027344 34.789062 C 54.839844 34.789062 54.648438 34.789062 54.453125 34.789062 C 54.453125 34.960938 54.453125 35.128906 54.453125 35.304688 C 54.078125 35.21875 53.699219 35.136719 53.308594 35.046875 C 53.675781 34.746094 54.046875 34.445312 54.417969 34.144531 C 54.726562 33.894531 54.726562 33.894531 55.042969 33.636719 C 55.601562 33.242188 55.601562 33.242188 56.175781 33.242188 Z M 56.175781 33.242188 "/>
<path style=" stroke:none;fill-rule:nonzero;fill:rgb(94.901961%,97.254902%,96.862745%);fill-opacity:1;" d="M 82.828125 32.210938 C 82.921875 32.554688 83.019531 32.894531 83.117188 33.242188 C 82.925781 33.242188 82.738281 33.242188 82.542969 33.242188 C 82.542969 33.582031 82.542969 33.925781 82.542969 34.273438 C 82.351562 34.273438 82.164062 34.273438 81.96875 34.273438 C 81.96875 34.445312 81.96875 34.613281 81.96875 34.789062 C 81.78125 34.789062 81.589844 34.789062 81.394531 34.789062 C 81.777344 33.863281 82.242188 33.050781 82.828125 32.210938 Z M 82.828125 32.210938 "/>
<path style=" stroke:none;fill-rule:nonzero;fill:rgb(93.725491%,96.862745%,96.078432%);fill-opacity:1;" d="M 51.875 81.175781 C 51.96875 81.515625 52.066406 81.855469 52.160156 82.207031 C 51.972656 82.207031 51.785156 82.207031 51.589844 82.207031 C 51.589844 82.546875 51.589844 82.886719 51.589844 83.238281 C 51.398438 83.238281 51.210938 83.238281 51.015625 83.238281 C 51.015625 83.40625 51.015625 83.578125 51.015625 83.753906 C 50.828125 83.753906 50.636719 83.753906 50.441406 83.753906 C 50.824219 82.828125 51.289062 82.011719 51.875 81.175781 Z M 51.875 81.175781 "/>
<path style=" stroke:none;fill-rule:nonzero;fill:rgb(96.078432%,97.647059%,97.254902%);fill-opacity:1;" d="M 33.246094 59.015625 C 33.625 59.097656 34.003906 59.183594 34.390625 59.273438 C 34.023438 59.488281 33.652344 59.703125 33.28125 59.914062 C 33.074219 60.035156 32.871094 60.15625 32.65625 60.277344 C 32.101562 60.558594 32.101562 60.558594 31.527344 60.558594 C 31.527344 60.390625 31.527344 60.21875 31.527344 60.042969 C 31.714844 60.042969 31.90625 60.042969 32.101562 60.042969 C 32.101562 59.875 32.101562 59.703125 32.101562 59.53125 C 32.476562 59.53125 32.855469 59.53125 33.246094 59.53125 C 33.246094 59.359375 33.246094 59.1875 33.246094 59.015625 Z M 33.246094 59.015625 "/>
<path style=" stroke:none;fill-rule:nonzero;fill:rgb(96.862745%,98.039216%,97.647059%);fill-opacity:1;" d="M 17.769531 35.820312 C 18.914062 36.171875 19.71875 36.660156 20.636719 37.367188 C 20.257812 37.367188 19.878906 37.367188 19.488281 37.367188 C 19.488281 37.195312 19.488281 37.027344 19.488281 36.851562 C 19.109375 36.851562 18.734375 36.851562 18.34375 36.851562 C 18.34375 36.679688 18.34375 36.511719 18.34375 36.335938 C 18.152344 36.335938 17.964844 36.335938 17.769531 36.335938 C 17.769531 36.167969 17.769531 35.996094 17.769531 35.820312 Z M 17.769531 35.820312 "/>
<path style=" stroke:none;fill-rule:nonzero;fill:rgb(95.686275%,97.647059%,96.862745%);fill-opacity:1;" d="M 65.917969 30.667969 C 66.296875 30.75 66.675781 30.835938 67.066406 30.925781 C 66.695312 31.140625 66.324219 31.355469 65.953125 31.570312 C 65.75 31.6875 65.542969 31.808594 65.332031 31.929688 C 64.773438 32.210938 64.773438 32.210938 64.199219 32.210938 C 64.199219 32.042969 64.199219 31.871094 64.199219 31.699219 C 64.386719 31.699219 64.578125 31.699219 64.773438 31.699219 C 64.773438 31.527344 64.773438 31.355469 64.773438 31.183594 C 65.152344 31.183594 65.527344 31.183594 65.917969 31.183594 C 65.917969 31.011719 65.917969 30.84375 65.917969 30.667969 Z M 65.917969 30.667969 "/>
<path style=" stroke:none;fill-rule:nonzero;fill:rgb(90.196079%,95.686275%,94.117647%);fill-opacity:1;" d="M 55.886719 72.671875 C 55.984375 72.671875 56.078125 72.671875 56.175781 72.671875 C 56.175781 73.265625 56.175781 73.863281 56.175781 74.476562 C 55.984375 74.476562 55.796875 74.476562 55.601562 74.476562 C 55.601562 74.816406 55.601562 75.15625 55.601562 75.507812 C 55.410156 75.507812 55.222656 75.507812 55.027344 75.507812 C 55.1875 74.488281 55.425781 73.613281 55.886719 72.671875 Z M 55.886719 72.671875 "/>
<path style=" stroke:none;fill-rule:nonzero;fill:rgb(94.509804%,96.862745%,96.078432%);fill-opacity:1;" d="M 18.914062 63.652344 C 18.914062 63.824219 18.914062 63.992188 18.914062 64.167969 C 19.390625 64.167969 19.863281 64.167969 20.347656 64.167969 C 19.589844 64.542969 19.234375 64.683594 18.34375 64.683594 C 18.34375 64.511719 18.34375 64.34375 18.34375 64.167969 C 17.964844 64.082031 17.585938 63.996094 17.195312 63.910156 C 18.054688 63.652344 18.054688 63.652344 18.914062 63.652344 Z M 18.914062 63.652344 "/>
<path style=" stroke:none;fill-rule:nonzero;fill:rgb(96.470588%,98.039216%,97.647059%);fill-opacity:1;" d="M 12.039062 52.828125 C 12.226562 52.828125 12.414062 52.828125 12.609375 52.828125 C 12.195312 53.695312 11.65625 54.25 10.890625 54.890625 C 10.890625 54.550781 10.890625 54.210938 10.890625 53.859375 C 11.082031 53.859375 11.269531 53.859375 11.464844 53.859375 C 11.464844 53.691406 11.464844 53.519531 11.464844 53.34375 C 11.652344 53.34375 11.84375 53.34375 12.039062 53.34375 C 12.039062 53.175781 12.039062 53.003906 12.039062 52.828125 Z M 12.039062 52.828125 "/>
<path style=" stroke:none;fill-rule:nonzero;fill:rgb(92.54902%,96.470588%,95.294118%);fill-opacity:1;" d="M 86.269531 25.511719 C 86.363281 25.511719 86.457031 25.511719 86.554688 25.511719 C 86.554688 26.023438 86.554688 26.53125 86.554688 27.058594 C 86.367188 27.058594 86.175781 27.058594 85.980469 27.058594 C 85.980469 27.398438 85.980469 27.738281 85.980469 28.089844 C 85.792969 28.089844 85.601562 28.089844 85.40625 28.089844 C 85.554688 27.132812 85.726562 26.355469 86.269531 25.511719 Z M 86.269531 25.511719 "/>
<path style=" stroke:none;fill-rule:nonzero;fill:rgb(96.078432%,97.647059%,97.254902%);fill-opacity:1;" d="M 44.710938 32.984375 C 45.28125 33.753906 45.554688 34.429688 45.855469 35.304688 C 45.667969 35.304688 45.476562 35.304688 45.285156 35.304688 C 45.285156 35.136719 45.285156 34.964844 45.285156 34.789062 C 45.09375 34.789062 44.90625 34.789062 44.710938 34.789062 C 44.710938 34.195312 44.710938 33.597656 44.710938 32.984375 Z M 44.710938 32.984375 "/>
<path style=" stroke:none;fill-rule:nonzero;fill:rgb(92.156863%,96.470588%,95.294118%);fill-opacity:1;" d="M 76.238281 27.316406 C 75.300781 27.800781 74.4375 27.957031 73.371094 28.089844 C 73.371094 27.917969 73.371094 27.75 73.371094 27.574219 C 74.292969 27.160156 75.214844 27.300781 76.238281 27.316406 Z M 76.238281 27.316406 "/>
</g>
</svg>
