<?xml version="1.0" encoding="UTF-8"?>
<svg xmlns="http://www.w3.org/2000/svg" xmlns:xlink="http://www.w3.org/1999/xlink" width="50px" height="50px" viewBox="0 0 50 50" version="1.1">
<g id="surface1">
<path style=" stroke:none;fill-rule:nonzero;fill:rgb(8.627451%,68.235296%,50.980395%);fill-opacity:1;" d="M 24.300781 1.261719 C 24.8125 1.261719 25.328125 1.261719 25.859375 1.261719 C 25.859375 1.351562 25.859375 1.445312 25.859375 1.542969 C 25.960938 1.542969 26.0625 1.542969 26.167969 1.542969 C 26.167969 1.632812 26.167969 1.726562 26.167969 1.820312 C 26.273438 1.820312 26.375 1.820312 26.480469 1.820312 C 26.480469 2.007812 26.480469 2.191406 26.480469 2.382812 C 26.582031 2.382812 26.6875 2.382812 26.792969 2.382812 C 26.792969 2.472656 26.792969 2.566406 26.792969 2.660156 C 26.894531 2.660156 26.996094 2.660156 27.105469 2.660156 C 27.105469 2.847656 27.105469 3.03125 27.105469 3.21875 C 27.207031 3.21875 27.308594 3.21875 27.414062 3.21875 C 27.414062 3.3125 27.414062 3.40625 27.414062 3.5 C 27.519531 3.5 27.621094 3.5 27.726562 3.5 C 27.726562 3.683594 27.726562 3.871094 27.726562 4.0625 C 27.828125 4.0625 27.933594 4.0625 28.039062 4.0625 C 28.039062 4.246094 28.039062 4.429688 28.039062 4.621094 C 28.140625 4.621094 28.242188 4.621094 28.347656 4.621094 C 28.347656 4.714844 28.347656 4.804688 28.347656 4.902344 C 28.453125 4.902344 28.554688 4.902344 28.660156 4.902344 C 28.660156 5.085938 28.660156 5.269531 28.660156 5.460938 C 28.765625 5.460938 28.867188 5.460938 28.972656 5.460938 C 28.972656 5.648438 28.972656 5.832031 28.972656 6.023438 C 29.074219 6.023438 29.179688 6.023438 29.285156 6.023438 C 29.285156 6.207031 29.285156 6.390625 29.285156 6.582031 C 29.386719 6.582031 29.488281 6.582031 29.59375 6.582031 C 29.59375 6.769531 29.59375 6.953125 29.59375 7.144531 C 29.699219 7.144531 29.800781 7.144531 29.90625 7.144531 C 29.90625 7.328125 29.90625 7.511719 29.90625 7.703125 C 30.011719 7.703125 30.113281 7.703125 30.21875 7.703125 C 30.21875 7.890625 30.21875 8.074219 30.21875 8.261719 C 30.320312 8.261719 30.425781 8.261719 30.53125 8.261719 C 30.53125 8.539062 30.53125 8.820312 30.53125 9.101562 C 30.632812 9.101562 30.734375 9.101562 30.839844 9.101562 C 30.839844 9.382812 30.839844 9.65625 30.839844 9.945312 C 30.945312 9.945312 31.046875 9.945312 31.152344 9.945312 C 31.152344 10.222656 31.152344 10.496094 31.152344 10.785156 C 31.257812 10.785156 31.359375 10.785156 31.464844 10.785156 C 31.464844 11.433594 31.464844 12.078125 31.464844 12.746094 C 31.566406 12.746094 31.671875 12.746094 31.777344 12.746094 C 31.777344 13.207031 31.777344 13.667969 31.777344 14.144531 C 31.980469 14.144531 32.1875 14.144531 32.398438 14.144531 C 32.398438 14.054688 32.398438 13.960938 32.398438 13.863281 C 32.605469 13.863281 32.808594 13.863281 33.023438 13.863281 C 33.023438 13.773438 33.023438 13.679688 33.023438 13.585938 C 33.332031 13.585938 33.636719 13.585938 33.957031 13.585938 C 33.957031 13.492188 33.957031 13.398438 33.957031 13.304688 C 34.367188 13.304688 34.777344 13.304688 35.203125 13.304688 C 35.203125 13.214844 35.203125 13.121094 35.203125 13.023438 C 35.921875 13.023438 36.640625 13.023438 37.382812 13.023438 C 37.382812 12.933594 37.382812 12.839844 37.382812 12.746094 C 40.15625 12.746094 42.933594 12.746094 45.792969 12.746094 C 45.792969 12.835938 45.792969 12.929688 45.792969 13.023438 C 46.207031 13.023438 46.617188 13.023438 47.039062 13.023438 C 47.039062 13.582031 47.039062 14.132812 47.039062 14.707031 C 46.9375 14.707031 46.835938 14.707031 46.730469 14.707031 C 46.730469 14.890625 46.730469 15.074219 46.730469 15.265625 C 46.625 15.265625 46.523438 15.265625 46.417969 15.265625 C 46.417969 15.449219 46.417969 15.636719 46.417969 15.828125 C 46.316406 15.828125 46.210938 15.828125 46.105469 15.828125 C 46.105469 16.011719 46.105469 16.195312 46.105469 16.386719 C 46.003906 16.386719 45.902344 16.386719 45.792969 16.386719 C 45.792969 16.570312 45.792969 16.757812 45.792969 16.949219 C 45.691406 16.949219 45.589844 16.949219 45.480469 16.949219 C 45.480469 17.132812 45.480469 17.316406 45.480469 17.507812 C 45.378906 17.507812 45.277344 17.507812 45.171875 17.507812 C 45.171875 17.691406 45.171875 17.878906 45.171875 18.066406 C 45.066406 18.066406 44.964844 18.066406 44.859375 18.066406 C 44.859375 18.25 44.859375 18.4375 44.859375 18.625 C 44.757812 18.625 44.65625 18.625 44.546875 18.625 C 44.546875 18.71875 44.546875 18.8125 44.546875 18.90625 C 44.445312 18.90625 44.34375 18.90625 44.234375 18.90625 C 44.234375 19.089844 44.234375 19.277344 44.234375 19.46875 C 44.132812 19.46875 44.03125 19.46875 43.925781 19.46875 C 43.925781 19.5625 43.925781 19.652344 43.925781 19.746094 C 43.820312 19.746094 43.71875 19.746094 43.613281 19.746094 C 43.613281 19.933594 43.613281 20.117188 43.613281 20.308594 C 43.511719 20.308594 43.410156 20.308594 43.300781 20.308594 C 43.300781 20.398438 43.300781 20.492188 43.300781 20.589844 C 43.199219 20.589844 43.097656 20.589844 42.988281 20.589844 C 42.988281 20.773438 42.988281 20.957031 42.988281 21.148438 C 42.886719 21.148438 42.785156 21.148438 42.679688 21.148438 C 42.679688 21.238281 42.679688 21.332031 42.679688 21.429688 C 42.574219 21.429688 42.472656 21.429688 42.367188 21.429688 C 42.367188 21.519531 42.367188 21.613281 42.367188 21.710938 C 42.265625 21.710938 42.160156 21.710938 42.054688 21.710938 C 42.054688 21.894531 42.054688 22.078125 42.054688 22.269531 C 41.953125 22.269531 41.851562 22.269531 41.742188 22.269531 C 41.742188 22.359375 41.742188 22.453125 41.742188 22.546875 C 41.640625 22.546875 41.539062 22.546875 41.433594 22.546875 C 41.433594 22.640625 41.433594 22.734375 41.433594 22.828125 C 41.328125 22.828125 41.226562 22.828125 41.121094 22.828125 C 41.121094 22.921875 41.121094 23.015625 41.121094 23.109375 C 41.019531 23.109375 40.914062 23.109375 40.808594 23.109375 C 40.808594 23.203125 40.808594 23.292969 40.808594 23.386719 C 40.707031 23.386719 40.605469 23.386719 40.496094 23.386719 C 40.496094 23.480469 40.496094 23.574219 40.496094 23.667969 C 40.394531 23.667969 40.292969 23.667969 40.1875 23.667969 C 40.1875 23.761719 40.1875 23.855469 40.1875 23.949219 C 39.980469 23.949219 39.777344 23.949219 39.5625 23.949219 C 39.5625 24.042969 39.5625 24.132812 39.5625 24.230469 C 39.460938 24.230469 39.359375 24.230469 39.25 24.230469 C 39.25 24.324219 39.25 24.414062 39.25 24.507812 C 39.046875 24.507812 38.839844 24.507812 38.628906 24.507812 C 38.628906 24.601562 38.628906 24.695312 38.628906 24.789062 C 38.527344 24.789062 38.421875 24.789062 38.316406 24.789062 C 38.316406 24.972656 38.316406 25.160156 38.316406 25.351562 C 38.523438 25.351562 38.730469 25.351562 38.941406 25.351562 C 38.941406 25.441406 38.941406 25.535156 38.941406 25.628906 C 39.042969 25.628906 39.148438 25.628906 39.25 25.628906 C 39.25 25.722656 39.25 25.816406 39.25 25.910156 C 39.457031 25.910156 39.664062 25.910156 39.875 25.910156 C 39.875 26.003906 39.875 26.09375 39.875 26.191406 C 39.976562 26.191406 40.082031 26.191406 40.1875 26.191406 C 40.1875 26.28125 40.1875 26.375 40.1875 26.472656 C 40.289062 26.472656 40.390625 26.472656 40.496094 26.472656 C 40.496094 26.5625 40.496094 26.65625 40.496094 26.75 C 40.601562 26.75 40.703125 26.75 40.808594 26.75 C 40.808594 26.84375 40.808594 26.9375 40.808594 27.03125 C 40.914062 27.03125 41.015625 27.03125 41.121094 27.03125 C 41.121094 27.121094 41.121094 27.214844 41.121094 27.3125 C 41.222656 27.3125 41.328125 27.3125 41.433594 27.3125 C 41.433594 27.402344 41.433594 27.496094 41.433594 27.589844 C 41.535156 27.589844 41.636719 27.589844 41.742188 27.589844 C 41.742188 27.683594 41.742188 27.777344 41.742188 27.871094 C 41.847656 27.871094 41.949219 27.871094 42.054688 27.871094 C 42.054688 27.964844 42.054688 28.058594 42.054688 28.152344 C 42.160156 28.152344 42.261719 28.152344 42.367188 28.152344 C 42.367188 28.242188 42.367188 28.335938 42.367188 28.429688 C 42.46875 28.429688 42.574219 28.429688 42.679688 28.429688 C 42.679688 28.617188 42.679688 28.800781 42.679688 28.992188 C 42.78125 28.992188 42.882812 28.992188 42.988281 28.992188 C 42.988281 29.085938 42.988281 29.175781 42.988281 29.269531 C 43.09375 29.269531 43.195312 29.269531 43.300781 29.269531 C 43.300781 29.457031 43.300781 29.640625 43.300781 29.832031 C 43.402344 29.832031 43.507812 29.832031 43.613281 29.832031 C 43.613281 29.925781 43.613281 30.015625 43.613281 30.113281 C 43.714844 30.113281 43.820312 30.113281 43.925781 30.113281 C 43.925781 30.207031 43.925781 30.296875 43.925781 30.390625 C 44.027344 30.390625 44.128906 30.390625 44.234375 30.390625 C 44.234375 30.578125 44.234375 30.761719 44.234375 30.953125 C 44.339844 30.953125 44.441406 30.953125 44.546875 30.953125 C 44.546875 31.136719 44.546875 31.320312 44.546875 31.511719 C 44.648438 31.511719 44.753906 31.511719 44.859375 31.511719 C 44.859375 31.605469 44.859375 31.699219 44.859375 31.792969 C 44.960938 31.792969 45.066406 31.792969 45.171875 31.792969 C 45.171875 31.976562 45.171875 32.164062 45.171875 32.355469 C 45.273438 32.355469 45.375 32.355469 45.480469 32.355469 C 45.480469 32.539062 45.480469 32.722656 45.480469 32.914062 C 45.585938 32.914062 45.6875 32.914062 45.792969 32.914062 C 45.792969 33.097656 45.792969 33.285156 45.792969 33.472656 C 45.894531 33.472656 46 33.472656 46.105469 33.472656 C 46.105469 33.65625 46.105469 33.84375 46.105469 34.035156 C 46.207031 34.035156 46.3125 34.035156 46.417969 34.035156 C 46.417969 34.21875 46.417969 34.402344 46.417969 34.59375 C 46.519531 34.59375 46.621094 34.59375 46.730469 34.59375 C 46.730469 34.871094 46.730469 35.148438 46.730469 35.433594 C 46.832031 35.433594 46.933594 35.433594 47.039062 35.433594 C 47.039062 35.617188 47.039062 35.804688 47.039062 35.996094 C 47.140625 35.996094 47.246094 35.996094 47.351562 35.996094 C 47.351562 36.363281 47.351562 36.734375 47.351562 37.117188 C 46.632812 37.117188 45.914062 37.117188 45.171875 37.117188 C 45.171875 37.207031 45.171875 37.300781 45.171875 37.394531 C 42.703125 37.394531 40.238281 37.394531 37.695312 37.394531 C 37.695312 37.300781 37.695312 37.210938 37.695312 37.117188 C 37.078125 37.117188 36.460938 37.117188 35.824219 37.117188 C 35.824219 37.023438 35.824219 36.929688 35.824219 36.835938 C 35.3125 36.835938 34.796875 36.835938 34.269531 36.835938 C 34.269531 36.742188 34.269531 36.652344 34.269531 36.554688 C 33.957031 36.554688 33.652344 36.554688 33.332031 36.554688 C 33.332031 36.460938 33.332031 36.371094 33.332031 36.273438 C 33.023438 36.273438 32.71875 36.273438 32.398438 36.273438 C 32.398438 36.183594 32.398438 36.089844 32.398438 35.996094 C 32.191406 35.996094 31.988281 35.996094 31.777344 35.996094 C 31.777344 35.902344 31.777344 35.808594 31.777344 35.714844 C 31.570312 35.714844 31.363281 35.714844 31.152344 35.714844 C 31.152344 36.546875 31.152344 37.378906 31.152344 38.234375 C 31.050781 38.234375 30.945312 38.234375 30.839844 38.234375 C 30.839844 38.605469 30.839844 38.976562 30.839844 39.355469 C 30.738281 39.355469 30.636719 39.355469 30.53125 39.355469 C 30.53125 39.726562 30.53125 40.09375 30.53125 40.476562 C 30.425781 40.476562 30.324219 40.476562 30.21875 40.476562 C 30.21875 40.660156 30.21875 40.847656 30.21875 41.035156 C 30.113281 41.035156 30.011719 41.035156 29.90625 41.035156 C 29.90625 41.3125 29.90625 41.589844 29.90625 41.878906 C 29.804688 41.878906 29.699219 41.878906 29.59375 41.878906 C 29.59375 42.0625 29.59375 42.246094 29.59375 42.4375 C 29.492188 42.4375 29.390625 42.4375 29.285156 42.4375 C 29.285156 42.621094 29.285156 42.808594 29.285156 42.996094 C 29.179688 42.996094 29.078125 42.996094 28.972656 42.996094 C 28.972656 43.179688 28.972656 43.367188 28.972656 43.558594 C 28.871094 43.558594 28.765625 43.558594 28.660156 43.558594 C 28.660156 43.742188 28.660156 43.925781 28.660156 44.117188 C 28.558594 44.117188 28.453125 44.117188 28.347656 44.117188 C 28.347656 44.300781 28.347656 44.488281 28.347656 44.675781 C 28.246094 44.675781 28.144531 44.675781 28.039062 44.675781 C 28.039062 44.863281 28.039062 45.046875 28.039062 45.238281 C 27.933594 45.238281 27.832031 45.238281 27.726562 45.238281 C 27.726562 45.328125 27.726562 45.421875 27.726562 45.519531 C 27.625 45.519531 27.519531 45.519531 27.414062 45.519531 C 27.414062 45.703125 27.414062 45.886719 27.414062 46.078125 C 27.3125 46.078125 27.207031 46.078125 27.105469 46.078125 C 27.105469 46.261719 27.105469 46.449219 27.105469 46.640625 C 27 46.640625 26.898438 46.640625 26.792969 46.640625 C 26.792969 46.730469 26.792969 46.824219 26.792969 46.917969 C 26.6875 46.917969 26.585938 46.917969 26.480469 46.917969 C 26.480469 47.011719 26.480469 47.105469 26.480469 47.199219 C 26.378906 47.199219 26.273438 47.199219 26.167969 47.199219 C 26.167969 47.382812 26.167969 47.570312 26.167969 47.757812 C 26.066406 47.757812 25.960938 47.757812 25.859375 47.757812 C 25.859375 47.851562 25.859375 47.945312 25.859375 48.039062 C 25.753906 48.039062 25.652344 48.039062 25.546875 48.039062 C 25.546875 48.222656 25.546875 48.410156 25.546875 48.597656 C 25.441406 48.597656 25.339844 48.597656 25.234375 48.597656 C 25.234375 48.691406 25.234375 48.785156 25.234375 48.878906 C 24.820312 48.878906 24.410156 48.878906 23.988281 48.878906 C 23.988281 48.789062 23.988281 48.695312 23.988281 48.597656 C 23.886719 48.597656 23.78125 48.597656 23.675781 48.597656 C 23.675781 48.507812 23.675781 48.414062 23.675781 48.320312 C 23.574219 48.320312 23.46875 48.320312 23.367188 48.320312 C 23.367188 48.132812 23.367188 47.949219 23.367188 47.757812 C 23.261719 47.757812 23.160156 47.757812 23.054688 47.757812 C 23.054688 47.667969 23.054688 47.574219 23.054688 47.480469 C 22.949219 47.480469 22.847656 47.480469 22.742188 47.480469 C 22.742188 47.292969 22.742188 47.109375 22.742188 46.917969 C 22.640625 46.917969 22.535156 46.917969 22.429688 46.917969 C 22.429688 46.824219 22.429688 46.734375 22.429688 46.640625 C 22.328125 46.640625 22.226562 46.640625 22.121094 46.640625 C 22.121094 46.453125 22.121094 46.269531 22.121094 46.078125 C 22.015625 46.078125 21.914062 46.078125 21.808594 46.078125 C 21.808594 45.984375 21.808594 45.894531 21.808594 45.796875 C 21.703125 45.796875 21.601562 45.796875 21.496094 45.796875 C 21.496094 45.613281 21.496094 45.429688 21.496094 45.238281 C 21.394531 45.238281 21.289062 45.238281 21.183594 45.238281 C 21.183594 45.054688 21.183594 44.867188 21.183594 44.675781 C 21.082031 44.675781 20.980469 44.675781 20.871094 44.675781 C 20.871094 44.492188 20.871094 44.308594 20.871094 44.117188 C 20.769531 44.117188 20.667969 44.117188 20.5625 44.117188 C 20.5625 44.027344 20.5625 43.933594 20.5625 43.835938 C 20.457031 43.835938 20.355469 43.835938 20.25 43.835938 C 20.25 43.652344 20.25 43.46875 20.25 43.277344 C 20.148438 43.277344 20.042969 43.277344 19.9375 43.277344 C 19.9375 43 19.9375 42.722656 19.9375 42.4375 C 19.835938 42.4375 19.734375 42.4375 19.625 42.4375 C 19.625 42.25 19.625 42.066406 19.625 41.878906 C 19.523438 41.878906 19.421875 41.878906 19.316406 41.878906 C 19.316406 41.691406 19.316406 41.507812 19.316406 41.316406 C 19.210938 41.316406 19.109375 41.316406 19.003906 41.316406 C 19.003906 41.039062 19.003906 40.761719 19.003906 40.476562 C 18.902344 40.476562 18.796875 40.476562 18.691406 40.476562 C 18.691406 40.199219 18.691406 39.921875 18.691406 39.636719 C 18.589844 39.636719 18.488281 39.636719 18.378906 39.636719 C 18.378906 39.265625 18.378906 38.898438 18.378906 38.515625 C 18.277344 38.515625 18.175781 38.515625 18.070312 38.515625 C 18.070312 37.589844 18.070312 36.664062 18.070312 35.714844 C 17.964844 35.714844 17.863281 35.714844 17.757812 35.714844 C 17.757812 35.804688 17.757812 35.898438 17.757812 35.996094 C 17.550781 35.996094 17.347656 35.996094 17.132812 35.996094 C 17.132812 36.085938 17.132812 36.179688 17.132812 36.273438 C 16.828125 36.273438 16.515625 36.273438 16.199219 36.273438 C 16.199219 36.367188 16.199219 36.460938 16.199219 36.554688 C 15.996094 36.554688 15.789062 36.554688 15.574219 36.554688 C 15.574219 36.648438 15.574219 36.738281 15.574219 36.835938 C 15.0625 36.835938 14.546875 36.835938 14.019531 36.835938 C 14.019531 36.925781 14.019531 37.019531 14.019531 37.117188 C 13.503906 37.117188 12.992188 37.117188 12.460938 37.117188 C 12.460938 37.207031 12.460938 37.300781 12.460938 37.394531 C 9.171875 37.394531 5.878906 37.394531 2.492188 37.394531 C 2.492188 37.300781 2.492188 37.210938 2.492188 37.117188 C 2.285156 37.117188 2.082031 37.117188 1.867188 37.117188 C 1.867188 36.746094 1.867188 36.375 1.867188 35.996094 C 1.972656 35.996094 2.074219 35.996094 2.179688 35.996094 C 2.179688 35.808594 2.179688 35.625 2.179688 35.433594 C 2.285156 35.433594 2.386719 35.433594 2.492188 35.433594 C 2.492188 35.15625 2.492188 34.878906 2.492188 34.59375 C 2.59375 34.59375 2.699219 34.59375 2.804688 34.59375 C 2.804688 34.410156 2.804688 34.222656 2.804688 34.035156 C 2.90625 34.035156 3.011719 34.035156 3.113281 34.035156 C 3.113281 33.847656 3.113281 33.664062 3.113281 33.472656 C 3.21875 33.472656 3.320312 33.472656 3.425781 33.472656 C 3.425781 33.289062 3.425781 33.101562 3.425781 32.914062 C 3.53125 32.914062 3.632812 32.914062 3.738281 32.914062 C 3.738281 32.726562 3.738281 32.542969 3.738281 32.355469 C 3.839844 32.355469 3.945312 32.355469 4.050781 32.355469 C 4.050781 32.261719 4.050781 32.167969 4.050781 32.074219 C 4.152344 32.074219 4.253906 32.074219 4.359375 32.074219 C 4.359375 31.890625 4.359375 31.703125 4.359375 31.511719 C 4.464844 31.511719 4.566406 31.511719 4.671875 31.511719 C 4.671875 31.328125 4.671875 31.144531 4.671875 30.953125 C 4.777344 30.953125 4.878906 30.953125 4.984375 30.953125 C 4.984375 30.859375 4.984375 30.769531 4.984375 30.671875 C 5.085938 30.671875 5.191406 30.671875 5.296875 30.671875 C 5.296875 30.488281 5.296875 30.304688 5.296875 30.113281 C 5.398438 30.113281 5.5 30.113281 5.605469 30.113281 C 5.605469 30.019531 5.605469 29.925781 5.605469 29.832031 C 5.710938 29.832031 5.8125 29.832031 5.917969 29.832031 C 5.917969 29.648438 5.917969 29.460938 5.917969 29.269531 C 6.023438 29.269531 6.125 29.269531 6.230469 29.269531 C 6.230469 29.179688 6.230469 29.085938 6.230469 28.992188 C 6.332031 28.992188 6.4375 28.992188 6.542969 28.992188 C 6.542969 28.898438 6.542969 28.804688 6.542969 28.710938 C 6.644531 28.710938 6.746094 28.710938 6.851562 28.710938 C 6.851562 28.527344 6.851562 28.339844 6.851562 28.152344 C 6.957031 28.152344 7.058594 28.152344 7.164062 28.152344 C 7.164062 28.058594 7.164062 27.964844 7.164062 27.871094 C 7.265625 27.871094 7.371094 27.871094 7.476562 27.871094 C 7.476562 27.777344 7.476562 27.683594 7.476562 27.589844 C 7.578125 27.589844 7.683594 27.589844 7.789062 27.589844 C 7.789062 27.5 7.789062 27.40625 7.789062 27.3125 C 7.890625 27.3125 7.992188 27.3125 8.097656 27.3125 C 8.097656 27.21875 8.097656 27.125 8.097656 27.03125 C 8.203125 27.03125 8.304688 27.03125 8.410156 27.03125 C 8.410156 26.9375 8.410156 26.847656 8.410156 26.75 C 8.511719 26.75 8.617188 26.75 8.722656 26.75 C 8.722656 26.65625 8.722656 26.566406 8.722656 26.472656 C 8.824219 26.472656 8.929688 26.472656 9.035156 26.472656 C 9.035156 26.378906 9.035156 26.285156 9.035156 26.191406 C 9.238281 26.191406 9.445312 26.191406 9.65625 26.191406 C 9.65625 26.097656 9.65625 26.007812 9.65625 25.910156 C 9.757812 25.910156 9.863281 25.910156 9.96875 25.910156 C 9.96875 25.816406 9.96875 25.726562 9.96875 25.628906 C 10.175781 25.628906 10.378906 25.628906 10.589844 25.628906 C 10.589844 25.535156 10.589844 25.445312 10.589844 25.351562 C 10.695312 25.351562 10.796875 25.351562 10.902344 25.351562 C 10.902344 25.257812 10.902344 25.164062 10.902344 25.070312 C 10.800781 25.070312 10.699219 25.070312 10.589844 25.070312 C 10.589844 24.976562 10.589844 24.886719 10.589844 24.789062 C 10.488281 24.789062 10.386719 24.789062 10.28125 24.789062 C 10.28125 24.699219 10.28125 24.605469 10.28125 24.507812 C 10.074219 24.507812 9.871094 24.507812 9.65625 24.507812 C 9.65625 24.417969 9.65625 24.324219 9.65625 24.230469 C 9.554688 24.230469 9.453125 24.230469 9.34375 24.230469 C 9.34375 24.136719 9.34375 24.042969 9.34375 23.949219 C 9.242188 23.949219 9.140625 23.949219 9.035156 23.949219 C 9.035156 23.859375 9.035156 23.765625 9.035156 23.667969 C 8.929688 23.667969 8.828125 23.667969 8.722656 23.667969 C 8.722656 23.578125 8.722656 23.484375 8.722656 23.386719 C 8.621094 23.386719 8.515625 23.386719 8.410156 23.386719 C 8.410156 23.296875 8.410156 23.203125 8.410156 23.109375 C 8.308594 23.109375 8.207031 23.109375 8.097656 23.109375 C 8.097656 23.015625 8.097656 22.921875 8.097656 22.828125 C 7.996094 22.828125 7.894531 22.828125 7.789062 22.828125 C 7.789062 22.738281 7.789062 22.644531 7.789062 22.546875 C 7.683594 22.546875 7.582031 22.546875 7.476562 22.546875 C 7.476562 22.457031 7.476562 22.363281 7.476562 22.269531 C 7.371094 22.269531 7.269531 22.269531 7.164062 22.269531 C 7.164062 22.082031 7.164062 21.898438 7.164062 21.710938 C 7.0625 21.710938 6.960938 21.710938 6.851562 21.710938 C 6.851562 21.617188 6.851562 21.523438 6.851562 21.429688 C 6.75 21.429688 6.648438 21.429688 6.542969 21.429688 C 6.542969 21.335938 6.542969 21.246094 6.542969 21.148438 C 6.4375 21.148438 6.335938 21.148438 6.230469 21.148438 C 6.230469 20.964844 6.230469 20.78125 6.230469 20.589844 C 6.125 20.589844 6.023438 20.589844 5.917969 20.589844 C 5.917969 20.496094 5.917969 20.402344 5.917969 20.308594 C 5.816406 20.308594 5.714844 20.308594 5.605469 20.308594 C 5.605469 20.125 5.605469 19.9375 5.605469 19.746094 C 5.503906 19.746094 5.402344 19.746094 5.296875 19.746094 C 5.296875 19.5625 5.296875 19.378906 5.296875 19.1875 C 5.191406 19.1875 5.089844 19.1875 4.984375 19.1875 C 4.984375 19.097656 4.984375 19.003906 4.984375 18.90625 C 4.878906 18.90625 4.777344 18.90625 4.671875 18.90625 C 4.671875 18.722656 4.671875 18.539062 4.671875 18.347656 C 4.570312 18.347656 4.464844 18.347656 4.359375 18.347656 C 4.359375 18.160156 4.359375 17.976562 4.359375 17.785156 C 4.257812 17.785156 4.15625 17.785156 4.050781 17.785156 C 4.050781 17.601562 4.050781 17.417969 4.050781 17.226562 C 3.945312 17.226562 3.84375 17.226562 3.738281 17.226562 C 3.738281 17.042969 3.738281 16.855469 3.738281 16.667969 C 3.632812 16.667969 3.53125 16.667969 3.425781 16.667969 C 3.425781 16.484375 3.425781 16.296875 3.425781 16.105469 C 3.324219 16.105469 3.21875 16.105469 3.113281 16.105469 C 3.113281 15.921875 3.113281 15.738281 3.113281 15.546875 C 3.011719 15.546875 2.910156 15.546875 2.804688 15.546875 C 2.804688 15.363281 2.804688 15.175781 2.804688 14.984375 C 2.699219 14.984375 2.597656 14.984375 2.492188 14.984375 C 2.492188 14.433594 2.492188 13.878906 2.492188 13.304688 C 3.519531 13.304688 4.546875 13.304688 5.605469 13.304688 C 5.605469 13.214844 5.605469 13.121094 5.605469 13.023438 C 7.148438 13.023438 8.691406 13.023438 10.28125 13.023438 C 10.28125 13.117188 10.28125 13.210938 10.28125 13.304688 C 11.410156 13.304688 12.542969 13.304688 13.707031 13.304688 C 13.707031 13.398438 13.707031 13.488281 13.707031 13.585938 C 14.222656 13.585938 14.734375 13.585938 15.265625 13.585938 C 15.265625 13.679688 15.265625 13.769531 15.265625 13.863281 C 15.574219 13.863281 15.882812 13.863281 16.199219 13.863281 C 16.199219 13.957031 16.199219 14.050781 16.199219 14.144531 C 16.507812 14.144531 16.816406 14.144531 17.132812 14.144531 C 17.132812 14.238281 17.132812 14.328125 17.132812 14.425781 C 17.339844 14.425781 17.542969 14.425781 17.757812 14.425781 C 17.757812 14.519531 17.757812 14.609375 17.757812 14.707031 C 17.960938 14.707031 18.167969 14.707031 18.378906 14.707031 C 18.378906 14.800781 18.378906 14.890625 18.378906 14.984375 C 18.484375 14.984375 18.585938 14.984375 18.691406 14.984375 C 18.691406 13.691406 18.691406 12.398438 18.691406 11.066406 C 18.792969 11.066406 18.894531 11.066406 19.003906 11.066406 C 19.003906 10.695312 19.003906 10.324219 19.003906 9.945312 C 19.105469 9.945312 19.207031 9.945312 19.316406 9.945312 C 19.316406 9.664062 19.316406 9.390625 19.316406 9.101562 C 19.417969 9.101562 19.519531 9.101562 19.625 9.101562 C 19.625 8.917969 19.625 8.734375 19.625 8.542969 C 19.730469 8.542969 19.832031 8.542969 19.9375 8.542969 C 19.9375 8.265625 19.9375 7.988281 19.9375 7.703125 C 20.039062 7.703125 20.144531 7.703125 20.25 7.703125 C 20.25 7.515625 20.25 7.332031 20.25 7.144531 C 20.351562 7.144531 20.453125 7.144531 20.5625 7.144531 C 20.5625 6.957031 20.5625 6.773438 20.5625 6.582031 C 20.664062 6.582031 20.765625 6.582031 20.871094 6.582031 C 20.871094 6.398438 20.871094 6.214844 20.871094 6.023438 C 20.976562 6.023438 21.078125 6.023438 21.183594 6.023438 C 21.183594 5.839844 21.183594 5.652344 21.183594 5.460938 C 21.285156 5.460938 21.390625 5.460938 21.496094 5.460938 C 21.496094 5.277344 21.496094 5.09375 21.496094 4.902344 C 21.597656 4.902344 21.699219 4.902344 21.808594 4.902344 C 21.808594 4.808594 21.808594 4.71875 21.808594 4.621094 C 21.910156 4.621094 22.011719 4.621094 22.121094 4.621094 C 22.121094 4.4375 22.121094 4.253906 22.121094 4.0625 C 22.222656 4.0625 22.324219 4.0625 22.429688 4.0625 C 22.429688 3.96875 22.429688 3.875 22.429688 3.78125 C 22.53125 3.78125 22.636719 3.78125 22.742188 3.78125 C 22.742188 3.597656 22.742188 3.410156 22.742188 3.21875 C 22.84375 3.21875 22.945312 3.21875 23.054688 3.21875 C 23.054688 3.035156 23.054688 2.851562 23.054688 2.660156 C 23.15625 2.660156 23.257812 2.660156 23.367188 2.660156 C 23.367188 2.570312 23.367188 2.476562 23.367188 2.382812 C 23.46875 2.382812 23.570312 2.382812 23.675781 2.382812 C 23.675781 2.289062 23.675781 2.195312 23.675781 2.101562 C 23.777344 2.101562 23.882812 2.101562 23.988281 2.101562 C 23.988281 1.914062 23.988281 1.730469 23.988281 1.542969 C 24.089844 1.542969 24.191406 1.542969 24.300781 1.542969 C 24.300781 1.449219 24.300781 1.355469 24.300781 1.261719 Z M 23.054688 7.980469 C 23.054688 8.167969 23.054688 8.355469 23.054688 8.542969 C 23.15625 8.542969 23.257812 8.542969 23.367188 8.542969 C 23.367188 8.359375 23.367188 8.171875 23.367188 7.980469 C 23.261719 7.980469 23.160156 7.980469 23.054688 7.980469 Z M 22.742188 8.824219 C 22.742188 9.101562 22.742188 9.378906 22.742188 9.664062 C 22.640625 9.664062 22.535156 9.664062 22.429688 9.664062 C 22.429688 9.941406 22.429688 10.21875 22.429688 10.503906 C 22.328125 10.503906 22.226562 10.503906 22.121094 10.503906 C 22.121094 10.96875 22.121094 11.429688 22.121094 11.90625 C 22.015625 11.90625 21.914062 11.90625 21.808594 11.90625 C 21.808594 12.367188 21.808594 12.828125 21.808594 13.304688 C 21.703125 13.304688 21.601562 13.304688 21.496094 13.304688 C 21.496094 16.265625 21.496094 19.222656 21.496094 22.269531 C 21.394531 22.269531 21.289062 22.269531 21.183594 22.269531 C 21.183594 22.453125 21.183594 22.640625 21.183594 22.828125 C 20.15625 22.828125 19.128906 22.828125 18.070312 22.828125 C 18.070312 22.738281 18.070312 22.644531 18.070312 22.546875 C 17.449219 22.546875 16.835938 22.546875 16.199219 22.546875 C 16.199219 22.457031 16.199219 22.363281 16.199219 22.269531 C 15.996094 22.269531 15.789062 22.269531 15.574219 22.269531 C 15.574219 22.175781 15.574219 22.082031 15.574219 21.988281 C 15.164062 21.988281 14.753906 21.988281 14.328125 21.988281 C 14.328125 21.894531 14.328125 21.804688 14.328125 21.710938 C 14.125 21.710938 13.917969 21.710938 13.707031 21.710938 C 13.707031 21.617188 13.707031 21.523438 13.707031 21.429688 C 13.503906 21.429688 13.296875 21.429688 13.082031 21.429688 C 13.082031 21.335938 13.082031 21.246094 13.082031 21.148438 C 12.777344 21.148438 12.46875 21.148438 12.148438 21.148438 C 12.148438 21.054688 12.148438 20.964844 12.148438 20.867188 C 12.046875 20.867188 11.945312 20.867188 11.835938 20.867188 C 11.835938 20.773438 11.835938 20.683594 11.835938 20.589844 C 11.632812 20.589844 11.425781 20.589844 11.214844 20.589844 C 11.214844 20.496094 11.214844 20.402344 11.214844 20.308594 C 11.007812 20.308594 10.804688 20.308594 10.589844 20.308594 C 10.589844 20.214844 10.589844 20.125 10.589844 20.027344 C 10.386719 20.027344 10.183594 20.027344 9.96875 20.027344 C 9.96875 20.121094 9.96875 20.210938 9.96875 20.308594 C 10.070312 20.308594 10.175781 20.308594 10.28125 20.308594 C 10.28125 20.398438 10.28125 20.492188 10.28125 20.589844 C 10.382812 20.589844 10.484375 20.589844 10.589844 20.589844 C 10.589844 20.679688 10.589844 20.773438 10.589844 20.867188 C 10.695312 20.867188 10.796875 20.867188 10.902344 20.867188 C 10.902344 20.960938 10.902344 21.054688 10.902344 21.148438 C 11.003906 21.148438 11.109375 21.148438 11.214844 21.148438 C 11.214844 21.238281 11.214844 21.332031 11.214844 21.429688 C 11.316406 21.429688 11.421875 21.429688 11.527344 21.429688 C 11.527344 21.519531 11.527344 21.613281 11.527344 21.710938 C 11.628906 21.710938 11.730469 21.710938 11.835938 21.710938 C 11.835938 21.800781 11.835938 21.894531 11.835938 21.988281 C 11.941406 21.988281 12.042969 21.988281 12.148438 21.988281 C 12.148438 22.082031 12.148438 22.175781 12.148438 22.269531 C 12.355469 22.269531 12.5625 22.269531 12.773438 22.269531 C 12.773438 22.359375 12.773438 22.453125 12.773438 22.546875 C 12.875 22.546875 12.976562 22.546875 13.082031 22.546875 C 13.082031 22.640625 13.082031 22.734375 13.082031 22.828125 C 13.289062 22.828125 13.496094 22.828125 13.707031 22.828125 C 13.707031 22.921875 13.707031 23.015625 13.707031 23.109375 C 13.808594 23.109375 13.910156 23.109375 14.019531 23.109375 C 14.019531 23.203125 14.019531 23.292969 14.019531 23.386719 C 14.121094 23.386719 14.222656 23.386719 14.328125 23.386719 C 14.328125 23.480469 14.328125 23.574219 14.328125 23.667969 C 14.535156 23.667969 14.742188 23.667969 14.953125 23.667969 C 14.953125 23.761719 14.953125 23.855469 14.953125 23.949219 C 15.15625 23.949219 15.363281 23.949219 15.574219 23.949219 C 15.574219 24.042969 15.574219 24.132812 15.574219 24.230469 C 15.78125 24.230469 15.988281 24.230469 16.199219 24.230469 C 16.199219 24.324219 16.199219 24.414062 16.199219 24.507812 C 16.402344 24.507812 16.609375 24.507812 16.824219 24.507812 C 16.824219 24.601562 16.824219 24.695312 16.824219 24.789062 C 17.128906 24.789062 17.441406 24.789062 17.757812 24.789062 C 17.757812 24.882812 17.757812 24.972656 17.757812 25.070312 C 17.960938 25.070312 18.167969 25.070312 18.378906 25.070312 C 18.378906 25.164062 18.378906 25.253906 18.378906 25.351562 C 18.484375 25.351562 18.585938 25.351562 18.691406 25.351562 C 18.691406 25.441406 18.691406 25.535156 18.691406 25.628906 C 18.792969 25.628906 18.894531 25.628906 19.003906 25.628906 C 19.003906 25.722656 19.003906 25.816406 19.003906 25.910156 C 19.105469 25.910156 19.207031 25.910156 19.316406 25.910156 C 19.316406 26.003906 19.316406 26.09375 19.316406 26.191406 C 19.417969 26.191406 19.519531 26.191406 19.625 26.191406 C 19.625 26.28125 19.625 26.375 19.625 26.472656 C 19.730469 26.472656 19.832031 26.472656 19.9375 26.472656 C 19.9375 26.933594 19.9375 27.394531 19.9375 27.871094 C 19.835938 27.871094 19.734375 27.871094 19.625 27.871094 C 19.625 28.058594 19.625 28.242188 19.625 28.429688 C 19.523438 28.429688 19.421875 28.429688 19.316406 28.429688 C 19.316406 28.523438 19.316406 28.617188 19.316406 28.710938 C 19.210938 28.710938 19.109375 28.710938 19.003906 28.710938 C 19.003906 28.894531 19.003906 29.082031 19.003906 29.269531 C 18.902344 29.269531 18.796875 29.269531 18.691406 29.269531 C 18.691406 29.363281 18.691406 29.457031 18.691406 29.550781 C 18.589844 29.550781 18.488281 29.550781 18.378906 29.550781 C 18.378906 29.644531 18.378906 29.738281 18.378906 29.832031 C 18.277344 29.832031 18.175781 29.832031 18.070312 29.832031 C 18.070312 29.925781 18.070312 30.015625 18.070312 30.113281 C 17.964844 30.113281 17.863281 30.113281 17.757812 30.113281 C 17.757812 30.207031 17.757812 30.296875 17.757812 30.390625 C 17.65625 30.390625 17.550781 30.390625 17.445312 30.390625 C 17.445312 30.484375 17.445312 30.578125 17.445312 30.671875 C 17.34375 30.671875 17.242188 30.671875 17.132812 30.671875 C 17.132812 30.765625 17.132812 30.855469 17.132812 30.953125 C 17.03125 30.953125 16.929688 30.953125 16.824219 30.953125 C 16.824219 31.042969 16.824219 31.136719 16.824219 31.234375 C 16.71875 31.234375 16.617188 31.234375 16.511719 31.234375 C 16.511719 31.324219 16.511719 31.417969 16.511719 31.511719 C 16.410156 31.511719 16.304688 31.511719 16.199219 31.511719 C 16.199219 31.605469 16.199219 31.699219 16.199219 31.792969 C 15.996094 31.792969 15.789062 31.792969 15.574219 31.792969 C 15.574219 31.886719 15.574219 31.976562 15.574219 32.074219 C 15.472656 32.074219 15.371094 32.074219 15.265625 32.074219 C 15.265625 32.164062 15.265625 32.257812 15.265625 32.355469 C 15.164062 32.355469 15.058594 32.355469 14.953125 32.355469 C 14.953125 32.445312 14.953125 32.539062 14.953125 32.632812 C 14.75 32.632812 14.542969 32.632812 14.328125 32.632812 C 14.328125 32.726562 14.328125 32.820312 14.328125 32.914062 C 14.226562 32.914062 14.125 32.914062 14.019531 32.914062 C 14.019531 33.003906 14.019531 33.097656 14.019531 33.191406 C 13.8125 33.191406 13.609375 33.191406 13.394531 33.191406 C 13.394531 33.285156 13.394531 33.378906 13.394531 33.472656 C 13.191406 33.472656 12.984375 33.472656 12.773438 33.472656 C 12.773438 33.566406 12.773438 33.65625 12.773438 33.753906 C 12.566406 33.753906 12.363281 33.753906 12.148438 33.753906 C 12.148438 33.847656 12.148438 33.9375 12.148438 34.035156 C 11.945312 34.035156 11.738281 34.035156 11.527344 34.035156 C 11.527344 34.125 11.527344 34.21875 11.527344 34.3125 C 11.320312 34.3125 11.117188 34.3125 10.902344 34.3125 C 10.902344 34.40625 10.902344 34.5 10.902344 34.59375 C 10.699219 34.59375 10.492188 34.59375 10.28125 34.59375 C 10.28125 34.6875 10.28125 34.777344 10.28125 34.875 C 10.589844 34.875 10.898438 34.875 11.214844 34.875 C 11.214844 34.78125 11.214844 34.6875 11.214844 34.59375 C 11.625 34.59375 12.039062 34.59375 12.460938 34.59375 C 12.460938 34.503906 12.460938 34.410156 12.460938 34.3125 C 12.769531 34.3125 13.078125 34.3125 13.394531 34.3125 C 13.394531 34.222656 13.394531 34.128906 13.394531 34.035156 C 13.703125 34.035156 14.011719 34.035156 14.328125 34.035156 C 14.328125 33.941406 14.328125 33.847656 14.328125 33.753906 C 14.535156 33.753906 14.742188 33.753906 14.953125 33.753906 C 14.953125 33.660156 14.953125 33.566406 14.953125 33.472656 C 15.261719 33.472656 15.570312 33.472656 15.886719 33.472656 C 15.886719 33.382812 15.886719 33.289062 15.886719 33.191406 C 16.09375 33.191406 16.300781 33.191406 16.511719 33.191406 C 16.511719 33.101562 16.511719 33.007812 16.511719 32.914062 C 16.714844 32.914062 16.921875 32.914062 17.132812 32.914062 C 17.132812 32.820312 17.132812 32.726562 17.132812 32.632812 C 17.238281 32.632812 17.339844 32.632812 17.445312 32.632812 C 17.445312 32.539062 17.445312 32.449219 17.445312 32.355469 C 17.648438 32.355469 17.855469 32.355469 18.070312 32.355469 C 18.070312 32.261719 18.070312 32.167969 18.070312 32.074219 C 18.273438 32.074219 18.480469 32.074219 18.691406 32.074219 C 18.691406 31.980469 18.691406 31.890625 18.691406 31.792969 C 18.792969 31.792969 18.894531 31.792969 19.003906 31.792969 C 19.003906 31.699219 19.003906 31.609375 19.003906 31.511719 C 19.207031 31.511719 19.414062 31.511719 19.625 31.511719 C 19.625 31.417969 19.625 31.328125 19.625 31.234375 C 19.730469 31.234375 19.832031 31.234375 19.9375 31.234375 C 19.9375 31.140625 19.9375 31.046875 19.9375 30.953125 C 20.039062 30.953125 20.144531 30.953125 20.25 30.953125 C 20.25 30.859375 20.25 30.769531 20.25 30.671875 C 20.453125 30.671875 20.660156 30.671875 20.871094 30.671875 C 20.871094 30.578125 20.871094 30.488281 20.871094 30.390625 C 21.078125 30.390625 21.28125 30.390625 21.496094 30.390625 C 21.496094 30.300781 21.496094 30.207031 21.496094 30.113281 C 21.804688 30.113281 22.113281 30.113281 22.429688 30.113281 C 22.429688 30.019531 22.429688 29.925781 22.429688 29.832031 C 23.148438 29.832031 23.867188 29.832031 24.613281 29.832031 C 24.613281 30.015625 24.613281 30.203125 24.613281 30.390625 C 24.714844 30.390625 24.816406 30.390625 24.921875 30.390625 C 24.921875 30.578125 24.921875 30.761719 24.921875 30.953125 C 25.027344 30.953125 25.128906 30.953125 25.234375 30.953125 C 25.234375 31.230469 25.234375 31.507812 25.234375 31.792969 C 25.335938 31.792969 25.441406 31.792969 25.546875 31.792969 C 25.546875 32.070312 25.546875 32.347656 25.546875 32.632812 C 25.648438 32.632812 25.75 32.632812 25.859375 32.632812 C 25.859375 32.910156 25.859375 33.1875 25.859375 33.472656 C 25.960938 33.472656 26.0625 33.472656 26.167969 33.472656 C 26.167969 33.84375 26.167969 34.214844 26.167969 34.59375 C 26.273438 34.59375 26.375 34.59375 26.480469 34.59375 C 26.480469 36.90625 26.480469 39.214844 26.480469 41.597656 C 26.582031 41.597656 26.6875 41.597656 26.792969 41.597656 C 26.792969 41.320312 26.792969 41.042969 26.792969 40.757812 C 26.894531 40.757812 26.996094 40.757812 27.105469 40.757812 C 27.105469 40.480469 27.105469 40.203125 27.105469 39.914062 C 27.207031 39.914062 27.308594 39.914062 27.414062 39.914062 C 27.414062 39.546875 27.414062 39.175781 27.414062 38.796875 C 27.519531 38.796875 27.621094 38.796875 27.726562 38.796875 C 27.726562 38.335938 27.726562 37.871094 27.726562 37.394531 C 27.828125 37.394531 27.933594 37.394531 28.039062 37.394531 C 28.039062 36.839844 28.039062 36.285156 28.039062 35.714844 C 28.140625 35.714844 28.242188 35.714844 28.347656 35.714844 C 28.347656 34.699219 28.347656 33.679688 28.347656 32.632812 C 28.246094 32.632812 28.144531 32.632812 28.039062 32.632812 C 28.039062 31.246094 28.039062 29.859375 28.039062 28.429688 C 28.140625 28.429688 28.242188 28.429688 28.347656 28.429688 C 28.347656 28.15625 28.347656 27.875 28.347656 27.589844 C 29.066406 27.589844 29.789062 27.589844 30.53125 27.589844 C 30.53125 27.683594 30.53125 27.777344 30.53125 27.871094 C 31.25 27.871094 31.96875 27.871094 32.710938 27.871094 C 32.710938 27.964844 32.710938 28.058594 32.710938 28.152344 C 33.121094 28.152344 33.53125 28.152344 33.957031 28.152344 C 33.957031 28.242188 33.957031 28.335938 33.957031 28.429688 C 34.265625 28.429688 34.574219 28.429688 34.890625 28.429688 C 34.890625 28.523438 34.890625 28.617188 34.890625 28.710938 C 35.199219 28.710938 35.507812 28.710938 35.824219 28.710938 C 35.824219 28.804688 35.824219 28.894531 35.824219 28.992188 C 36.03125 28.992188 36.238281 28.992188 36.449219 28.992188 C 36.449219 29.085938 36.449219 29.175781 36.449219 29.269531 C 36.757812 29.269531 37.066406 29.269531 37.382812 29.269531 C 37.382812 29.363281 37.382812 29.457031 37.382812 29.550781 C 37.589844 29.550781 37.796875 29.550781 38.003906 29.550781 C 38.003906 29.644531 38.003906 29.738281 38.003906 29.832031 C 38.109375 29.832031 38.210938 29.832031 38.316406 29.832031 C 38.316406 29.925781 38.316406 30.015625 38.316406 30.113281 C 38.523438 30.113281 38.730469 30.113281 38.941406 30.113281 C 38.941406 30.207031 38.941406 30.296875 38.941406 30.390625 C 39.148438 30.390625 39.351562 30.390625 39.5625 30.390625 C 39.5625 30.300781 39.5625 30.207031 39.5625 30.113281 C 39.460938 30.113281 39.359375 30.113281 39.25 30.113281 C 39.25 30.019531 39.25 29.925781 39.25 29.832031 C 39.148438 29.832031 39.046875 29.832031 38.941406 29.832031 C 38.941406 29.738281 38.941406 29.648438 38.941406 29.550781 C 38.835938 29.550781 38.734375 29.550781 38.628906 29.550781 C 38.628906 29.460938 38.628906 29.367188 38.628906 29.269531 C 38.527344 29.269531 38.421875 29.269531 38.316406 29.269531 C 38.316406 29.179688 38.316406 29.085938 38.316406 28.992188 C 38.214844 28.992188 38.113281 28.992188 38.003906 28.992188 C 38.003906 28.898438 38.003906 28.804688 38.003906 28.710938 C 37.902344 28.710938 37.800781 28.710938 37.695312 28.710938 C 37.695312 28.621094 37.695312 28.527344 37.695312 28.429688 C 37.589844 28.429688 37.488281 28.429688 37.382812 28.429688 C 37.382812 28.339844 37.382812 28.246094 37.382812 28.152344 C 37.175781 28.152344 36.972656 28.152344 36.757812 28.152344 C 36.757812 28.058594 36.757812 27.964844 36.757812 27.871094 C 36.65625 27.871094 36.554688 27.871094 36.449219 27.871094 C 36.449219 27.777344 36.449219 27.683594 36.449219 27.589844 C 36.242188 27.589844 36.039062 27.589844 35.824219 27.589844 C 35.824219 27.5 35.824219 27.40625 35.824219 27.3125 C 35.722656 27.3125 35.617188 27.3125 35.515625 27.3125 C 35.515625 27.21875 35.515625 27.125 35.515625 27.03125 C 35.308594 27.03125 35.101562 27.03125 34.890625 27.03125 C 34.890625 26.9375 34.890625 26.847656 34.890625 26.75 C 34.789062 26.75 34.683594 26.75 34.578125 26.75 C 34.578125 26.65625 34.578125 26.566406 34.578125 26.472656 C 34.371094 26.472656 34.167969 26.472656 33.957031 26.472656 C 33.957031 26.378906 33.957031 26.285156 33.957031 26.191406 C 33.75 26.191406 33.542969 26.191406 33.332031 26.191406 C 33.332031 26.097656 33.332031 26.007812 33.332031 25.910156 C 33.125 25.910156 32.921875 25.910156 32.710938 25.910156 C 32.710938 25.816406 32.710938 25.726562 32.710938 25.628906 C 32.402344 25.628906 32.09375 25.628906 31.777344 25.628906 C 31.777344 25.535156 31.777344 25.445312 31.777344 25.351562 C 31.570312 25.351562 31.363281 25.351562 31.152344 25.351562 C 31.152344 25.257812 31.152344 25.164062 31.152344 25.070312 C 30.945312 25.070312 30.742188 25.070312 30.53125 25.070312 C 30.53125 24.976562 30.53125 24.886719 30.53125 24.789062 C 30.425781 24.789062 30.324219 24.789062 30.21875 24.789062 C 30.21875 24.699219 30.21875 24.605469 30.21875 24.507812 C 30.113281 24.507812 30.011719 24.507812 29.90625 24.507812 C 29.90625 24.417969 29.90625 24.324219 29.90625 24.230469 C 29.804688 24.230469 29.699219 24.230469 29.59375 24.230469 C 29.59375 24.136719 29.59375 24.042969 29.59375 23.949219 C 29.492188 23.949219 29.390625 23.949219 29.285156 23.949219 C 29.285156 23.859375 29.285156 23.765625 29.285156 23.667969 C 29.179688 23.667969 29.078125 23.667969 28.972656 23.667969 C 28.972656 23.207031 28.972656 22.746094 28.972656 22.269531 C 29.074219 22.269531 29.179688 22.269531 29.285156 22.269531 C 29.285156 22.175781 29.285156 22.082031 29.285156 21.988281 C 29.386719 21.988281 29.488281 21.988281 29.59375 21.988281 C 29.59375 21.894531 29.59375 21.804688 29.59375 21.710938 C 29.699219 21.710938 29.800781 21.710938 29.90625 21.710938 C 29.90625 21.523438 29.90625 21.339844 29.90625 21.148438 C 30.011719 21.148438 30.113281 21.148438 30.21875 21.148438 C 30.21875 21.054688 30.21875 20.964844 30.21875 20.867188 C 30.320312 20.867188 30.425781 20.867188 30.53125 20.867188 C 30.53125 20.773438 30.53125 20.683594 30.53125 20.589844 C 30.632812 20.589844 30.734375 20.589844 30.839844 20.589844 C 30.839844 20.496094 30.839844 20.402344 30.839844 20.308594 C 30.945312 20.308594 31.046875 20.308594 31.152344 20.308594 C 31.152344 20.214844 31.152344 20.125 31.152344 20.027344 C 31.257812 20.027344 31.359375 20.027344 31.464844 20.027344 C 31.464844 19.933594 31.464844 19.84375 31.464844 19.746094 C 31.566406 19.746094 31.671875 19.746094 31.777344 19.746094 C 31.777344 19.65625 31.777344 19.5625 31.777344 19.46875 C 31.878906 19.46875 31.980469 19.46875 32.085938 19.46875 C 32.085938 19.375 32.085938 19.28125 32.085938 19.1875 C 32.191406 19.1875 32.292969 19.1875 32.398438 19.1875 C 32.398438 19.097656 32.398438 19.003906 32.398438 18.90625 C 32.503906 18.90625 32.605469 18.90625 32.710938 18.90625 C 32.710938 18.816406 32.710938 18.722656 32.710938 18.625 C 32.8125 18.625 32.917969 18.625 33.023438 18.625 C 33.023438 18.535156 33.023438 18.441406 33.023438 18.347656 C 33.226562 18.347656 33.433594 18.347656 33.644531 18.347656 C 33.644531 18.253906 33.644531 18.160156 33.644531 18.066406 C 33.746094 18.066406 33.851562 18.066406 33.957031 18.066406 C 33.957031 17.976562 33.957031 17.882812 33.957031 17.785156 C 34.058594 17.785156 34.164062 17.785156 34.269531 17.785156 C 34.269531 17.695312 34.269531 17.601562 34.269531 17.507812 C 34.472656 17.507812 34.679688 17.507812 34.890625 17.507812 C 34.890625 17.414062 34.890625 17.320312 34.890625 17.226562 C 34.992188 17.226562 35.097656 17.226562 35.203125 17.226562 C 35.203125 17.132812 35.203125 17.042969 35.203125 16.949219 C 35.410156 16.949219 35.613281 16.949219 35.824219 16.949219 C 35.824219 16.855469 35.824219 16.761719 35.824219 16.667969 C 36.03125 16.667969 36.238281 16.667969 36.449219 16.667969 C 36.449219 16.574219 36.449219 16.484375 36.449219 16.386719 C 36.65625 16.386719 36.859375 16.386719 37.070312 16.386719 C 37.070312 16.292969 37.070312 16.203125 37.070312 16.105469 C 37.277344 16.105469 37.484375 16.105469 37.695312 16.105469 C 37.695312 16.011719 37.695312 15.921875 37.695312 15.828125 C 37.902344 15.828125 38.105469 15.828125 38.316406 15.828125 C 38.316406 15.734375 38.316406 15.640625 38.316406 15.546875 C 38.523438 15.546875 38.730469 15.546875 38.941406 15.546875 C 38.941406 15.453125 38.941406 15.363281 38.941406 15.265625 C 38.632812 15.265625 38.324219 15.265625 38.003906 15.265625 C 38.003906 15.359375 38.003906 15.449219 38.003906 15.546875 C 37.699219 15.546875 37.390625 15.546875 37.070312 15.546875 C 37.070312 15.636719 37.070312 15.730469 37.070312 15.828125 C 36.660156 15.828125 36.25 15.828125 35.824219 15.828125 C 35.824219 15.917969 35.824219 16.011719 35.824219 16.105469 C 35.515625 16.105469 35.210938 16.105469 34.890625 16.105469 C 34.890625 16.199219 34.890625 16.292969 34.890625 16.386719 C 34.683594 16.386719 34.480469 16.386719 34.269531 16.386719 C 34.269531 16.476562 34.269531 16.570312 34.269531 16.667969 C 34.0625 16.667969 33.855469 16.667969 33.644531 16.667969 C 33.644531 16.757812 33.644531 16.851562 33.644531 16.949219 C 33.335938 16.949219 33.027344 16.949219 32.710938 16.949219 C 32.710938 17.039062 32.710938 17.132812 32.710938 17.226562 C 32.605469 17.226562 32.503906 17.226562 32.398438 17.226562 C 32.398438 17.320312 32.398438 17.414062 32.398438 17.507812 C 32.191406 17.507812 31.988281 17.507812 31.777344 17.507812 C 31.777344 17.597656 31.777344 17.691406 31.777344 17.785156 C 31.570312 17.785156 31.363281 17.785156 31.152344 17.785156 C 31.152344 17.878906 31.152344 17.972656 31.152344 18.066406 C 30.945312 18.066406 30.742188 18.066406 30.53125 18.066406 C 30.53125 18.160156 30.53125 18.25 30.53125 18.347656 C 30.425781 18.347656 30.324219 18.347656 30.21875 18.347656 C 30.21875 18.441406 30.21875 18.53125 30.21875 18.625 C 30.113281 18.625 30.011719 18.625 29.90625 18.625 C 29.90625 18.71875 29.90625 18.8125 29.90625 18.90625 C 29.804688 18.90625 29.699219 18.90625 29.59375 18.90625 C 29.59375 19 29.59375 19.089844 29.59375 19.1875 C 29.390625 19.1875 29.183594 19.1875 28.972656 19.1875 C 28.972656 19.28125 28.972656 19.371094 28.972656 19.46875 C 28.765625 19.46875 28.558594 19.46875 28.347656 19.46875 C 28.347656 19.5625 28.347656 19.652344 28.347656 19.746094 C 28.039062 19.746094 27.730469 19.746094 27.414062 19.746094 C 27.414062 19.839844 27.414062 19.933594 27.414062 20.027344 C 26.59375 20.027344 25.769531 20.027344 24.921875 20.027344 C 24.921875 19.75 24.921875 19.472656 24.921875 19.1875 C 24.820312 19.1875 24.714844 19.1875 24.613281 19.1875 C 24.613281 19.097656 24.613281 19.003906 24.613281 18.90625 C 24.507812 18.90625 24.40625 18.90625 24.300781 18.90625 C 24.300781 18.539062 24.300781 18.167969 24.300781 17.785156 C 24.195312 17.785156 24.09375 17.785156 23.988281 17.785156 C 23.988281 17.511719 23.988281 17.230469 23.988281 16.949219 C 23.886719 16.949219 23.78125 16.949219 23.675781 16.949219 C 23.675781 16.574219 23.675781 16.207031 23.675781 15.828125 C 23.574219 15.828125 23.46875 15.828125 23.367188 15.828125 C 23.367188 15.179688 23.367188 14.53125 23.367188 13.863281 C 23.261719 13.863281 23.160156 13.863281 23.054688 13.863281 C 23.054688 12.199219 23.054688 10.539062 23.054688 8.824219 C 22.949219 8.824219 22.847656 8.824219 22.742188 8.824219 Z M 39.5625 14.984375 C 39.5625 15.078125 39.5625 15.171875 39.5625 15.265625 C 39.667969 15.265625 39.769531 15.265625 39.875 15.265625 C 39.875 15.171875 39.875 15.082031 39.875 14.984375 C 39.773438 14.984375 39.667969 14.984375 39.5625 14.984375 Z M 9.34375 19.46875 C 9.34375 19.5625 9.34375 19.652344 9.34375 19.746094 C 9.449219 19.746094 9.550781 19.746094 9.65625 19.746094 C 9.65625 19.65625 9.65625 19.5625 9.65625 19.46875 C 9.554688 19.46875 9.453125 19.46875 9.34375 19.46875 Z M 9.65625 19.746094 C 9.65625 19.839844 9.65625 19.933594 9.65625 20.027344 C 9.757812 20.027344 9.863281 20.027344 9.96875 20.027344 C 9.96875 19.933594 9.96875 19.84375 9.96875 19.746094 C 9.867188 19.746094 9.761719 19.746094 9.65625 19.746094 Z M 39.5625 30.390625 C 39.5625 30.484375 39.5625 30.578125 39.5625 30.671875 C 39.667969 30.671875 39.769531 30.671875 39.875 30.671875 C 39.875 30.578125 39.875 30.488281 39.875 30.390625 C 39.773438 30.390625 39.667969 30.390625 39.5625 30.390625 Z M 39.875 30.671875 C 39.875 30.765625 39.875 30.855469 39.875 30.953125 C 39.976562 30.953125 40.082031 30.953125 40.1875 30.953125 C 40.1875 30.859375 40.1875 30.769531 40.1875 30.671875 C 40.082031 30.671875 39.980469 30.671875 39.875 30.671875 Z M 9.34375 34.875 C 9.34375 34.96875 9.34375 35.058594 9.34375 35.152344 C 9.550781 35.152344 9.757812 35.152344 9.96875 35.152344 C 9.96875 35.0625 9.96875 34.96875 9.96875 34.875 C 9.761719 34.875 9.558594 34.875 9.34375 34.875 Z M 9.34375 34.875 "/>
<path style=" stroke:none;fill-rule:nonzero;fill:rgb(96.862745%,98.039216%,97.647059%);fill-opacity:1;" d="M 33.023438 18.347656 C 33.226562 18.394531 33.433594 18.441406 33.644531 18.488281 C 33.523438 18.585938 33.402344 18.6875 33.273438 18.789062 C 32.847656 19.136719 32.425781 19.488281 32.003906 19.839844 C 31.824219 19.988281 31.640625 20.136719 31.457031 20.285156 C 30.863281 20.785156 30.382812 21.351562 29.90625 21.945312 C 29.84375 22.023438 29.777344 22.101562 29.714844 22.183594 C 29.367188 22.621094 29.367188 22.621094 29.304688 23.140625 C 29.949219 24.335938 31.367188 25.042969 32.710938 25.492188 C 32.710938 25.535156 32.710938 25.582031 32.710938 25.628906 C 32.402344 25.628906 32.09375 25.628906 31.777344 25.628906 C 31.777344 25.535156 31.777344 25.445312 31.777344 25.351562 C 31.570312 25.351562 31.363281 25.351562 31.152344 25.351562 C 31.152344 25.257812 31.152344 25.164062 31.152344 25.070312 C 30.945312 25.070312 30.742188 25.070312 30.53125 25.070312 C 30.53125 24.976562 30.53125 24.886719 30.53125 24.789062 C 30.425781 24.789062 30.324219 24.789062 30.21875 24.789062 C 30.21875 24.699219 30.21875 24.605469 30.21875 24.507812 C 30.113281 24.507812 30.011719 24.507812 29.90625 24.507812 C 29.90625 24.417969 29.90625 24.324219 29.90625 24.230469 C 29.804688 24.230469 29.699219 24.230469 29.59375 24.230469 C 29.59375 24.136719 29.59375 24.042969 29.59375 23.949219 C 29.492188 23.949219 29.390625 23.949219 29.285156 23.949219 C 29.285156 23.859375 29.285156 23.765625 29.285156 23.667969 C 29.179688 23.667969 29.078125 23.667969 28.972656 23.667969 C 28.972656 23.207031 28.972656 22.746094 28.972656 22.269531 C 29.074219 22.269531 29.179688 22.269531 29.285156 22.269531 C 29.285156 22.175781 29.285156 22.082031 29.285156 21.988281 C 29.386719 21.988281 29.488281 21.988281 29.59375 21.988281 C 29.59375 21.894531 29.59375 21.804688 29.59375 21.710938 C 29.699219 21.710938 29.800781 21.710938 29.90625 21.710938 C 29.90625 21.523438 29.90625 21.339844 29.90625 21.148438 C 30.011719 21.148438 30.113281 21.148438 30.21875 21.148438 C 30.21875 21.054688 30.21875 20.964844 30.21875 20.867188 C 30.320312 20.867188 30.425781 20.867188 30.53125 20.867188 C 30.53125 20.773438 30.53125 20.683594 30.53125 20.589844 C 30.632812 20.589844 30.734375 20.589844 30.839844 20.589844 C 30.839844 20.496094 30.839844 20.402344 30.839844 20.308594 C 30.945312 20.308594 31.046875 20.308594 31.152344 20.308594 C 31.152344 20.214844 31.152344 20.125 31.152344 20.027344 C 31.257812 20.027344 31.359375 20.027344 31.464844 20.027344 C 31.464844 19.933594 31.464844 19.84375 31.464844 19.746094 C 31.566406 19.746094 31.671875 19.746094 31.777344 19.746094 C 31.777344 19.65625 31.777344 19.5625 31.777344 19.46875 C 31.878906 19.46875 31.980469 19.46875 32.085938 19.46875 C 32.085938 19.375 32.085938 19.28125 32.085938 19.1875 C 32.191406 19.1875 32.292969 19.1875 32.398438 19.1875 C 32.398438 19.097656 32.398438 19.003906 32.398438 18.90625 C 32.503906 18.90625 32.605469 18.90625 32.710938 18.90625 C 32.710938 18.816406 32.710938 18.722656 32.710938 18.625 C 32.8125 18.625 32.917969 18.625 33.023438 18.625 C 33.023438 18.535156 33.023438 18.441406 33.023438 18.347656 Z M 33.023438 18.347656 "/>
<path style=" stroke:none;fill-rule:nonzero;fill:rgb(96.470588%,98.039216%,97.647059%);fill-opacity:1;" d="M 37.382812 28.152344 C 37.832031 28.335938 38.167969 28.535156 38.53125 28.839844 C 38.675781 28.960938 38.675781 28.960938 38.820312 29.082031 C 38.921875 29.167969 39.023438 29.253906 39.125 29.339844 C 39.230469 29.429688 39.335938 29.519531 39.441406 29.605469 C 40.496094 30.511719 41.460938 31.464844 42.367188 32.492188 C 42.316406 32.585938 42.265625 32.679688 42.210938 32.773438 C 42.136719 32.722656 42.0625 32.671875 41.988281 32.617188 C 41.648438 32.378906 41.304688 32.144531 40.964844 31.90625 C 40.792969 31.785156 40.792969 31.785156 40.613281 31.660156 C 39.875 31.148438 39.121094 30.679688 38.316406 30.253906 C 38.523438 30.207031 38.730469 30.160156 38.941406 30.113281 C 38.941406 30.207031 38.941406 30.296875 38.941406 30.390625 C 39.148438 30.390625 39.351562 30.390625 39.5625 30.390625 C 39.5625 30.300781 39.5625 30.207031 39.5625 30.113281 C 39.460938 30.113281 39.359375 30.113281 39.25 30.113281 C 39.25 30.019531 39.25 29.925781 39.25 29.832031 C 39.148438 29.832031 39.046875 29.832031 38.941406 29.832031 C 38.941406 29.738281 38.941406 29.648438 38.941406 29.550781 C 38.835938 29.550781 38.734375 29.550781 38.628906 29.550781 C 38.628906 29.460938 38.628906 29.367188 38.628906 29.269531 C 38.527344 29.269531 38.421875 29.269531 38.316406 29.269531 C 38.316406 29.179688 38.316406 29.085938 38.316406 28.992188 C 38.214844 28.992188 38.113281 28.992188 38.003906 28.992188 C 38.003906 28.898438 38.003906 28.804688 38.003906 28.710938 C 37.902344 28.710938 37.800781 28.710938 37.695312 28.710938 C 37.695312 28.621094 37.695312 28.527344 37.695312 28.429688 C 37.589844 28.429688 37.488281 28.429688 37.382812 28.429688 C 37.382812 28.339844 37.382812 28.246094 37.382812 28.152344 Z M 39.5625 30.390625 C 39.5625 30.484375 39.5625 30.578125 39.5625 30.671875 C 39.667969 30.671875 39.769531 30.671875 39.875 30.671875 C 39.875 30.578125 39.875 30.488281 39.875 30.390625 C 39.773438 30.390625 39.667969 30.390625 39.5625 30.390625 Z M 39.875 30.671875 C 39.875 30.765625 39.875 30.855469 39.875 30.953125 C 39.976562 30.953125 40.082031 30.953125 40.1875 30.953125 C 40.1875 30.859375 40.1875 30.769531 40.1875 30.671875 C 40.082031 30.671875 39.980469 30.671875 39.875 30.671875 Z M 39.875 30.671875 "/>
<path style=" stroke:none;fill-rule:nonzero;fill:rgb(33.333334%,76.47059%,63.921571%);fill-opacity:1;" d="M 9.96875 25.628906 C 10.175781 25.675781 10.378906 25.722656 10.589844 25.769531 C 7.671875 28.398438 7.671875 28.398438 7.320312 28.707031 C 7.132812 28.878906 6.945312 29.050781 6.757812 29.21875 C 6.261719 29.675781 6.261719 29.675781 5.917969 29.832031 C 5.917969 29.648438 5.917969 29.460938 5.917969 29.269531 C 6.023438 29.269531 6.125 29.269531 6.230469 29.269531 C 6.230469 29.179688 6.230469 29.085938 6.230469 28.992188 C 6.332031 28.992188 6.4375 28.992188 6.542969 28.992188 C 6.542969 28.898438 6.542969 28.804688 6.542969 28.710938 C 6.644531 28.710938 6.746094 28.710938 6.851562 28.710938 C 6.851562 28.527344 6.851562 28.339844 6.851562 28.152344 C 6.957031 28.152344 7.058594 28.152344 7.164062 28.152344 C 7.164062 28.058594 7.164062 27.964844 7.164062 27.871094 C 7.265625 27.871094 7.371094 27.871094 7.476562 27.871094 C 7.476562 27.777344 7.476562 27.683594 7.476562 27.589844 C 7.578125 27.589844 7.683594 27.589844 7.789062 27.589844 C 7.789062 27.5 7.789062 27.40625 7.789062 27.3125 C 7.890625 27.3125 7.992188 27.3125 8.097656 27.3125 C 8.097656 27.21875 8.097656 27.125 8.097656 27.03125 C 8.203125 27.03125 8.304688 27.03125 8.410156 27.03125 C 8.410156 26.9375 8.410156 26.847656 8.410156 26.75 C 8.511719 26.75 8.617188 26.75 8.722656 26.75 C 8.722656 26.65625 8.722656 26.566406 8.722656 26.472656 C 8.824219 26.472656 8.929688 26.472656 9.035156 26.472656 C 9.035156 26.378906 9.035156 26.285156 9.035156 26.191406 C 9.238281 26.191406 9.445312 26.191406 9.65625 26.191406 C 9.65625 26.097656 9.65625 26.007812 9.65625 25.910156 C 9.757812 25.910156 9.863281 25.910156 9.96875 25.910156 C 9.96875 25.816406 9.96875 25.726562 9.96875 25.628906 Z M 9.96875 25.628906 "/>
<path style=" stroke:none;fill-rule:nonzero;fill:rgb(96.862745%,98.039216%,97.647059%);fill-opacity:1;" d="M 7.320312 17.785156 C 8.136719 18.257812 8.898438 18.785156 9.65625 19.328125 C 9.503906 19.398438 9.503906 19.398438 9.34375 19.46875 C 9.34375 19.5625 9.34375 19.652344 9.34375 19.746094 C 9.449219 19.746094 9.550781 19.746094 9.65625 19.746094 C 9.65625 19.839844 9.65625 19.933594 9.65625 20.027344 C 9.757812 20.027344 9.863281 20.027344 9.96875 20.027344 C 9.96875 20.121094 9.96875 20.210938 9.96875 20.308594 C 10.070312 20.308594 10.175781 20.308594 10.28125 20.308594 C 10.28125 20.398438 10.28125 20.492188 10.28125 20.589844 C 10.382812 20.589844 10.484375 20.589844 10.589844 20.589844 C 10.589844 20.679688 10.589844 20.773438 10.589844 20.867188 C 10.695312 20.867188 10.796875 20.867188 10.902344 20.867188 C 10.902344 20.960938 10.902344 21.054688 10.902344 21.148438 C 11.003906 21.148438 11.109375 21.148438 11.214844 21.148438 C 11.214844 21.238281 11.214844 21.332031 11.214844 21.429688 C 11.316406 21.429688 11.421875 21.429688 11.527344 21.429688 C 11.527344 21.519531 11.527344 21.613281 11.527344 21.710938 C 11.628906 21.710938 11.730469 21.710938 11.835938 21.710938 C 11.835938 21.800781 11.835938 21.894531 11.835938 21.988281 C 11.941406 21.988281 12.042969 21.988281 12.148438 21.988281 C 12.148438 22.082031 12.148438 22.175781 12.148438 22.269531 C 11.699219 22.082031 11.359375 21.878906 11 21.578125 C 10.902344 21.496094 10.804688 21.414062 10.703125 21.332031 C 10.601562 21.246094 10.503906 21.15625 10.394531 21.070312 C 10.292969 20.980469 10.1875 20.894531 10.082031 20.804688 C 9.324219 20.15625 8.609375 19.492188 7.945312 18.765625 C 7.816406 18.632812 7.6875 18.496094 7.554688 18.355469 C 7.320312 18.066406 7.320312 18.066406 7.320312 17.785156 Z M 7.320312 17.785156 "/>
<path style=" stroke:none;fill-rule:nonzero;fill:rgb(97.647059%,98.431373%,98.039216%);fill-opacity:1;" d="M 5.296875 19.1875 C 5.722656 19.535156 6 19.925781 6.308594 20.363281 C 7.425781 21.882812 8.726562 23.195312 10.28125 24.371094 C 9.972656 24.441406 9.972656 24.441406 9.65625 24.507812 C 9.65625 24.417969 9.65625 24.324219 9.65625 24.230469 C 9.554688 24.230469 9.453125 24.230469 9.34375 24.230469 C 9.34375 24.136719 9.34375 24.042969 9.34375 23.949219 C 9.242188 23.949219 9.140625 23.949219 9.035156 23.949219 C 9.035156 23.859375 9.035156 23.765625 9.035156 23.667969 C 8.929688 23.667969 8.828125 23.667969 8.722656 23.667969 C 8.722656 23.578125 8.722656 23.484375 8.722656 23.386719 C 8.621094 23.386719 8.515625 23.386719 8.410156 23.386719 C 8.410156 23.296875 8.410156 23.203125 8.410156 23.109375 C 8.308594 23.109375 8.207031 23.109375 8.097656 23.109375 C 8.097656 23.015625 8.097656 22.921875 8.097656 22.828125 C 7.996094 22.828125 7.894531 22.828125 7.789062 22.828125 C 7.789062 22.738281 7.789062 22.644531 7.789062 22.546875 C 7.683594 22.546875 7.582031 22.546875 7.476562 22.546875 C 7.476562 22.457031 7.476562 22.363281 7.476562 22.269531 C 7.371094 22.269531 7.269531 22.269531 7.164062 22.269531 C 7.164062 22.082031 7.164062 21.898438 7.164062 21.710938 C 7.0625 21.710938 6.960938 21.710938 6.851562 21.710938 C 6.851562 21.617188 6.851562 21.523438 6.851562 21.429688 C 6.75 21.429688 6.648438 21.429688 6.542969 21.429688 C 6.542969 21.335938 6.542969 21.246094 6.542969 21.148438 C 6.4375 21.148438 6.335938 21.148438 6.230469 21.148438 C 6.230469 20.964844 6.230469 20.78125 6.230469 20.589844 C 6.125 20.589844 6.023438 20.589844 5.917969 20.589844 C 5.917969 20.496094 5.917969 20.402344 5.917969 20.308594 C 5.816406 20.308594 5.714844 20.308594 5.605469 20.308594 C 5.605469 20.125 5.605469 19.9375 5.605469 19.746094 C 5.503906 19.746094 5.402344 19.746094 5.296875 19.746094 C 5.296875 19.5625 5.296875 19.378906 5.296875 19.1875 Z M 5.296875 19.1875 "/>
<path style=" stroke:none;fill-rule:nonzero;fill:rgb(97.254902%,98.039216%,98.039216%);fill-opacity:1;" d="M 19.46875 27.871094 C 19.523438 28.058594 19.574219 28.242188 19.625 28.429688 C 19.523438 28.429688 19.421875 28.429688 19.316406 28.429688 C 19.316406 28.523438 19.316406 28.617188 19.316406 28.710938 C 19.210938 28.710938 19.109375 28.710938 19.003906 28.710938 C 19.003906 28.894531 19.003906 29.082031 19.003906 29.269531 C 18.902344 29.269531 18.796875 29.269531 18.691406 29.269531 C 18.691406 29.363281 18.691406 29.457031 18.691406 29.550781 C 18.589844 29.550781 18.488281 29.550781 18.378906 29.550781 C 18.378906 29.644531 18.378906 29.738281 18.378906 29.832031 C 18.277344 29.832031 18.175781 29.832031 18.070312 29.832031 C 18.070312 29.925781 18.070312 30.015625 18.070312 30.113281 C 17.964844 30.113281 17.863281 30.113281 17.757812 30.113281 C 17.757812 30.207031 17.757812 30.296875 17.757812 30.390625 C 17.65625 30.390625 17.550781 30.390625 17.445312 30.390625 C 17.445312 30.484375 17.445312 30.578125 17.445312 30.671875 C 17.34375 30.671875 17.242188 30.671875 17.132812 30.671875 C 17.132812 30.765625 17.132812 30.855469 17.132812 30.953125 C 17.03125 30.953125 16.929688 30.953125 16.824219 30.953125 C 16.824219 31.042969 16.824219 31.136719 16.824219 31.234375 C 16.71875 31.234375 16.617188 31.234375 16.511719 31.234375 C 16.511719 31.324219 16.511719 31.417969 16.511719 31.511719 C 16.410156 31.511719 16.304688 31.511719 16.199219 31.511719 C 16.199219 31.605469 16.199219 31.699219 16.199219 31.792969 C 15.996094 31.746094 15.789062 31.699219 15.574219 31.652344 C 15.726562 31.53125 15.878906 31.410156 16.03125 31.289062 C 17.332031 30.230469 18.460938 29.160156 19.46875 27.871094 Z M 19.46875 27.871094 "/>
<path style=" stroke:none;fill-rule:nonzero;fill:rgb(98.431373%,98.431373%,98.431373%);fill-opacity:1;" d="M 41.902344 21.710938 C 41.953125 21.894531 42.003906 22.078125 42.054688 22.269531 C 41.953125 22.269531 41.851562 22.269531 41.742188 22.269531 C 41.742188 22.359375 41.742188 22.453125 41.742188 22.546875 C 41.640625 22.546875 41.539062 22.546875 41.433594 22.546875 C 41.433594 22.640625 41.433594 22.734375 41.433594 22.828125 C 41.328125 22.828125 41.226562 22.828125 41.121094 22.828125 C 41.121094 22.921875 41.121094 23.015625 41.121094 23.109375 C 41.019531 23.109375 40.914062 23.109375 40.808594 23.109375 C 40.808594 23.203125 40.808594 23.292969 40.808594 23.386719 C 40.707031 23.386719 40.605469 23.386719 40.496094 23.386719 C 40.496094 23.480469 40.496094 23.574219 40.496094 23.667969 C 40.394531 23.667969 40.292969 23.667969 40.1875 23.667969 C 40.1875 23.761719 40.1875 23.855469 40.1875 23.949219 C 39.980469 23.949219 39.777344 23.949219 39.5625 23.949219 C 39.5625 24.042969 39.5625 24.132812 39.5625 24.230469 C 39.460938 24.230469 39.359375 24.230469 39.25 24.230469 C 39.25 24.324219 39.25 24.414062 39.25 24.507812 C 39.046875 24.464844 38.839844 24.417969 38.628906 24.371094 C 38.71875 24.3125 38.804688 24.253906 38.898438 24.195312 C 39.652344 23.6875 40.273438 23.171875 40.875 22.519531 C 41.183594 22.207031 41.523438 21.953125 41.902344 21.710938 Z M 41.902344 21.710938 "/>
<path style=" stroke:none;fill-rule:nonzero;fill:rgb(96.862745%,98.039216%,97.647059%);fill-opacity:1;" d="M 22.894531 8.121094 C 22.949219 8.261719 23 8.402344 23.054688 8.542969 C 23.15625 8.542969 23.257812 8.542969 23.367188 8.542969 C 23.367188 10.300781 23.367188 12.054688 23.367188 13.863281 C 23.261719 13.863281 23.160156 13.863281 23.054688 13.863281 C 23.054688 12.199219 23.054688 10.539062 23.054688 8.824219 C 22.949219 8.824219 22.847656 8.824219 22.742188 8.824219 C 22.742188 9.101562 22.742188 9.378906 22.742188 9.664062 C 22.640625 9.664062 22.535156 9.664062 22.429688 9.664062 C 22.503906 9.09375 22.566406 8.621094 22.894531 8.121094 Z M 22.894531 8.121094 "/>
<path style=" stroke:none;fill-rule:nonzero;fill:rgb(96.862745%,98.039216%,97.647059%);fill-opacity:1;" d="M 22.742188 46.917969 C 23.28125 47.375 23.699219 47.832031 24.09375 48.394531 C 24.351562 48.652344 24.550781 48.6875 24.921875 48.738281 C 24.957031 48.667969 24.992188 48.59375 25.03125 48.519531 C 25.3125 48.050781 25.660156 47.628906 26.011719 47.199219 C 26.0625 47.382812 26.113281 47.570312 26.167969 47.757812 C 26.066406 47.757812 25.960938 47.757812 25.859375 47.757812 C 25.859375 47.851562 25.859375 47.945312 25.859375 48.039062 C 25.753906 48.039062 25.652344 48.039062 25.546875 48.039062 C 25.546875 48.222656 25.546875 48.410156 25.546875 48.597656 C 25.441406 48.597656 25.339844 48.597656 25.234375 48.597656 C 25.234375 48.691406 25.234375 48.785156 25.234375 48.878906 C 24.820312 48.878906 24.410156 48.878906 23.988281 48.878906 C 23.988281 48.789062 23.988281 48.695312 23.988281 48.597656 C 23.886719 48.597656 23.78125 48.597656 23.675781 48.597656 C 23.675781 48.507812 23.675781 48.414062 23.675781 48.320312 C 23.574219 48.320312 23.46875 48.320312 23.367188 48.320312 C 23.367188 48.132812 23.367188 47.949219 23.367188 47.757812 C 23.261719 47.757812 23.160156 47.757812 23.054688 47.757812 C 23.054688 47.667969 23.054688 47.574219 23.054688 47.480469 C 22.949219 47.480469 22.847656 47.480469 22.742188 47.480469 C 22.742188 47.292969 22.742188 47.109375 22.742188 46.917969 Z M 22.742188 46.917969 "/>
<path style=" stroke:none;fill-rule:nonzero;fill:rgb(96.470588%,97.254902%,96.862745%);fill-opacity:1;" d="M 39.25 25.910156 C 39.457031 25.910156 39.664062 25.910156 39.875 25.910156 C 39.875 26.003906 39.875 26.09375 39.875 26.191406 C 39.976562 26.191406 40.082031 26.191406 40.1875 26.191406 C 40.1875 26.28125 40.1875 26.375 40.1875 26.472656 C 40.289062 26.472656 40.390625 26.472656 40.496094 26.472656 C 40.496094 26.5625 40.496094 26.65625 40.496094 26.75 C 40.601562 26.75 40.703125 26.75 40.808594 26.75 C 40.808594 26.84375 40.808594 26.9375 40.808594 27.03125 C 40.914062 27.03125 41.015625 27.03125 41.121094 27.03125 C 41.121094 27.121094 41.121094 27.214844 41.121094 27.3125 C 41.222656 27.3125 41.328125 27.3125 41.433594 27.3125 C 41.433594 27.402344 41.433594 27.496094 41.433594 27.589844 C 41.535156 27.589844 41.636719 27.589844 41.742188 27.589844 C 41.742188 27.683594 41.742188 27.777344 41.742188 27.871094 C 41.847656 27.871094 41.949219 27.871094 42.054688 27.871094 C 42.054688 27.964844 42.054688 28.058594 42.054688 28.152344 C 42.160156 28.152344 42.261719 28.152344 42.367188 28.152344 C 42.367188 28.242188 42.367188 28.335938 42.367188 28.429688 C 42.46875 28.429688 42.574219 28.429688 42.679688 28.429688 C 42.628906 28.617188 42.574219 28.800781 42.523438 28.992188 C 42.402344 28.871094 42.285156 28.753906 42.164062 28.632812 C 41.3125 27.789062 40.464844 26.980469 39.492188 26.246094 C 39.414062 26.179688 39.335938 26.117188 39.25 26.050781 C 39.25 26.003906 39.25 25.957031 39.25 25.910156 Z M 39.25 25.910156 "/>
<path style=" stroke:none;fill-rule:nonzero;fill:rgb(96.078432%,97.647059%,97.254902%);fill-opacity:1;" d="M 25.386719 1.261719 C 25.542969 1.261719 25.699219 1.261719 25.859375 1.261719 C 25.859375 1.351562 25.859375 1.445312 25.859375 1.542969 C 25.960938 1.542969 26.0625 1.542969 26.167969 1.542969 C 26.167969 1.632812 26.167969 1.726562 26.167969 1.820312 C 26.273438 1.820312 26.375 1.820312 26.480469 1.820312 C 26.480469 2.007812 26.480469 2.191406 26.480469 2.382812 C 26.582031 2.382812 26.6875 2.382812 26.792969 2.382812 C 26.792969 2.472656 26.792969 2.566406 26.792969 2.660156 C 26.894531 2.660156 26.996094 2.660156 27.105469 2.660156 C 27.105469 2.847656 27.105469 3.03125 27.105469 3.21875 C 27.207031 3.21875 27.308594 3.21875 27.414062 3.21875 C 27.414062 3.3125 27.414062 3.40625 27.414062 3.5 C 27.519531 3.5 27.621094 3.5 27.726562 3.5 C 27.726562 3.683594 27.726562 3.871094 27.726562 4.0625 C 27.828125 4.0625 27.933594 4.0625 28.039062 4.0625 C 27.988281 4.246094 27.933594 4.429688 27.878906 4.621094 C 27.050781 3.5 26.222656 2.382812 25.386719 1.261719 Z M 25.386719 1.261719 "/>
<path style=" stroke:none;fill-rule:nonzero;fill:rgb(94.509804%,96.862745%,96.078432%);fill-opacity:1;" d="M 44.546875 31.511719 C 44.648438 31.511719 44.753906 31.511719 44.859375 31.511719 C 44.859375 31.605469 44.859375 31.699219 44.859375 31.792969 C 44.960938 31.792969 45.066406 31.792969 45.171875 31.792969 C 45.171875 31.976562 45.171875 32.164062 45.171875 32.355469 C 45.273438 32.355469 45.375 32.355469 45.480469 32.355469 C 45.480469 32.539062 45.480469 32.722656 45.480469 32.914062 C 45.585938 32.914062 45.6875 32.914062 45.792969 32.914062 C 45.792969 33.097656 45.792969 33.285156 45.792969 33.472656 C 45.894531 33.472656 46 33.472656 46.105469 33.472656 C 46.105469 33.65625 46.105469 33.84375 46.105469 34.035156 C 46.207031 34.035156 46.3125 34.035156 46.417969 34.035156 C 46.417969 34.21875 46.417969 34.402344 46.417969 34.59375 C 46.519531 34.59375 46.621094 34.59375 46.730469 34.59375 C 46.730469 34.824219 46.730469 35.054688 46.730469 35.292969 C 46.175781 34.660156 45.789062 33.957031 45.375 33.246094 C 45.296875 33.109375 45.21875 32.976562 45.132812 32.835938 C 45.058594 32.707031 44.984375 32.578125 44.90625 32.441406 C 44.835938 32.328125 44.769531 32.207031 44.699219 32.085938 C 44.546875 31.792969 44.546875 31.792969 44.546875 31.511719 Z M 44.546875 31.511719 "/>
<path style=" stroke:none;fill-rule:nonzero;fill:rgb(96.862745%,98.039216%,97.647059%);fill-opacity:1;" d="M 9.035156 26.191406 C 9.238281 26.238281 9.445312 26.28125 9.65625 26.332031 C 9.53125 26.433594 9.40625 26.53125 9.273438 26.640625 C 9.109375 26.773438 8.941406 26.910156 8.773438 27.046875 C 8.6875 27.113281 8.605469 27.179688 8.523438 27.25 C 7.964844 27.703125 7.480469 28.183594 7.011719 28.710938 C 6.957031 28.527344 6.90625 28.339844 6.851562 28.152344 C 6.957031 28.152344 7.058594 28.152344 7.164062 28.152344 C 7.164062 28.058594 7.164062 27.964844 7.164062 27.871094 C 7.265625 27.871094 7.371094 27.871094 7.476562 27.871094 C 7.476562 27.777344 7.476562 27.683594 7.476562 27.589844 C 7.578125 27.589844 7.683594 27.589844 7.789062 27.589844 C 7.789062 27.5 7.789062 27.40625 7.789062 27.3125 C 7.890625 27.3125 7.992188 27.3125 8.097656 27.3125 C 8.097656 27.21875 8.097656 27.125 8.097656 27.03125 C 8.203125 27.03125 8.304688 27.03125 8.410156 27.03125 C 8.410156 26.9375 8.410156 26.847656 8.410156 26.75 C 8.511719 26.75 8.617188 26.75 8.722656 26.75 C 8.722656 26.65625 8.722656 26.566406 8.722656 26.472656 C 8.824219 26.472656 8.929688 26.472656 9.035156 26.472656 C 9.035156 26.378906 9.035156 26.285156 9.035156 26.191406 Z M 9.035156 26.191406 "/>
<path style=" stroke:none;fill-rule:nonzero;fill:rgb(96.470588%,97.647059%,97.254902%);fill-opacity:1;" d="M 16.824219 24.789062 C 17.128906 24.789062 17.441406 24.789062 17.757812 24.789062 C 17.757812 24.882812 17.757812 24.972656 17.757812 25.070312 C 17.960938 25.070312 18.167969 25.070312 18.378906 25.070312 C 18.378906 25.164062 18.378906 25.253906 18.378906 25.351562 C 18.484375 25.351562 18.585938 25.351562 18.691406 25.351562 C 18.691406 25.441406 18.691406 25.535156 18.691406 25.628906 C 18.792969 25.628906 18.894531 25.628906 19.003906 25.628906 C 19.003906 25.722656 19.003906 25.816406 19.003906 25.910156 C 19.105469 25.910156 19.207031 25.910156 19.316406 25.910156 C 19.316406 26.003906 19.316406 26.09375 19.316406 26.191406 C 19.417969 26.191406 19.519531 26.191406 19.625 26.191406 C 19.625 26.28125 19.625 26.375 19.625 26.472656 C 19.730469 26.472656 19.832031 26.472656 19.9375 26.472656 C 19.886719 26.65625 19.835938 26.839844 19.78125 27.03125 C 19.71875 26.960938 19.65625 26.890625 19.59375 26.816406 C 18.910156 26.074219 18.199219 25.570312 17.289062 25.070312 C 17.136719 24.976562 16.980469 24.886719 16.824219 24.789062 Z M 16.824219 24.789062 "/>
<path style=" stroke:none;fill-rule:nonzero;fill:rgb(82.745099%,93.333334%,90.196079%);fill-opacity:1;" d="M 26.324219 40.335938 C 26.375 40.335938 26.425781 40.335938 26.480469 40.335938 C 26.480469 40.753906 26.480469 41.167969 26.480469 41.597656 C 26.582031 41.597656 26.6875 41.597656 26.792969 41.597656 C 26.472656 42.5 26.101562 43.378906 25.699219 44.257812 C 25.503906 43.730469 25.679688 43.496094 25.882812 42.992188 C 26.152344 42.128906 26.222656 41.226562 26.324219 40.335938 Z M 26.324219 40.335938 "/>
<path style=" stroke:none;fill-rule:nonzero;fill:rgb(97.254902%,98.039216%,98.039216%);fill-opacity:1;" d="M 15.574219 31.792969 C 15.574219 31.886719 15.574219 31.976562 15.574219 32.074219 C 15.472656 32.074219 15.371094 32.074219 15.265625 32.074219 C 15.265625 32.164062 15.265625 32.257812 15.265625 32.355469 C 15.164062 32.355469 15.058594 32.355469 14.953125 32.355469 C 14.953125 32.445312 14.953125 32.539062 14.953125 32.632812 C 14.75 32.632812 14.542969 32.632812 14.328125 32.632812 C 14.328125 32.726562 14.328125 32.820312 14.328125 32.914062 C 14.226562 32.914062 14.125 32.914062 14.019531 32.914062 C 14.019531 33.003906 14.019531 33.097656 14.019531 33.191406 C 13.8125 33.191406 13.609375 33.191406 13.394531 33.191406 C 13.394531 33.285156 13.394531 33.378906 13.394531 33.472656 C 13.191406 33.429688 12.984375 33.382812 12.773438 33.332031 C 12.902344 33.257812 13.027344 33.183594 13.160156 33.101562 C 13.328125 33.003906 13.496094 32.902344 13.667969 32.800781 C 13.835938 32.699219 14 32.601562 14.171875 32.5 C 14.449219 32.328125 14.726562 32.152344 14.996094 31.964844 C 15.265625 31.792969 15.265625 31.792969 15.574219 31.792969 Z M 15.574219 31.792969 "/>
<path style=" stroke:none;fill-rule:nonzero;fill:rgb(96.078432%,97.647059%,97.254902%);fill-opacity:1;" d="M 34.578125 26.472656 C 35.269531 26.683594 35.828125 27.019531 36.417969 27.398438 C 36.511719 27.457031 36.605469 27.515625 36.703125 27.578125 C 36.929688 27.722656 37.15625 27.867188 37.382812 28.011719 C 37.175781 28.058594 36.972656 28.105469 36.757812 28.152344 C 36.757812 28.058594 36.757812 27.964844 36.757812 27.871094 C 36.65625 27.871094 36.554688 27.871094 36.449219 27.871094 C 36.449219 27.777344 36.449219 27.683594 36.449219 27.589844 C 36.242188 27.589844 36.039062 27.589844 35.824219 27.589844 C 35.824219 27.5 35.824219 27.40625 35.824219 27.3125 C 35.722656 27.3125 35.617188 27.3125 35.515625 27.3125 C 35.515625 27.21875 35.515625 27.125 35.515625 27.03125 C 35.308594 27.03125 35.101562 27.03125 34.890625 27.03125 C 34.890625 26.9375 34.890625 26.847656 34.890625 26.75 C 34.789062 26.75 34.683594 26.75 34.578125 26.75 C 34.578125 26.65625 34.578125 26.566406 34.578125 26.472656 Z M 34.578125 26.472656 "/>
<path style=" stroke:none;fill-rule:nonzero;fill:rgb(74.117649%,90.196079%,85.490197%);fill-opacity:1;" d="M 23.988281 5.601562 C 24.164062 6.082031 24.121094 6.164062 23.929688 6.617188 C 23.707031 7.171875 23.589844 7.679688 23.519531 8.261719 C 23.46875 8.171875 23.417969 8.078125 23.367188 7.980469 C 23.261719 7.980469 23.160156 7.980469 23.054688 7.980469 C 23.132812 7.109375 23.570312 6.378906 23.988281 5.601562 Z M 23.988281 5.601562 "/>
<path style=" stroke:none;fill-rule:nonzero;fill:rgb(83.529413%,93.725491%,90.588236%);fill-opacity:1;" d="M 41.277344 22.128906 C 41.277344 22.546875 41.277344 22.546875 41.039062 22.773438 C 40.9375 22.847656 40.835938 22.917969 40.730469 22.996094 C 40.632812 23.070312 40.53125 23.144531 40.425781 23.222656 C 40.347656 23.277344 40.269531 23.332031 40.1875 23.386719 C 40.457031 22.863281 40.808594 22.527344 41.277344 22.128906 Z M 39.5625 23.667969 C 39.667969 23.714844 39.769531 23.761719 39.875 23.808594 C 39.71875 24.015625 39.71875 24.015625 39.5625 24.230469 C 39.460938 24.230469 39.359375 24.230469 39.25 24.230469 C 39.25 24.324219 39.25 24.414062 39.25 24.507812 C 39.046875 24.464844 38.839844 24.417969 38.628906 24.371094 C 38.9375 24.136719 39.246094 23.90625 39.5625 23.667969 Z M 39.5625 23.667969 "/>
<path style=" stroke:none;fill-rule:nonzero;fill:rgb(96.078432%,97.647059%,97.254902%);fill-opacity:1;" d="M 21.183594 44.675781 C 21.617188 45.03125 21.910156 45.433594 22.226562 45.878906 C 22.324219 46.011719 22.417969 46.148438 22.519531 46.289062 C 22.742188 46.640625 22.742188 46.640625 22.742188 46.917969 C 22.640625 46.917969 22.535156 46.917969 22.429688 46.917969 C 22.429688 46.824219 22.429688 46.734375 22.429688 46.640625 C 22.328125 46.640625 22.226562 46.640625 22.121094 46.640625 C 22.121094 46.453125 22.121094 46.269531 22.121094 46.078125 C 22.015625 46.078125 21.914062 46.078125 21.808594 46.078125 C 21.808594 45.984375 21.808594 45.894531 21.808594 45.796875 C 21.703125 45.796875 21.601562 45.796875 21.496094 45.796875 C 21.496094 45.613281 21.496094 45.429688 21.496094 45.238281 C 21.394531 45.238281 21.289062 45.238281 21.183594 45.238281 C 21.183594 45.054688 21.183594 44.867188 21.183594 44.675781 Z M 21.183594 44.675781 "/>
<path style=" stroke:none;fill-rule:nonzero;fill:rgb(95.294118%,97.254902%,96.862745%);fill-opacity:1;" d="M 38.628906 24.507812 C 38.628906 24.601562 38.628906 24.695312 38.628906 24.789062 C 38.527344 24.789062 38.421875 24.789062 38.316406 24.789062 C 38.316406 24.972656 38.316406 25.160156 38.316406 25.351562 C 38.523438 25.351562 38.730469 25.351562 38.941406 25.351562 C 38.941406 25.441406 38.941406 25.535156 38.941406 25.628906 C 39.042969 25.628906 39.148438 25.628906 39.25 25.628906 C 39.25 25.722656 39.25 25.816406 39.25 25.910156 C 38.613281 25.707031 38.09375 25.417969 37.539062 25.070312 C 37.765625 24.660156 38.121094 24.507812 38.628906 24.507812 Z M 38.628906 24.507812 "/>
<path style=" stroke:none;fill-rule:nonzero;fill:rgb(96.078432%,97.647059%,97.254902%);fill-opacity:1;" d="M 12.148438 22.269531 C 12.355469 22.269531 12.5625 22.269531 12.773438 22.269531 C 12.773438 22.359375 12.773438 22.453125 12.773438 22.546875 C 12.875 22.546875 12.976562 22.546875 13.082031 22.546875 C 13.082031 22.640625 13.082031 22.734375 13.082031 22.828125 C 13.289062 22.828125 13.496094 22.828125 13.707031 22.828125 C 13.707031 22.921875 13.707031 23.015625 13.707031 23.109375 C 13.808594 23.109375 13.910156 23.109375 14.019531 23.109375 C 14.019531 23.203125 14.019531 23.292969 14.019531 23.386719 C 14.121094 23.386719 14.222656 23.386719 14.328125 23.386719 C 14.328125 23.480469 14.328125 23.574219 14.328125 23.667969 C 13.738281 23.480469 13.292969 23.242188 12.800781 22.890625 C 12.679688 22.800781 12.554688 22.714844 12.429688 22.625 C 12.289062 22.519531 12.289062 22.519531 12.148438 22.410156 C 12.148438 22.363281 12.148438 22.316406 12.148438 22.269531 Z M 12.148438 22.269531 "/>
<path style=" stroke:none;fill-rule:nonzero;fill:rgb(85.882354%,92.941177%,90.588236%);fill-opacity:1;" d="M 30.996094 35.292969 C 31.382812 35.433594 31.382812 35.433594 31.777344 35.574219 C 31.570312 35.621094 31.363281 35.664062 31.152344 35.714844 C 31.152344 36.546875 31.152344 37.378906 31.152344 38.234375 C 31.050781 38.234375 30.945312 38.234375 30.839844 38.234375 C 30.894531 37.265625 30.945312 36.292969 30.996094 35.292969 Z M 30.996094 35.292969 "/>
<path style=" stroke:none;fill-rule:nonzero;fill:rgb(82.352942%,93.333334%,89.803922%);fill-opacity:1;" d="M 31.464844 12.746094 C 31.566406 12.746094 31.671875 12.746094 31.777344 12.746094 C 31.777344 13.207031 31.777344 13.667969 31.777344 14.144531 C 31.929688 14.191406 32.085938 14.238281 32.242188 14.285156 C 31.988281 14.378906 31.730469 14.46875 31.464844 14.566406 C 31.464844 13.964844 31.464844 13.363281 31.464844 12.746094 Z M 31.464844 12.746094 "/>
<path style=" stroke:none;fill-rule:nonzero;fill:rgb(96.862745%,98.039216%,97.647059%);fill-opacity:1;" d="M 32.710938 16.949219 C 32.710938 17.039062 32.710938 17.132812 32.710938 17.226562 C 32.605469 17.226562 32.503906 17.226562 32.398438 17.226562 C 32.398438 17.320312 32.398438 17.414062 32.398438 17.507812 C 32.191406 17.507812 31.988281 17.507812 31.777344 17.507812 C 31.777344 17.597656 31.777344 17.691406 31.777344 17.785156 C 31.570312 17.785156 31.363281 17.785156 31.152344 17.785156 C 31.152344 17.878906 31.152344 17.972656 31.152344 18.066406 C 30.945312 18.023438 30.742188 17.976562 30.53125 17.925781 C 30.832031 17.761719 31.140625 17.597656 31.445312 17.4375 C 31.613281 17.347656 31.785156 17.253906 31.960938 17.160156 C 32.398438 16.949219 32.398438 16.949219 32.710938 16.949219 Z M 32.710938 16.949219 "/>
<path style=" stroke:none;fill-rule:nonzero;fill:rgb(90.588236%,96.078432%,94.509804%);fill-opacity:1;" d="M 22.894531 8.121094 C 22.949219 8.261719 23 8.402344 23.054688 8.542969 C 23.15625 8.542969 23.257812 8.542969 23.367188 8.542969 C 23.367188 8.820312 23.367188 9.097656 23.367188 9.382812 C 23.160156 9.199219 22.953125 9.015625 22.742188 8.824219 C 22.742188 9.101562 22.742188 9.378906 22.742188 9.664062 C 22.640625 9.664062 22.535156 9.664062 22.429688 9.664062 C 22.503906 9.09375 22.566406 8.621094 22.894531 8.121094 Z M 22.894531 8.121094 "/>
<path style=" stroke:none;fill-rule:nonzero;fill:rgb(97.254902%,98.039216%,97.647059%);fill-opacity:1;" d="M 21.808594 4.621094 C 21.910156 4.621094 22.011719 4.621094 22.121094 4.621094 C 21.84375 5.316406 21.433594 5.941406 21.027344 6.582031 C 20.976562 6.398438 20.925781 6.214844 20.871094 6.023438 C 20.976562 6.023438 21.078125 6.023438 21.183594 6.023438 C 21.183594 5.839844 21.183594 5.652344 21.183594 5.460938 C 21.285156 5.460938 21.390625 5.460938 21.496094 5.460938 C 21.496094 5.277344 21.496094 5.09375 21.496094 4.902344 C 21.597656 4.902344 21.699219 4.902344 21.808594 4.902344 C 21.808594 4.808594 21.808594 4.71875 21.808594 4.621094 Z M 21.808594 4.621094 "/>
<path style=" stroke:none;fill-rule:nonzero;fill:rgb(90.196079%,92.156863%,91.764706%);fill-opacity:1;" d="M 43.300781 29.832031 C 43.402344 29.832031 43.507812 29.832031 43.613281 29.832031 C 43.613281 29.925781 43.613281 30.015625 43.613281 30.113281 C 43.714844 30.113281 43.820312 30.113281 43.925781 30.113281 C 43.925781 30.207031 43.925781 30.296875 43.925781 30.390625 C 44.027344 30.390625 44.128906 30.390625 44.234375 30.390625 C 44.234375 30.578125 44.234375 30.761719 44.234375 30.953125 C 44.339844 30.953125 44.441406 30.953125 44.546875 30.953125 C 44.496094 31.136719 44.445312 31.320312 44.394531 31.511719 C 44.210938 31.285156 44.027344 31.058594 43.847656 30.828125 C 43.746094 30.703125 43.644531 30.578125 43.539062 30.445312 C 43.300781 30.113281 43.300781 30.113281 43.300781 29.832031 Z M 43.300781 29.832031 "/>
<path style=" stroke:none;fill-rule:nonzero;fill:rgb(96.470588%,97.647059%,97.254902%);fill-opacity:1;" d="M 23.675781 2.101562 C 23.777344 2.101562 23.882812 2.101562 23.988281 2.101562 C 23.746094 2.753906 23.351562 3.234375 22.894531 3.78125 C 22.84375 3.597656 22.792969 3.410156 22.742188 3.21875 C 22.84375 3.21875 22.945312 3.21875 23.054688 3.21875 C 23.054688 3.035156 23.054688 2.851562 23.054688 2.660156 C 23.15625 2.660156 23.257812 2.660156 23.367188 2.660156 C 23.367188 2.570312 23.367188 2.476562 23.367188 2.382812 C 23.46875 2.382812 23.570312 2.382812 23.675781 2.382812 C 23.675781 2.289062 23.675781 2.195312 23.675781 2.101562 Z M 23.675781 2.101562 "/>
<path style=" stroke:none;fill-rule:nonzero;fill:rgb(89.019608%,93.333334%,92.156863%);fill-opacity:1;" d="M 36.449219 29.269531 C 36.757812 29.269531 37.066406 29.269531 37.382812 29.269531 C 37.382812 29.363281 37.382812 29.457031 37.382812 29.550781 C 37.589844 29.550781 37.796875 29.550781 38.003906 29.550781 C 38.003906 29.644531 38.003906 29.738281 38.003906 29.832031 C 38.109375 29.832031 38.210938 29.832031 38.316406 29.832031 C 38.316406 29.925781 38.316406 30.015625 38.316406 30.113281 C 37.660156 29.929688 37.058594 29.699219 36.449219 29.410156 C 36.449219 29.363281 36.449219 29.320312 36.449219 29.269531 Z M 36.449219 29.269531 "/>
<path style=" stroke:none;fill-rule:nonzero;fill:rgb(92.54902%,94.509804%,94.117647%);fill-opacity:1;" d="M 37.382812 28.152344 C 37.851562 28.339844 38.207031 28.566406 38.589844 28.867188 C 38.734375 28.984375 38.734375 28.984375 38.878906 29.097656 C 38.953125 29.15625 39.023438 29.210938 39.097656 29.269531 C 39.046875 29.363281 38.996094 29.457031 38.941406 29.550781 C 38.835938 29.550781 38.734375 29.550781 38.628906 29.550781 C 38.628906 29.460938 38.628906 29.367188 38.628906 29.269531 C 38.527344 29.269531 38.421875 29.269531 38.316406 29.269531 C 38.316406 29.179688 38.316406 29.085938 38.316406 28.992188 C 38.214844 28.992188 38.113281 28.992188 38.003906 28.992188 C 38.003906 28.898438 38.003906 28.804688 38.003906 28.710938 C 37.902344 28.710938 37.800781 28.710938 37.695312 28.710938 C 37.695312 28.621094 37.695312 28.527344 37.695312 28.429688 C 37.589844 28.429688 37.488281 28.429688 37.382812 28.429688 C 37.382812 28.339844 37.382812 28.246094 37.382812 28.152344 Z M 37.382812 28.152344 "/>
<path style=" stroke:none;fill-rule:nonzero;fill:rgb(95.294118%,97.254902%,96.862745%);fill-opacity:1;" d="M 39.5625 14.984375 C 39.5625 15.078125 39.5625 15.171875 39.5625 15.265625 C 39.667969 15.3125 39.769531 15.359375 39.875 15.40625 C 39.105469 15.613281 39.105469 15.613281 38.316406 15.828125 C 38.316406 15.734375 38.316406 15.640625 38.316406 15.546875 C 38.523438 15.546875 38.730469 15.546875 38.941406 15.546875 C 38.941406 15.453125 38.941406 15.363281 38.941406 15.265625 C 38.785156 15.21875 38.632812 15.171875 38.472656 15.125 C 39.214844 14.984375 39.214844 14.984375 39.5625 14.984375 Z M 39.5625 14.984375 "/>
<path style=" stroke:none;fill-rule:nonzero;fill:rgb(98.039216%,98.431373%,98.039216%);fill-opacity:1;" d="M 27.257812 45.519531 C 27.308594 45.703125 27.359375 45.886719 27.414062 46.078125 C 27.3125 46.078125 27.207031 46.078125 27.105469 46.078125 C 27.105469 46.261719 27.105469 46.449219 27.105469 46.640625 C 27 46.640625 26.898438 46.640625 26.792969 46.640625 C 26.792969 46.730469 26.792969 46.824219 26.792969 46.917969 C 26.6875 46.917969 26.585938 46.917969 26.480469 46.917969 C 26.480469 47.011719 26.480469 47.105469 26.480469 47.199219 C 26.378906 47.199219 26.273438 47.199219 26.167969 47.199219 C 26.382812 46.796875 26.625 46.421875 26.890625 46.042969 C 26.957031 45.945312 27.027344 45.84375 27.097656 45.742188 C 27.152344 45.667969 27.203125 45.59375 27.257812 45.519531 Z M 27.257812 45.519531 "/>
<path style=" stroke:none;fill-rule:nonzero;fill:rgb(88.235295%,94.901961%,92.941177%);fill-opacity:1;" d="M 9.34375 34.875 C 9.394531 35.011719 9.449219 35.152344 9.503906 35.292969 C 8.78125 35.339844 8.0625 35.386719 7.320312 35.433594 C 7.957031 35.148438 8.621094 34.875 9.34375 34.875 Z M 9.34375 34.875 "/>
<path style=" stroke:none;fill-rule:nonzero;fill:rgb(95.294118%,97.647059%,96.862745%);fill-opacity:1;" d="M 10.28125 24.507812 C 10.804688 24.675781 11.160156 24.828125 11.527344 25.210938 C 10.941406 25.628906 10.941406 25.628906 10.589844 25.628906 C 10.589844 25.535156 10.589844 25.445312 10.589844 25.351562 C 10.695312 25.351562 10.796875 25.351562 10.902344 25.351562 C 10.902344 25.257812 10.902344 25.164062 10.902344 25.070312 C 10.800781 25.070312 10.699219 25.070312 10.589844 25.070312 C 10.589844 24.976562 10.589844 24.886719 10.589844 24.789062 C 10.488281 24.789062 10.386719 24.789062 10.28125 24.789062 C 10.28125 24.699219 10.28125 24.605469 10.28125 24.507812 Z M 10.28125 24.507812 "/>
<path style=" stroke:none;fill-rule:nonzero;fill:rgb(98.039216%,98.431373%,98.431373%);fill-opacity:1;" d="M 30.53125 18.066406 C 30.53125 18.160156 30.53125 18.25 30.53125 18.347656 C 30.425781 18.347656 30.324219 18.347656 30.21875 18.347656 C 30.21875 18.441406 30.21875 18.53125 30.21875 18.625 C 30.113281 18.625 30.011719 18.625 29.90625 18.625 C 29.90625 18.71875 29.90625 18.8125 29.90625 18.90625 C 29.804688 18.90625 29.699219 18.90625 29.59375 18.90625 C 29.59375 19 29.59375 19.089844 29.59375 19.1875 C 29.390625 19.140625 29.183594 19.097656 28.972656 19.046875 C 29.171875 18.882812 29.375 18.71875 29.574219 18.558594 C 29.742188 18.421875 29.742188 18.421875 29.914062 18.28125 C 30.21875 18.066406 30.21875 18.066406 30.53125 18.066406 Z M 30.53125 18.066406 "/>
<path style=" stroke:none;fill-rule:nonzero;fill:rgb(94.901961%,97.254902%,96.862745%);fill-opacity:1;" d="M 45.015625 17.507812 C 45.066406 17.691406 45.121094 17.878906 45.171875 18.066406 C 45.066406 18.066406 44.964844 18.066406 44.859375 18.066406 C 44.859375 18.25 44.859375 18.4375 44.859375 18.625 C 44.757812 18.625 44.65625 18.625 44.546875 18.625 C 44.546875 18.71875 44.546875 18.8125 44.546875 18.90625 C 44.445312 18.90625 44.34375 18.90625 44.234375 18.90625 C 44.445312 18.402344 44.695312 17.960938 45.015625 17.507812 Z M 45.015625 17.507812 "/>
<path style=" stroke:none;fill-rule:nonzero;fill:rgb(93.725491%,96.862745%,96.078432%);fill-opacity:1;" d="M 28.191406 44.117188 C 28.242188 44.300781 28.296875 44.488281 28.347656 44.675781 C 28.246094 44.675781 28.144531 44.675781 28.039062 44.675781 C 28.039062 44.863281 28.039062 45.046875 28.039062 45.238281 C 27.933594 45.238281 27.832031 45.238281 27.726562 45.238281 C 27.726562 45.328125 27.726562 45.421875 27.726562 45.519531 C 27.625 45.519531 27.519531 45.519531 27.414062 45.519531 C 27.621094 45.015625 27.875 44.570312 28.191406 44.117188 Z M 28.191406 44.117188 "/>
<path style=" stroke:none;fill-rule:nonzero;fill:rgb(96.078432%,97.647059%,97.254902%);fill-opacity:1;" d="M 18.070312 32.074219 C 18.273438 32.117188 18.480469 32.164062 18.691406 32.214844 C 18.492188 32.332031 18.289062 32.449219 18.085938 32.5625 C 17.976562 32.628906 17.863281 32.695312 17.746094 32.757812 C 17.445312 32.914062 17.445312 32.914062 17.132812 32.914062 C 17.132812 32.820312 17.132812 32.726562 17.132812 32.632812 C 17.238281 32.632812 17.339844 32.632812 17.445312 32.632812 C 17.445312 32.539062 17.445312 32.449219 17.445312 32.355469 C 17.648438 32.355469 17.855469 32.355469 18.070312 32.355469 C 18.070312 32.261719 18.070312 32.167969 18.070312 32.074219 Z M 18.070312 32.074219 "/>
<path style=" stroke:none;fill-rule:nonzero;fill:rgb(96.862745%,98.039216%,97.647059%);fill-opacity:1;" d="M 9.65625 19.46875 C 10.28125 19.660156 10.714844 19.925781 11.214844 20.308594 C 11.007812 20.308594 10.804688 20.308594 10.589844 20.308594 C 10.589844 20.214844 10.589844 20.125 10.589844 20.027344 C 10.386719 20.027344 10.183594 20.027344 9.96875 20.027344 C 9.96875 19.933594 9.96875 19.84375 9.96875 19.746094 C 9.867188 19.746094 9.761719 19.746094 9.65625 19.746094 C 9.65625 19.65625 9.65625 19.5625 9.65625 19.46875 Z M 9.65625 19.46875 "/>
<path style=" stroke:none;fill-rule:nonzero;fill:rgb(95.686275%,97.647059%,96.862745%);fill-opacity:1;" d="M 35.824219 16.667969 C 36.03125 16.710938 36.238281 16.757812 36.449219 16.808594 C 36.246094 16.925781 36.046875 17.042969 35.84375 17.15625 C 35.734375 17.222656 35.621094 17.289062 35.507812 17.351562 C 35.203125 17.507812 35.203125 17.507812 34.890625 17.507812 C 34.890625 17.414062 34.890625 17.320312 34.890625 17.226562 C 34.992188 17.226562 35.097656 17.226562 35.203125 17.226562 C 35.203125 17.132812 35.203125 17.042969 35.203125 16.949219 C 35.410156 16.949219 35.613281 16.949219 35.824219 16.949219 C 35.824219 16.855469 35.824219 16.761719 35.824219 16.667969 Z M 35.824219 16.667969 "/>
<path style=" stroke:none;fill-rule:nonzero;fill:rgb(90.196079%,95.686275%,94.117647%);fill-opacity:1;" d="M 30.375 39.496094 C 30.425781 39.496094 30.476562 39.496094 30.53125 39.496094 C 30.53125 39.816406 30.53125 40.144531 30.53125 40.476562 C 30.425781 40.476562 30.324219 40.476562 30.21875 40.476562 C 30.21875 40.660156 30.21875 40.847656 30.21875 41.035156 C 30.113281 41.035156 30.011719 41.035156 29.90625 41.035156 C 29.992188 40.484375 30.121094 40.007812 30.375 39.496094 Z M 30.375 39.496094 "/>
<path style=" stroke:none;fill-rule:nonzero;fill:rgb(94.509804%,96.862745%,96.078432%);fill-opacity:1;" d="M 10.28125 34.59375 C 10.28125 34.6875 10.28125 34.777344 10.28125 34.875 C 10.539062 34.875 10.796875 34.875 11.058594 34.875 C 10.648438 35.078125 10.453125 35.152344 9.96875 35.152344 C 9.96875 35.0625 9.96875 34.96875 9.96875 34.875 C 9.761719 34.828125 9.558594 34.78125 9.34375 34.734375 C 9.8125 34.59375 9.8125 34.59375 10.28125 34.59375 Z M 10.28125 34.59375 "/>
<path style=" stroke:none;fill-rule:nonzero;fill:rgb(96.470588%,98.039216%,97.647059%);fill-opacity:1;" d="M 6.542969 28.710938 C 6.644531 28.710938 6.746094 28.710938 6.851562 28.710938 C 6.628906 29.183594 6.335938 29.484375 5.917969 29.832031 C 5.917969 29.648438 5.917969 29.460938 5.917969 29.269531 C 6.023438 29.269531 6.125 29.269531 6.230469 29.269531 C 6.230469 29.179688 6.230469 29.085938 6.230469 28.992188 C 6.332031 28.992188 6.4375 28.992188 6.542969 28.992188 C 6.542969 28.898438 6.542969 28.804688 6.542969 28.710938 Z M 6.542969 28.710938 "/>
<path style=" stroke:none;fill-rule:nonzero;fill:rgb(92.54902%,96.470588%,95.294118%);fill-opacity:1;" d="M 46.886719 13.863281 C 46.9375 13.863281 46.988281 13.863281 47.039062 13.863281 C 47.039062 14.144531 47.039062 14.417969 47.039062 14.707031 C 46.9375 14.707031 46.835938 14.707031 46.730469 14.707031 C 46.730469 14.890625 46.730469 15.074219 46.730469 15.265625 C 46.625 15.265625 46.523438 15.265625 46.417969 15.265625 C 46.496094 14.746094 46.589844 14.324219 46.886719 13.863281 Z M 46.886719 13.863281 "/>
<path style=" stroke:none;fill-rule:nonzero;fill:rgb(96.078432%,97.647059%,97.254902%);fill-opacity:1;" d="M 24.300781 17.925781 C 24.609375 18.34375 24.757812 18.710938 24.921875 19.1875 C 24.820312 19.1875 24.714844 19.1875 24.613281 19.1875 C 24.613281 19.097656 24.613281 19.003906 24.613281 18.90625 C 24.507812 18.90625 24.40625 18.90625 24.300781 18.90625 C 24.300781 18.585938 24.300781 18.257812 24.300781 17.925781 Z M 24.300781 17.925781 "/>
<path style=" stroke:none;fill-rule:nonzero;fill:rgb(92.156863%,96.470588%,95.294118%);fill-opacity:1;" d="M 41.433594 14.847656 C 40.925781 15.109375 40.457031 15.195312 39.875 15.265625 C 39.875 15.171875 39.875 15.082031 39.875 14.984375 C 40.375 14.761719 40.878906 14.835938 41.433594 14.847656 Z M 41.433594 14.847656 "/>
</g>
</svg>
